<mxfile host="app.diagrams.net" modified="2020-09-27T21:01:06.507Z" agent="5.0 (Windows NT 10.0; Win64; x64) AppleWebKit/537.36 (KHTML, like Gecko) Chrome/81.0.4044.138 Safari/537.36" etag="iaT8kDHvdEfxvafJkWoR" version="13.7.2" type="github">
  <diagram id="C5RBs43oDa-KdzZeNtuy" name="Page-1">
    <mxGraphModel dx="1292" dy="656" grid="1" gridSize="10" guides="1" tooltips="1" connect="1" arrows="1" fold="1" page="1" pageScale="1" pageWidth="850" pageHeight="1100" math="0" shadow="0">
      <root>
        <mxCell id="WIyWlLk6GJQsqaUBKTNV-0" />
        <mxCell id="WIyWlLk6GJQsqaUBKTNV-1" parent="WIyWlLk6GJQsqaUBKTNV-0" />
        <mxCell id="hoXgWQwnw69QvBTEGAqw-0" value="" style="shape=cylinder3;whiteSpace=wrap;boundedLbl=1;backgroundOutline=1;size=18.724116884428952;labelBorderColor=none;shadow=0;sketch=0;fillColor=#B5FFF5;" vertex="1" parent="WIyWlLk6GJQsqaUBKTNV-1">
          <mxGeometry x="80" y="215" width="130" height="250" as="geometry" />
        </mxCell>
        <mxCell id="hoXgWQwnw69QvBTEGAqw-1" value="Road Network Map" style="text;resizable=0;autosize=1;align=center;verticalAlign=middle;points=[];fillColor=none;strokeColor=none;fontFamily=Times New Roman;labelBorderColor=none;" vertex="1" parent="WIyWlLk6GJQsqaUBKTNV-1">
          <mxGeometry x="90" y="225" width="110" height="20" as="geometry" />
        </mxCell>
        <mxCell id="hoXgWQwnw69QvBTEGAqw-2" value="" style="shape=parallelogram;perimeter=parallelogramPerimeter;whiteSpace=wrap;fixedSize=1;fillColor=#8AFFDC;fontFamily=Times New Roman;size=70.00000000000023;labelBorderColor=none;" vertex="1" parent="WIyWlLk6GJQsqaUBKTNV-1">
          <mxGeometry x="185" y="255" width="400" height="60" as="geometry" />
        </mxCell>
        <mxCell id="hoXgWQwnw69QvBTEGAqw-3" value="" style="shape=parallelogram;perimeter=parallelogramPerimeter;whiteSpace=wrap;fixedSize=1;fillColor=#8AFFDC;fontFamily=Times New Roman;size=70.00000000000023;labelBorderColor=none;" vertex="1" parent="WIyWlLk6GJQsqaUBKTNV-1">
          <mxGeometry x="180" y="325" width="400" height="60" as="geometry" />
        </mxCell>
        <mxCell id="hoXgWQwnw69QvBTEGAqw-5" value="" style="shape=image;verticalLabelPosition=bottom;labelBackgroundColor=#ffffff;verticalAlign=top;aspect=fixed;imageAspect=0;image=data:image/png,iVBORw0KGgoAAAANSUhEUgAABDIAAAD8CAYAAACFBIT3AAAgAElEQVR4Aey9hVdcydf9PX/bu9613p88zzPfSdDG3d2lm5CQIBHiAkHiTtwgNnF3mbiNxCeeie537eq+pCEJMOE2oZvNWpVLoKlb99xP3Xtq16lTP8VGRUJFNhADYmCkMxAZHgZHSDDiY6JRN2ECDh44gGfPnoFf7969w82bN7Bp4wbUjK1GckI8IkJDzOejHOF6huo9Igb8mIGYyAiwH/M40p+Dun7/8AViIhyGVzLrXWK/k+GE2BgkxMUiMjwUYcFBCA8JRkRYKKI95xEX/sGF7tPg7xP7kyM0BOHBQeaod8PgbWo3l1HhDmRkxGLvxfn4ye7KVd/wu+G6J7onYmDgDPClRUcuKsIBV0U52ttaMamhHukpyealZn6nQY8GfH48cNfzYODPA9lKthoJDHDwpgGbWB8JrA/kGtkfBvI5febH9BkJGXJA1UHFgBjohwHORBlVPiTYzE4xYkMvtx/z0pKzILuLATEgBsSAGBADYkAMSMjoZwCjTqJOIgbEgMWAxAuxYLGgo1gQA2JADIgBMSAGxMCPY0BChoQMzcaLATEgBsSAGBADYkAMiAExIAbEgBjwGwYkZAhWv4FViuePUzxle9leDIgBMSAGxIAYEANiQAyIgeHCgIQMCRkSMsSAGBADYkAMiAExIAbEgBgQA2JADPgNAxIyBKvfwDpc1D+1Q0q0GBADYkAMiAExIAbEgBgQA2LgxzEgIUNChoQMMSAGxIAYEANiQAyIATEgBsSAGBADfsOAhAzB6jewSvH8cYqnbC/biwExIAbEgBgQA2JADIgBMTBcGJCQISFDQoYYEANiQAyIATEgBsSAGBADYkAMiAG/YaCHkBEaNBoqsoEYEANiQAzYxUBY0GiEhwTDERqCyLBQRDnCER3hMCUmMgJWGS7qvtqhmSYxIAbEgBgQA2JADAx/BnoIGVMmTYSKbCAGxIAYEAN2MTCxvg5jx1ShtLgIudlZSEtOQnxMNGIiHIgMDzMCR1hwkBHRQ0aPAoUP/t8SPyI8Agg/a4kgEj+Gv3MhB1D3SAyIATEgBsSAGPAlAz2EDOhLFpAFZAFZQBaw0QKfPn3Cu3fv8Pr1a7x48QLPnj3Do0cPcf3aNRw/fgy7d+3Cpo0bsHzZUrQ2N2PGtEbU19WieowL5aUlKMzPQ05mBtJSkpGUEI+4mCgjaESEhRqxg6KHifboJXT48sWpuuWYiQExIAbEgBgQA2LgxzLQQ8iY39QEFdlADIgBMSAG7GCguWkeWuc3Y9mSJVi3di06Oztx8MB+nDp5Er9duoQ7t2/j4cOHePX6NSh4sHz48AHv37/H+/fu45s3r/H48SP8/vtdXLt2FRcunMfRI0ewZdMmLFzQjhnTpmKMy4mcrEwkxMaapSoUNrg0JtwjclD06B3R4c/OR1R4mO3LQCkIMUrGbrtwGZEVcWPXciXWw/tpd1tZH6N+TFQQI4NsKGwrr592sLu93ra1o62sg+2NcthvW1+0le3l/fKVXXnf7CujwX5rd1tZH/sCI9jsLHyGMvLN7vbyftnZThO5FxLsk7ZadnVwaaQNhW3lu8hum/I+8X5ZtrCrrb7oW7x21mveyXwv+2sJDzXXwOv4t4VcqQzeBrQ7WeohZIT8EgwV2UAMiAExIAbsYSAIwf9hGY2gn0cj6H9GIeg/FBhCERsZheSERGSlp6MgNw/lpaWoGTsWjVMmo3nePCxbuhQb1q9HV1cn9u/bhxPHj+PSxYu4c+c27t+/j+fPn+Pjx48mdoTRHhQ7bt+6jWNHj2LL5k1YtHAhZkyfhpqx1SgpKkRWRjoS42LNgJIvQPcAZbTfRXPwxc1IFV7fooULjJhDQWcwhXW1zG9GRlqqrQNDtpV2b22Zb9o7mDZaf8trXrxoIVzOSlvbajnYRQX5xhZsc8v8wZe2lhbMb242y6poD7sGMdGOcHO/KDjyHHa0ldfc3taKspJiW23L66bQ2DRvLtpa7WsrmeX9stWuEQ5j17mzZ4FCbNPcObaU+U3zbLcrWaJAVFxYgIkN9SaSrb62FoMtDfV15rmZlBBnq7jJtuZlZ7vbakM7eZ1sa+34GqQkJtgnFnoEHC6HnDC+xryX+G4abGFdfHbHRUfZJrxQxOB9GlPlwviacYNuo7nGcWPNdefn5NhnU0/yzLioSPPOz8/NQV52lt8WLpMtyM0xfY/9b2Cl0DyveN25WZnIzVYZjA3yc7KRkZqKqPAIpKfHYu+F+fipsbkQKrKBGBADYkAM2MJAUyEmzy1A/Yw81E7NxbiJ2XCOy0RxSRqyMhOREOdZJhIahrCgECOkU/ToFj5+Ho3Q0cGICA1HTEQk4mNikZyYgKz0NJQWF2P8uLGYOWM6li1dgh1dXSbS49atm3j9+hU+Afjw4T3evX+Ply9f4s8//8Tly7+ZaI6tmzcbEWBq4xS4KivMYDshNto4bZzVCgt2R3Nw1oTOt12Dz8HWQ6eV7eNg0+6v16/foKKs1NQ/2HZaf8+2jnFW4u27d3Y3F6tWrDBttXPWmO2dM3u27W1lpFFDXR3CQ4JsY4ltJbuWmGdnoxe0txmhz7qPgz2yrRxs/vPPP3Y209Q1Z/YsW5nlzDbt+vbtW9vbSgGOtrCLWdbDZ9T6dWtNe9+8eQM7Cq/97t07yMvJtjWCgNdO8YlLDe1oJ+sgU3///QQVpSVGlB4sq/x7PvNp2z17dpt28v1hR2F7jxw+bHJE2SW+MYdUUWE+fv/9d7N80452vnr1ylz3iuXLbH0O8JoTYmOwZ/du/PXXX7h7965fF/oUjCgdaHn06BEePniIv/76E/f++stMyDx4cB8q32eDv588Qdf2TkSGRSCvMAEHr7bgpx03XVCRDcSAGBADYsBOBrrMu6UKXTeqsP1KFbacr8KGU050HKnEsj0VaN9UhqaVxZjWnov6WdkYNykTzpo0FFckIa8gHhmZ8UhOijUzWQwjdISEI2x0KIJ+DkLQ/7iFj5BRQYgIDUNifDxys7LgqqzE9MZG0BmjyHH82FHcuHHDOB1WNAcHmIzmePb0qYn0OH78OLo6O7F44QLU1tQYwYTOF0PY6YTze7sGId/jcPPcbMeCBe22D7I4uKgoL7N1UMi2VrucPhlsr1m1ytZBIe8H29s0d67ttmWFE+vrbRcyKBL54osDbkYsfQ+jX/sb2rWudgLc8VP2tnje3Dm2Mkshg0vVfPHFPEC0hV3PENZDIaNz+3bbm/vs+TMU5OXaK2QEB2HRogW2t5XPcYpPvHdf4+/f/swSMo4fO257Wy9euGC7kMHIEYoPdn9tWL8OYcGjbLEp74ElZFy5fNnupvpVfRcuXMC+fXtNfrBdO3di76+/Yv/+/TjAcuCAygBtwCXGjCaNCHWgfEwqjt5pwU/brlVCRTYQA2JADIgBOxnYfq0S3eV6JTpvVKLzZiW6bjrRdcuJHbed2HnHhV13XNh5uwqd113YdsWJLb9VYuPZCqw9XoFVB8uxdE8JFmwrxryVJZjWVoj6mbmors9CeVUGCgpTkZ6egMT4GON4RYRR7AhG0M+jTISHIyQM8TExyExLNWGgNdXVmDljBpYvXYpdO3fgzOlTuHvnjpl54yw3y+PHj3HixHEsWbwIVS4nUpISzDp3DkboNHMQ4Yu8En053lwWw51gTp44gZMnjuPEsWODLsxZsm/fPjDcl/X3df5/8zvWVZSf586LcuLEoNtprvX4cZw+eRLTpzaatto1KOR1sb2MHDh96hTOnjmDM6dPD7qwnlMnT9g60LLaymUV5ODsWXvaeubMaZw/d87sXmfXoNBqa2V5GY4ePYpzZ88O2qa8L7Tr6dOnzP2yk1mu2WeYOOu+ePECzp8/N+jCvD6XLl3E9GlT3f3LptwTZJ+DQ4q1nBW+d+8e7t37a9Dl4cMHpr0Mn7fTtmSKS3bsbOuDBw9w69YtsyuWXW21hIydO7rw99O/8eTJE1sK6zqwf5+9QgafsQX5RqT/+29727p0yWJbxVdLyOC7lrmwKJ6PlEKxzfq6f++eeb6s61iDCTU1SIyPQ2hQEIJH/WJyFFm+Bf0Llb5twL4aaYSMNI+QcbUS21RkAzEgBsSAGPhRDFiiBwUPI3o4PwseHtHDLXw4sfOuCztuubDtchU2na3C2uNOrDpQgcVd5WjZUIa5K4oxtTUf1XVZyMtPQkJcDCKCwxHySxBCfhmNkNEso4zzwBci11lzXTB3TVm5fDmOHTtqwj/pgNDh+v3uXfy6e7dZ588tZdNTUhDJiA1PUtEfHbHxb0QGffbrmda5fp3bA9tdWK8vbG53O1mfL9rqT3ZlWxPjY80Ag3l1bCnxcYYpXzDALa0pOph191x7P9iSnYXsjHTTXjuFQtbFZ2x3joDBttPkGcgyu1pxyYKdbeV9og0oEnDnLDsK62KuGDv7F6+Z156Xm4NCm9uanppiq03ZVl57dZULUyZPwqSJDSOmMF9X6/z5WLu2A0ePHjHiG6NBKehwWdD2bVsxtXGy6bsUL5h0mYIGcyHFRLqXOrmP/F6FNrAER0vIOGIiMn6U46rzatAkBsSAGBAD38MAhQ9PlEcXozwodngJHhQ6tl91YcMZJ5bvqcDc5aWYMCkPefmpSIyLQYwjyij6juAwOEJC4QjxZH8PDTYDTzqzTBjK5KOnTp00ERucXWHeB65zZTioSeRXWmIGPJwVpLDBqA1fCRt0CPkSt7v4YpDFOu1up+XA+KK9btuG295m1uuL9hrbOmxkwUfLp7qZddhrW1/YlXWy79pdfNFWMsV28rljZ2Fkii/aS17tbKdVly/aygElB5N2FtZp93OA10472NlO1kWu7G4r62Nb+X4ccSU4yFw7bUDxkYlfmfyYkXD/vH1rdm1j9M/hQ4cwe9ZMZKanmXtKO7Hf+OJeBEKdbiEjFRIyvseB1t9o4CUGxIAYGN4MWELHzUqzhGXHbRe6rlVh4xkXlu2qwNwVRaidnoPSylSkpcQbYcMR7EBESDgiw8LhCA1FeDATgLpzBnD5BWeT1nZ0mPB2hvPyi0nnbt28id27dpotZ6uclWb20cqvIUfk6xEQgeBI6Rp0b8WAGBADYqA/Big60RewRDKKFIxSKSsuNrtPHTly2Cxjok/x6OFDMDH52Oox5m/M1thczuojUby/tg/X31PIKKtKkZChJTVaViQGxIAYGBkMMF8H83S4ozdc6LzhwpZLLqw9VonW9aWonZ6NorIUpKXGIy4qGlFhEYgIcZhkoozYsCIuYqIizI4nXIqyZctmXL16FS9fvDAzKwwZ5VrYjRvWg/kB6KzQaeFslBwRObzD1SlUu8SmGBADYmCIGIh0Ryxy9xn6FYyC4Tbos2fONNvNv//w3kyUMCfQlMmTzeRIeKjbj9A9ct8jCRmaTR3es6m6P7o/YkAM+JgBI2xcdycf3XmHiUersPWSC6sPVqBlfQmmNOfDVZOJ7KxkJETHmu2+GK0RFR5uZlbogDDXBsWK4oJ8TJ861WyJyESBdES4DSwTMnLbVO59boXW0mmRqDFEDmOUziPHVwyIATEgBoYvA+5ojVDjT9A3qKkegy2bN+PRo4dG0GBi25UrliM/L7d7+epIv58SMnzsIGuGd2TM8Oo+6z6LgcBioDti4zZ3VnFh+xUX1h13YuGWcjTMKEBObjJiI6NNfo1oR4QRJJiYyxIprJBRLjHZvGmTic6gJ/Ls6TOzHeyEmnFITog3zgjXI2vpyfB1Lke6o6jrF5tiQAyIgaFlgD4B/QhHWCiyMzOwsL0dN25cN4IGd1RrnjcPsZ5Iz5E8IUIho9SlpSWa8ZSgIwbEgBgQA19nwJNno+uWO89G540qI2o0rylF1fhMJMXHIiLYgcgwd3ZxOnwxDBl1hH92RDLSwczlhw4dwps3b8zyk+vXrmHlyhUoKykxkR1cA8u1syPZKZGzPLTOsuwte4sBMSAGhi8D9AesCZLkxAQ0Tp6Ma1evGkHjxPHjcFaUIyzY7TuMxPsoIUOO+9cdd9lFdhEDYkAMfJUBsxTFJA9174iyfE8l6mbmICcv0URpMJ9GtONzlnE6IhQoOLvCY3FhAdavXYu7d+4YZ4SJQg8fPoSpU6aY9bH8HIuiNIavczkSHUZds3gUA2JADPwgBiIjERUeBiYQp6Cxft06vH37Fi9fvcKyJUvcycWDg0bcRAgnkExExu0W/KTQ6MAKjdb91P0UA2JADPiWAW79uuM2t3x1Yf3pSrSsL8KYCVlm2UhkaASiGKUR8XnrzZgIh9lSjc5ISlIi6mtr0dXZiefPnxtR4969e+jcvh1jx7iMQ8L8G0oQ+oMcR+XV0JZ/YkAMiAExMMwYsCZGxricOHP6tPEdGKVRP2GCmQShzzBSBCcjZDiTcURChm+dXQ0mZF8xIAbEQOAy4N4JhYlCnei8VoVluysweW4+CgpTER8VY3JpRJlcGu5BOaM0zOxKcJBxPPJysrFwQTuYIJTJQbnryenTpzC/aR4KcnNMNnNGaTBB6EhxUHSdEnDEgBgQA2JADHzJAH0ITnTEx0Qb34FbwX/69Akb1q9HdkaG+V10ROD7CxIyFDr91dBpDbgCd8Cle6t7KwZ8y4AVpdF104X1p5xo3VCGMbU5SE6MB6M0TC4N7ygNrzWwCbExqKqswNq1Hbh//76ZaXn69G/8umePid5IiIs1DooShH7p2MnZlU3EgBgQA2JgJDHAyQ1HSDAK8/NwYP9+4zPcvXsX06Y2mokP/i6Q7UF/qkQRGb51ajVokH3FgBgQAyOQgWuV6DS5NJzYfrUKK351mq1cC4vdO544gplLgzuefHY8LaeEQkV6WirmzJqF48eO4fXrV93ho8uWLkFFWanJoREaNMpEdnB2JpCdFV3bZ0ZkC9lCDIgBMSAGLAb4/neEhJjlqHNmz8Jff/1l/AVOgBQV5IOJxAM1mlNChiIyFJEhBsSAGBADPmaAURpdt9y5NDafr0T7llKMqctCSlIcosIiTZRGdK8oDa6DZegok34WF+SDAsad7gShb3Hm9CnMmDYNqUmJJu8GZ14C1VmxHLbeRzpwEnHk0PfmQv8XE2JADIw0BugrcAcTbte6fdtWfPz4EVxy0jp/PmKiIs0y1kB7Xxoho1I5MuTE+9iJ12z0CJyNFlN6roiBLxlglMaNSuy860TXdRdW7KvAtNYClJSlIz4m1p1LI/zzNq50xOicMEIjeNQvJlv5lEkTsXPnDjx+9MjMuvz+++/YtGEDxo2tBpemMJeGO0Ho551TAtWho9hD21DwCffkG7F2feGRv7NKRGiIsQv/hoWiDwvty2KJIoHm6AXqvdd1aaAqBsSAGPiSAfPOCwvBxIZ6XL16xfgJJ0+egMtZgfBQ9+5pgWI3ChnFFRIyvnQ25YDLJmJADIgBMeBDBpgg1IrS2HLBhQWbyzG2LhepKQmIDo80ooZ3lAYdDw7AOWDnMSs9Dc1N83Dp0kW8f+9OEHrp4kXzs5ysDDNIDzNRGmEBt+yEQk15aQk2b9qEtR1rsHzpUixob0PT3LmYMW0qJk1sQO34GoxxucznivLzwYSqnKnKSEtFanKS2VmGwk9cdJTZWcYSNoyNPWJQoDh7uo4vnf1Askm3mOfZurm3eMf+Yol30R7xLiayp2AaSPbQtQQ277q//d9fd3RGkHnPrV61Cu/evTNlxfJlSIqPM35EIIj2biEjSbuWKGJAEQNiQAyIATHwQxjwRGlwG1fm0li1vxIzFxShpCINcVHRYC6NqPCeSyjogHBwEh4SZKIwxo6pMvvK/373dzP78vjxY+zetQtTJk8y+8uHjB5lIjU4iAkE54Xb106e2GCutfc/DKd9/+4d/vnnH7x+/RovX77Es2fP8PDhQ/z5xx+4desWrl69Coo+Z8+examTJ3HkyBHs27sXu3btxNatW9DW2oKcrExjMznN/TvNstGPsRH7MnctmNTQgNmzZhoBb8L4GlRXuVBZXoriwgIj4FH0pHjHAQyFOw5yIsK4dC0YfDYE/fIfE/HF77menv3LRDmNwOVqYvnHsDwYu1OEdoS6I/As0c4Id1+JvOsdfRcI78O+bBcZHgpHWAiqnE6cPuXeqpWTH/W1E7pt1tffD/ffScjw4WzbD3GIdT2aQRYDYkAM+C0D3rk0tl5yYeHWMoytz0JaahyiGKURxmUQPRN70omzllGkJCZg5vRpZutWDuT5dffOHaxauQLO8nIz6OEAhcssYiL8d+lJX0JGb2Gjr/9/+PgRb9++xatXr/D82XNQALK+KHhwQMjZ7eHuzKl9/jf4suOese8nxsXi5o0bBltu3cx+b3h+/tysj+cSNO6AdPvWLfx26ZJ5Nhw9cgT79+3Drp1u4W792g4T1dTe2oJ5c+Zg5ozpmNbYiJrqaqQlJ5k+EOgDPjvuh+oY+n5ILrMz0uGqrEBZcREK83KRm5VpIhbTUpLNckzu9kUBL5bbnjvCTXSSeyIg2Ah2TJodOnpUDwGPOaf47Ofn/Z19tp8+Avlc2N6OF8+fmyhORjRmpqeZ66bA44/8SsiQw++3Dr+EIs2eiwExELAMXKtE9zauN1xYc7gCM5cUoqQ8HfHRX8+lQWclyhFmZlTplFSUlmDJ4sW4euUKPuGTiVK4fPk3LF+2FMWFhYiKcJjwUjp0/iZq0CljFMqFCxdMVMWxo0dw4MB+7Nm9G53bt2Pzxo3oWLMay5ctw6KFC9A6v7l7gDZ1ymRMaqjHhHHjvJzfPORmZYGOb/O8ucbJ48jw9u3byMvOMk4gHdrexZrd80cHUG0e+kGX3TYnjxQyKFLY+fXhwweTKPDTp0+4dvUqpkya5Mm701NEtft6VJ//MzmU95DvPIoNHJxz6cTLFy/w6NEj/PXnnyYx9o3r13HlyhVcvHABZ06fxtHDh7H311/R1bkdmzdtxNqODqxasQJLlyxGW2sruONH4+TJqJswHuPHjUVleVl3Mm1/Heh73w8+LziRUVpUaCIQ+cz4668/MXP6dPNuoy39TbSRkCEhQ0KGGBADYkAMDGMGunNp3HFhy0UX2jeVY2xDDjIzEhHjiDK5NGJ6RWnQ6aJTQqeFeSDolG3dstksreDg5PWbNzhy5DBmzZhuBur8vJV7w9vxGc7fM6Q+KSHeXF+sJ1w+0sHkn6EID3bPtPH6v1qCRiM6ItzMNqckJprBYGJ8HFgPZ/eYQNX6am9rNU4eZ/U4aGRhiD5nqplvg/8fznZS2wJ3cGgJGRyoMQrj8ZPHePDgPv744w8jblznQO7yZTOQO3v2DE4cP44D+/dj986d2LZtKzZsWI81q1eZHZEWLliAlvnNmD1rFiZPnGi+f/r0qekGz5+/QH1trSIzogKXJX98TlhCxuLFi63HtS1H5pxiZNM/b94YIY+5l9wTBeF+/6zndXAigO/8mTNmGJ+ARjNbtebndYv2/sIDhYyi8iQcvt2CnwJ2ZmsYO6iyuWaUxYAYEANiYKAMcMcTdy4NF1YfqsTMRcUoKc9AbFQ0IkKsXBo9nW0Odui4RISFID01xUQj7OjqwpMnT4zTx+UUe3/dg6lTpiA1OdEM/Pl5/t1wdmYsx5LtpFNmFf7cu3ztGhiBwpwBTfPm4vz580a4uHHjBq5euYprV6+Z3BqWR8yB4bmzZ83nmFeDWeAZyn/40EETgk+b8nxfO49+1pNF2cN+ezBknolvx7icKCspNnkx8nNzPie2TUo0whuFP9qfrLKvsN8wj0BEaKjp86P/8zP+81//F//57/+Ln//r/+C//vf/wtq1HVY3MHlk+FwIGf3LF+Ig1+GrD9h/b9Vf+rYpmaNgv3TJkm5O3719h1evX+H582fmHcfcSPfu/YXff7+LGzeu4+LFCzh54gQOHTpoojN27OjC1s2bTY6pjtWM4nMnjqaox2hGfjHvEpNksr8ECufs/xT5mQB7y+bNwKdPxl7tra1mGQ5/5w/XagkZRyRkyJEeqCOtz4kVMSAGxMCPZaA7l8ZtF7ZcqELbRk8ujbR4RIZGfDVKg04JHTEmCKXzl5WZgflN84xTx9lcfjESYcO6dZhQM85EOzDxHz/LgU+gOdW8JkarcIs6OrYD/WLCUDp+zJ/Bv/cHZy/Q7p2up+cAj8vDvJMd9kh46LUkyhL7eCS3pl9HR5plWtz9p6uzE1s2b8KmjRvMbkBnzpzp7hZ/P3kCDvSWLF5kBnsrli83/1+/bh1aW1pQUVrq3gFIol7APSuHc3/jgLy8pARz58xG4xT3spDqMVWoKC9DEZPdZmchIz0VKUmJZgcPRtDFeUS9aLMc02EG9P/57//Cf/+f/+0p/wv/3//7/5h+YeWaevXyJYoL8sHPMSmuVUx+jWD3e9If3wXuZ0cIJtbX4dq1a6a/nzhxHM6KMjMBQp9hON9/ChmFisj4sQ6pBgSyvxgQA2JADHwvA95RGmuOuHNpFBSlIjYy2ggaUeFfbrNoiRruWZdIM4vb2jLfbOXKpSecgWJ+iPVr16K0uMjk0+Bn6fSYwU+AhFjTDsYGUZGoGVuNgwcPgPkBen+9efMGhw8dwpRJE01UC2emKfD4o+M6nJ1Sta2nQDEU9iDDXCbFPBgXLpzvjX6f/2c0F3MNMF8NEw0PRXt1jqFnZLjbnINts9tOcJAZfPPZzGIEPa+thyl6sHgLevzbkqICkyuDkRkU8davW2tyLDFawxIy2BEYyTh75gw0NzWhpbnZ5NVgDqaFC9oxbWqjeTf44/vReg+yDzPy5K1nxy/mmeIySr4jh+t1GSGjLFFLS77XgdTfafAhBsSAGBADw4EBK5fGrruM0nChdUMpxjVkIyMtCdHhUWbHk965NOig0kGh08cZJoapj61ymZByJkqjoMFdPU6fOgUKHdzOMSbSPYNFBzBQBvK0AXdC4XFifT2OHj2CFy9emK1aOePMsH1eL20USNc93Acoat/QDFrJPQeC7P/Tp03FqVMn8e79u6+KGCnZTrIAACAASURBVK9ev8apU6fQ1tJiZrs5yGE0SKA8C8Tc0DA3XOxMbjmAnzF9Gs6c/hyB9FX4e/2Q70cuNVzttSuYP/cDvtv4HOD77vRp91atXF5TX1dr3nsUhobLfbPaYYSM0kQcvqUcGUp2p1wiYkAMiAExEBAMWFEanddcWHOoEtPbilFQlIa4KCtK4+s5HTigYbQBS3JiAsbXjMPWLVvw8MED48JxcH/48CEz2MlMSzUzXvwsHSDLsfDnoxE0goNMAk86czlZme7koZ7kaP58bWr7yBqgfc/9ttbNc8lU4+RJOHvmDD59+mj6PnPFbNmy2URfxMfEfN7xSEtJAuLZ9z28BMrfWO+92KgoTBhfgyOHD3fvXNVLuzD/ffbsGfbv32fyTTHXEvNPmUF+APQFCjF8p7OPc7cvXiu/mCw8Mz192EVnUMgokJCh2cThMJuoNohDMSAGxIC9DHTn0rjlwqYzVWhZX4qxE7ORnpqAyBDHN6M06MxwUEOHhtEa3GueW7Tt37cPf//9t3FsmECNW51OmthgQtM5k8PP8+/8eVaKzjmvgdet6AsN/gNlsPZvrsMSNBhWztwD3NGksCCvW7jk7/9Nffqs+pE/MGBxz8gkLiM8fuxYj6WGjE7gdq1Mrmu2Lw+Q993X7g1twfc5ozD379tr3vl37twxfgBzi/B3scNAuHELGQmKyJDzbK/zLHvKnmJADIiBYcTAtUowSqPrthPbPVEa09oKkJuXhNhIbuFK4YK7fXzpcFOU4IDeEikYpTBv7hxcOH8eHz68xyezF/1fZivHyvJyE57Oz1II4EzX15wk/exLO8smsslwY4CDGfZj9mfOOPu7QDnc7Kv2DM8+b0VoUNBgZNL27dswY9o0cKtu9ocR827z7AoT7QjHjGlTcf/+fSNocAtn7ozEZWU/WtSUkKEw6oAIo9aAaRgNmNSn1KfEwLBmwMqlsfOOC5vOVaJ1YwnGNmQhLSUBUWGRJkFotBE1vlx+woEMBzSMvuD3zvIyLFu6BNyW9N379/jw8SMu//Ybli9diorSEvMZOjv8GzqHGggNT8ddAyrdl74YUL8VH33xEai/s6ISKFzwPTZSI/T47uY7Pycry+xq9O7dO7PkpL2tFdzWOfwHbtUqIUMO97B2uCVQSKAQA2JADPiOge5cGjdcWH3IiSlNRSgqTUNKUhxiHFGICHXga7ue0HGlc+MICTYOXmx0FKqclSbj+59//mGShHL3D25rOmvGDORlZcEKR+Xs7kh1CAPV4dd1aaArBsRAoDIgIc/NthWdVTu+Btc9W7WeOX0aleVlJkqF7/WhZoBCRn6JlpZoMC9BRwyIATEgBkYsA+4ojUp03XJh83kXlu2uwKwlRaiuy0Z2VjKiKWp4cmowWiPWawkKnTyGnlrLSdJTUzCpoQHbt23tDkV99PAhDhzYj8WLFpptTtNTk02UBncKcQsbgbWt61A7czqfBpFiQAyIATHgawY4gcHolNSkRKxcsRzcmvzVq1foWL3a7P5iRWv6uh1W/RIy5LiPWMdds7y+m+WVbWVbMeCnDFi5NG45seOWE51Xq7DuuAsta0sxfnIO8gqSkBgXY3JqMFqj9xIUihpWPg3O3mSkpWLO7Fk4fvwYnj79G58+fTLRGkwUynW27W1tGFc9Blnp6SbCw50w1B3Cq6UocsotZ1VHsSAGxIAYGD4MuN/zQXBWVODMGfe2tVeuXEbt+PFmkiIiNGRIojMkZEjIkJAhBsSAGBADYuCrDHDXk86bldhx24Wu61XYcMaJJTtLMX1hPsqr0pGcGI/ocCYLdS9BiY74nDDUEjUYdcHv87KzUDdhvMmpceL4cTx58sQIG1yC8vDhQ7Nv/dqONWDYKrd2tQQRE7GhHBtD4hRqoDB8Bgq6F7oXYkAMDGcG+F7n+zk+Ngbzm5vw9OlTs8vLjs5OZGdmmLwajNb05TUYIaM4XruWaPbQT2cPNfj46uBDPItnMSAG7GaAy0+snBpMFNp5zYVVByoxa0kxxtRmISc3CQkxsSZag84FRQ1rCQqjK5jwkyGpYcGjjUhBsaKhrharVq4AhY379+6ZhKFMi/7o0UMcPXoESxcvRt2ECcjLyUYck4qFBJtiJQ/1pYOkujWIEANiQAyIATHQNwNMispoyuKCAhzYv697e/YZ06eZSQzm0qLo4Qs7GiGjSEKGBoMSBMSAGBADYkAM/AsGGK3RdasSFDW2X3Fh3fFKLNhShslzClFcmoGkuFhEhkV0R2vEUNiIijQODb9nxAWFDYoTMVGRyMpIN8tM2lpbsG/vXty7d8/M7nz8+BGPHz8Gk4qtW9uBhro6cAtY7+ShXMZCcYMOFUUTXzhMqrNvZ1b2kX3EgBgQAyOXAb6HKVhMnTIFv//+uxE0Dh44gKL8fPOu98VWrRIy/oXTZvfslurTjKkYEANiQAwEAgPdS1DuMLeGC5vPVWHJjgpMby+EqyYTmVmJiI2M/pwwtNcSFIoP1lISa5u7jNQUTKgZhyWLF+HQwYP4448/wG3fmGfj0ePHOHnyJFavWoUpkyaZrV6zM9ORFB+PKAeTkY02M0SWUEKRg/UzzDVG28BK6IkauYMNDTR178WAGPAVA1Z0Bicmtm3dat7XnIjgBEVCXIwRNOyMzqCQkaeIDDnSgeBI6xrEsRgQA2JgGDBgLUExCUNd2HbZhbXHGK1RitppucjKTjB7z0eFRX6O1ugVdkqxwRI2GLERFeFAWnIyKspKMW/OHOzft8/k2GB+DUZsvH79Gk8eP8bNmzdx7uxZ7P11j8nFMbVxClwVFSY/B7Osx0VHmXo5c2REjuBgs22cJXTQCbOEDjudLV85japXAxIxIAbEgBgYbgzwncoyvmYcbt64YaIzLl44j8qKcvPu5fvdjjZLyFBEhkKpxYAYEANiQAz4hoFrlTBLUG66l6CYaI0LTizqLMPUlnxUjs1ARnoiYhzRPXJrxHht70pnxxI2uNaWa3EpRCQnxGPsmCq0t7Vi86ZNZnvX8+fPm5DWZ8+emW3hjPcE4MWLF/jrr79w9epVHDp0EJs3bcTSpUswe+YM1Iwbi5KiQmSlpyGBy2HCw7pzcXjn5ODPKXSwMILEu1D0+Fqxw1FTHRqkiAExIAbEgL8xwPc239fJiQlmq1a+h//55x8TSZmanGQEjcEuBTVCRmEcDt1swU+ayRoGM1lypn3jTMuusqsYEANi4MczYEVr3Hai65YLWy870XGkEk2rSzG2IRc5OSlIiI1Bd7SGw4HeogadOYoGFBQoNDCygsJGVES4ifRg5EV+bg7GuJyYMnkS2tpasWnjBhw9cgTXrl8zgsbLFy/w8cMHvP/wHm/fvTPO1YP7D3Dp0kUcPnzICCNtLfMxqaEersoKFOTlmq1kWXdifJw5D6M7vNtCoYMzUGyLJYB4HynCOELdESD8DIs1a+UWSdxCiSWQ9BZG/M2JVXs18BIDYkAMiAFrcoARladOnTTzCzdu3EB97QQzccD34PdyQiEjV0KGBAyJWGJADIgBMSAGhpSBHtEaTnReq8K64y4s2FyGKU35KHdlIDU5wYgaESEORHl2QvmWsGEJABQ4jKDgid5gvgz+n79nxEV2RjrKS0tM/o2ZM6abHBxbNm82ER2//XYJDx48wLPnz4y4QY+LeTkeP35kIj1u376N69ev49KlSzhz5gyOHT2K/fv3Y/euXdi+bRs2btiAjjWrsXzZUixeuBAtzc2YM3sWpjc2YmJ9vTlndVWVWSLDKBAKJExcyh1cOEOVlBBvRBKKGBFfiQwJN7u+cOeXnsUSTHoLJJZQoqM7zFl2kB3EQGAzEMVcSFbEnCd6js/T7x0o6+/sEWJ4D/ie4latrS3zzdJQLgvdvn2b2aqV77TvuU8SMjRD9+Nn6HQPdA/EgBgQAyOege6Eobec6LrpwtZL7u1d5ywtgbMmE1lZCUiMi0FUeOTnpKEO95KO/pxNOkh0bilymMgJT9SEFT3BI3dBYTRIWnISCvPzMK66GjOnT8eSJYuxc8cOnDl9Cpcv/4Yb16/j1q1b+P3uXRPdQeGDycyeP39ulrO8f+/O20EnjTk8GPXx/v17vHvnPpqfvX+Pt2/fmiUv/Fsue7lz544RSSimMM8Ht6RlktNdu3Zi65bNRiBZtnQJFrS3Yd7cOZg+bSomT6xHbU0NxlZVwVlRjrKSYhQX5CM/Jwc5mRnGQczWUXYQA2JgBDDAZ15qUpLJhRQfE21EYb4b+HwPCxoNCsERfNYzF5LEjR8i7vAdTNEiPzcX+/ftNdEZt27ehLOy4ruWmhghoyAOh25oacmIdyKHdCZOgxbxJgbEgBgQA99igNEaN7i9qxM7brvQebUK609UYvGOUsxalo/xU7JRWJyCpPg4d8RGqAN0aKIpbHjtiNKfwGH9/guhIyy0e9kKZ5Ecnl1PIj0OMJ1knpuiR2ZGmkkmSgGBkR5c0lIzthp148dj8sQGTGtsxOyZMzG/uQmLFrSbtcLr1641y1c6O7fj1z27cfDAfhw/dhRnz5zB5d9+AyM/KG4YkeTRIzx79tSIHq9fvzERIh8/fbTSf5gjRRMKI0x6+vLlS/P5v/9+Yma9njzRUTYQA2JgZDBAQfjChfO4ePGiiZzjM3XP7t0mQo5LGYoK8ozAwec6B9QRYSFG5JawYU/khfVO7etIW1Ncoqgxa+YMWDmtmubNNT/nZENff+/9O773cwricFBChkKKJWSIATEgBsSAGBiODGxnbo2bldhx2y1sMGJj228uLN9TiZlLijBuUjaKSlKRmpKAuEhPjo0wB6LCmWNj8GHFrMMqVtgynTCGMZsID09uDObBsJZ5uI9BZhaQM4Hey0LM/03OjBAzQ8hwd9bDOlk/z8UQ3JSkRJOElBEWXIrCqItx1WPQUF9nBJI5s2ahZX4zFi9a6BZI1q3F1i1bTBQHxZHDBw+qyAZiQAwENAOHDh7AkcOHjXBx/do1WOXatau4c/s2nr94bqLjqPpS7L165Qp27dxplv2VFBYgLjraPLdNZF6EA7E2vDO8B9v6/usiCd93IaNHmTxUjMrg19q1Hebdx3sxELspIuNbs0H6uWYKxYAYEANiQAwMSwYobHApyo7b7t1QOq+7sOmsEyv2VqC5owST5hSg3JmJ9NRExEREuXdECXULG9ERgxc2BuJgfeszliDyraMllPRYCuMtlDA/RtBohI4e5S5Bo83MoiWg0AG0hBGKIyqygRgQA4HOAAfFjJJLSUzoLtwtIz0lGcVFBaivrUXL/PnYtmULLl64gL///tsMnLkkkFEbSxYvRkVZmVmWwkgNPkf5jP7Wc1w//7o48a/twtwZwUEmsnHfXvdSk6NHj3bnzeivPgkZclKHpZM6HGcE1SbNVIsBMSAGhicDJmKjeymKJ8fGRRfWHHRifkcpGmblo6wqHVlZiUiIiTHCBhOI0gniUpTYXtu99uc8Dbvfe0WMdAskVsI7HT8n/5MtZAsxELAMmCg5zxbZ3d97dpP6vJQkDLHRUcjLycasGdPx6697cO/+PXz69MkkeKbIsWL5crNMkEsKmVNj2D3vo2wSEYZRPRSO4mKi0bF6tRGYbt26CVdlpRE5+hKUtLREQoaEDDEgBsSAGBADAcWAidjoJWxsueRCx9FKLNxWimntBXCOS0dmZgLioqIRGRaBSEZsWHk2NBMn530YOfkaSAXewE339MfcUw6KGe3GqDWKG4xUyUxPQ0Ndrclb9Oeff5qBNJegbN60CVkZaQgNGm0+p3vm23vGe0FBg7uJvXnzxiTRZr6psKBv72giIUPOa0A5r5otHZ6zpbovui9iQAz8UAa6t3pljg13no0dN13YeNplhI2prfkYU5uJvIJkJCfEI9rhWY7iybPBXBtRDncyUSYU5fIUk1TUOn4REREJs02sv0d6aDAvQUcMiIEAZoDCBgfQFDVCg0eb/AwT62px4sRxI2g8fvLY7BTF7bG55IQ7nkjQ8J2gQZEpZNQvGDtmDJ78/QRPnz5FlbPSiElfs7sRMvKV7FODeQk6YkAMiAExIAZGEgOeBKI77zix45YL26+6sOF0JZbtqcDcFcUYNzEPhYXpyM5OQWZmMtLTEpGaHI+khFjj7MZHR5tojrioKMRGRplcHBRAoh2RZovYqLBIT6QHoz0i3N8z8iPMvaTla0cjmHSLJh7hpIdY4hZIKJJIKPGdM/01h1k/k73FQOAzwCUpzEHEe81dp65dvWoEDe4kNbVxismbQdGDA27x4BseKC5RNBo/bqwRMh49eoiKslLzs942ZxRlDoWM69p+VQ7sSHJgda3iXQyIATEgBiwGPBEbnTfcO6PsvONC57UqbDzjwtqjLqw55MKqA5Ummeiy3RVYsqMcC7eVo31TOVrXlaF5TSnmrSjB7CXFmLGgCI2tBZjclI+G2bmom5GDCY05qJmYg+q6bFTVZKGyOhNlzgyUlKejsDjVRILk5iYhO5vbuSYiw4gmTFoXj8S4OMTHxBixhCJJdLi7UCiJMktiPEJJaASY94PFEew+mv97tqalcPJZKIkwW9UysuTb0SUSS3o7zfq/bwYusqvsOtwYoKDBJSUpiYlob2vF/Xv3jKBx7OhR1Iwbi0iHexlEX/kbhts1+VN7aFfan1vm/vPPP+CSH+4wQ4HD+zokZFhOjI5yaMWAGBADYkAMiAEPA9wVhcIGt33tYrnF4jTFvTyFkRy9yk2Xie7g9rCm3HChk+WaO+Jj2xUXtv7mwtZLLmy56MLm805sPOfEhjNOrD/lxLrjTnQcqcTqA5VYubcSy3dXYsmOSizaVo4Fm8vQvqEU89eUYu7yUsxcWIJpLUWYMrcQDTPyMWFKLqrrs+CsSUdZVSpKKlNQVJqCgqJk5OUnIycnySQ7zUhPQGpKHJISY5EQH42E2GjEx0SbLQh7RpdQKLHEEofJIcI8Iv0WT8TJZ9Hkc2SJEU2+WIbDrW0j/T/hagCH33sPHPS9RIeRxIC17CQzPRWbNm4wuRuYGHTP7l0oyMs1A2vm2xhJNhmqazWRGUGjMWXyZHx4/x63b90yNmdEjNUGCRlyWuW0igExIAbEgBgQA3YwcK0S27yKSTrKaA9PxAfFEasYkYRCiVUsweSmWyzpFk0olpi8Ht5Ht2DCJTGmUEAxpQpdN9xl+9UqbL1Uhc3nXdh41oUNRiipRMfRCqw6VI4V+8uw7NcSLN5ZioXbS9G2uRQtG0rQ3FGMuSuLMGtZAWYsysPU9hxMbsnCxHlZqJ+ZjQlTszFuUhbG1GXCNT4DFdXpKHWloagsBfnFScgrSEJObhIys5KQnp6ItJREpCQkICkuHgnRsYiNjEZMeDSiw6NMiQqL8ggmnqU4nsSrEaEOsHQLJ5ZA4h1ZEh6BKOYs8S6eKBMr2kRHd9TNj7RDj3wy1lKp4XT8qrhGgW0klJ7L1axla9bR7Og0wnP9kAMrOSi3aN27Z4/Z5eTlyxfoWLMaWelpJscGP2cNsHW0R/CjTRmZMXP6dHz8+NEs9cnOzDD2po0pZGRzack1LS2RE2eHE6c6xJEYEANiQAyIgaFhwEs0sQSUbvHEI5p8IZT0jiq57cKOL4onIar3z295RZlcd2G7iTJxYttVJ7ZecWLr5Ups+a3SRJlsOO2OLllzxNm9JGfprgos7irDgq0laNtUjJa1JZi3sgSzF5dgelsxGpuLMHF2Aeqm5aNmci6q67LgqslEZXUGyl0ZKKnIQFFpGgqKUpGbn4Ls7GSzDCctNR4pyXFISYpDckIckuJiR0xJjIvFvy6xsUj0Kgm9vuf/u0tMLBL6LDFmO2Nuady7cDnUN0t0DOK/VaJiEO9V4qJi8PVi5aj5+jE2KhrfLJHRRlCjqNZviYhG7HeUmIhofC7uHDoxEd65dJhPZwDFI/gZ4a/35z3LzKzlZt9zjAr/nNPHHYH1ORKLS9d6F7PDk8n185W8P17C49dEyC/yAjEf0NeKw0qu7JVg2ZNk2VuQ+0Ig+1fCU08BZyBbcHNQzWgAihrcTeP8uXNmucmDBw8wd/YsI2JIzLBHwPAWgmhTLimZM2c2Pn76iNOnTiEpPs7cBwkZcraGxtmSnWVnMSAGxIAYEAP+y4BHNOkWSvqLNOlejsO8I5XYcccJJlbdeddT7rjAXCQ7KZZ4Ikt6LMfxiCVmOc4lLsOxIktcWHfChbXHnFhzuBKrDlZg5b5yLN9TbnKXcBlOwJat5VjkVRZuLYdVFmwpxzfL5jKzNInLk3qXdvMzLl0qR/vmcrRtKvtcNpahrY/SuqEMVmlZX4Y+y7oytJhSipZ1n8v8daWYv9ardJRivldp7mCUkHcpRXNHKZrXlPQoTb3/v7oETd2lGE2rP5d5q4rRo6x0i2oU1uauZETSN8qKYpMImMmAWeYs712KMGf5V8qyIsz2KrOWFuHLUohZS78sM5cUorssLsTMHqUAMxd/LjMWF6C7LGJElVdZWIAZvcr0BQVmK+pprQWY2lKAxqZCTJ5XgMlzCjBxVgEmzixA/fR81E3NR21jnlm+VjMpF+MacjG2PhfVtTmoGp8DV002nGOzUDkmExVV7vw/pZXpJgdQcVk6ikvTUFSShqLiNBQWpiG/MA15+anIy0tFbm4KcrJTkJ2VjKyMZGSmJyEjLQnpqUkmmis1OREpiQlITow3g1fmDKLQRpEszpNw2S1GuZMux3rEIiMaOaIQ4ynuCDBPfiGKN2bZnHX8nGeIiZlNNJgn35CVd8j7GB4chtH/M8oIUdOmTMONa7ewZ/deRIVHwBEc5o4i+0ZSZw68e4o3Eebv+LeMLvsiwqyfaLMeYs4XQk5PsaZ7CZ+1lM86+sGyOCZXDQ8NxrIlS4x41Ll9uxEyHCGhJiLjgCIytDXeD90aT86t/zq3une6d2JADIgBMTAYBr4lkngtyemOLPHOW2LEkp5Lcbgk54vcJfpZYNjEe4lVf/fU+7O9v+/9t71//0P+/7XIqCH4mbU8zYq4Yn6fG59L53UXugujsKxy9XPeH4qNplx2YdtlF7ayMBdQdz4gpxEiN59zYdNZ97bXG065sOGkC+uPu7DumAtrj7jQccidWHn1ASdW73di1V4nVu51YsUeJ5bvdmLprkos3VGJxV2VWNxZgUXbK4ywZ0Q4CnAbytGythzz15SheVUZmlaUYe6yUsxZUorZi0pMXqEZ7SWY1lqMqfOL0dhUhMlzCzFpdgEaZuajfkYe6qblYnxjDsZNzsbYiVmors9EVW0GqiZkmKV0zpoMOMdlmEixUmcKCkoTMKGhGPWTy1FSnuoRbyjcpKKwmDmKUkwyZ+Ypys1LBpfdZWUnmnxFmZkJSM+IR3p6HNLT4pDGkhpnchileqLMUhLjkMzCaLOEWCTFe6KwTOSUOxKK0U2fRZ0oxHTvomUJN19G1liRNmZHLe6q9a0SwiTS3sWTSJoJpYPdiaWZXNoq3oJPj+WB3sJO7yicHhE4DpOA2oq8MUKNEWgizTa5jM7Ys2uXETPa29oQ8ksQsnJiISFjMC9g/a0cODEgBsSAGBADYkAMiAExIAZ8xcBXlpJZS8rsOn4RcWVFXllHrzw/Vr6fvo49BEgrH5B1vOlOpsyEyt1Jlb0iudwJlr2SLFOAGqjI1EOs+hz1ZUV/uXMKeZbLefIL7bhZBZYuFk+uIR47r1eh63oVtl+rwvYr7rLtchVYmLh507kKbDxXgS0X3JFjlmCz6QxFGye41I7JnNefdGLdiUqsPV6Jtccq0XGsAmuOsJRj1aEKE1226gAjzCqwfC+jzCqwbHc5lu5yR5st7irHos5yLNpehoVby7BgSynaN5eibVMJ2jaWoHV9MeavK0Lz2iI0dRRh3ppCzF1VgDkr8jF7eT5mL83HzMX5mLEwH9MW5GNqWz4aW/IxpTkfk5ryMWluHibOyUPDrFzUz8hF7bQckxNpfGM2aiZnYezETIxpyEBVXQZcE9LhHJ+KinEpKKtORtmYJJRVJaPUmYySihSTM6mwJMWIOfmFKcjLT0FubjJyspPd0TeZ7uib7sibJE/kTTx36oo3S9rio2MRFxljlmhZOZXCRociISYe505fwPt3nzCpbgqSUyKx/6pyZOjB66sHr+oVW2JADIgBMSAGxIAYEANiQAz8CAb+hQj0TTGnHxFnoKJNFxM691c8uYyspM/fOprosz7FncFE9XwWjrgE0CwD9M6b1Pt7RvVcrzJbl1Pw2fZbFbZerMKWC1XYdK4KG09XYcOpKqw/4cK64+7lgR1HuETQidUHK2FEnP1uEWfZnjIs3V2KxTtLsGhHCRZ2FWPB9iK0by3C3LU52HBgEv5+cx0HLyxH84ZcHLrVjJ+0tEDLS8SAGBADYkAMiAExIAbEgBgQA2JADIxgBrzFn97ik/fvvL43IpC34GNF33iWBPaIvjFbmltbmzOX0mfhhDmVuvMqmdxKLuy86y677nJb8wrsuFaNzhtOdN4qw5G7EjKkkPaGVP8XE2JADIgBMSAGxIAYEANiQAyIATEwjBjYeqUc265WYMuVUgkZUhxHsOI4jDqlOBSHYkAMiAExIAbEgBgQA2JADIiB/hmQkKGBrBRGMSAGxIAYEANiQAyIATEgBsSAGBADfsOAhAzB6jewSpnsX5mUjWQjMSAGxIAYEANiQAyIATEgBgKdAQkZEjIkZIgBMSAGxIAYEANiQAyIATEgBsSAGPAbBiRkCFa/gTXQVUVdn5RzMSAGxIAYEANiQAyIATEgBsRA/wxIyJCQISFDDIgBMSAGxIAYEANiQAyIATEgBsSA3zAgIUOw+g2sUib7VyZlI9lIDIgBMSAGxIAYEANiQAyIgUBnQEKGhAwJGWJADIgBMSAGxIAYEANiQAyIATEgBvyGAQkZgtVvYA10VVHXJ+VcDIgBMSAGxIAYEANiQAyIATHQPwMSMiRkSMgQA2JADIgBMSAGxIAYEANijjU0NAAAIABJREFUQAyIATHgNwxIyBCsfgOrlMn+lUnZSDYSA2JADIgBMSAGxIAYEANiINAZkJAhIUNChhgQA2JADIgBMSAGxIAYEANiQAyIAb9hQEKGYPUbWANdVdT1STkXA2JADIgBMSAGxIAYEANiQAz0z4CEDAkZEjLEgBgQA2JADIgBMSAGxIAYEANiQAz4DQMSMgSr38AqZbJ/ZVI2ko3EgBgQA2JADIgBMSAGxIAYCHQGJGRIyJCQIQbEgBgQA2JADIgBMSAGxIAYEANiwG8YkJAhWP0G1kBXFXV9Us7FgBgQA2JADIgBMSAGxIAYEAP9MyAhQ0KGhAwxIAbEgBgQA2JADIgBMSAGxIAYEAN+w4CEDMHqN7BKmexfmZSNZCMxIAbEgBgQA2JADIgBMSAGAp0BCRkSMiRkiAExIAbEgBgQA2JADIgBMSAGxIAY8BsGJGQIVr+BNdBVRV2flHMxIAbEgBgQA2JADIgBMSAGxED/DEjIkJAhIUMMiAExIAbEgBgQA2JADIgBMSAGxIDfMCAhQ7D6DaxSJvtXJmUj2UgMiAExIAbEgBgQA2JADIiBQGdAQoaEDAkZYkAMiAExIAbEgBgQA2JADIgBMSAG/IaBbiGj62YlVGQDMSAGxIAYEANiQAyIATEgBsSAGBADYmDYMnCrEtuul+LI3Wb8tOagEyqygRgQA2JADIgBMSAGxIAYEANiQAyIATEwXBlYfcCJjmNlbiEjIS4SAykpybHITE9CRnrikJTU5DgkJ8YgOcmmkhgDXsNQtT89NQFpqfG2lvS0hCFofxJ4HmN3m+1Pe2QMEUO813bzQyaHjJ80+/lJS01ARtrQ9F+eh33A9jJE7be93bTFkPTfz/eX5/PFdQxVH/D38/jC9kPJkPj53Jf8nUW1X/dSDIgBMSAGAoWB1KQEjG3IwtG78/HTlEmT0VdpnDQZU6c0oqigEBGhYYgKd/i+OBxIT0lFfk4ucrNybCmsKyM13fdt99iHtmJx2FRYV2RYuM/bz3PERccgJzMLedn22J73MC87F0nxCUNyDWQ0My3dB/ykIdoxBPyHOxAZ7rCdnyHrv572h4eEIjw4xNYSMQR9gPw4fNH2oXp+ej2D7L4HtMtQvAP4HAr6zy8Y9T8/21pCRo0emvaHO2C37dmXhrIP81x299+h4ifKEWHabjc/rM9cgyPCtxw5HIgIC3P3gZ9/xuif/2NLGfXzzwgLCvZt2z3P/+BRo8Hz2db2//kZQ9V/rWcc7zXPaWcJHR00ZH6Q6cMhoYZZXstgC59pQ/UMog9EVu20PeviM826v74+hoeE2N7+oeSH7+HBMvO1vx+KsYx1b8nr19owmJ8NVR/w57bT/j7jh/7V6DCUuVJx9G4LfsIAv9Z1dCA8JBgxkRGIjYr0WYmOcCA+NgYHDuzH69ev8eLFC1sK6zp+7BjiY6IR5Qj3WftZd1ZGOro6O3Hs6FEcPXLElsK6Zs+a6W67D++BIzQEY5xO3Lt3Dy9fvbLF9ryHr169QvO8eYYhn/LjCEdCbAzOnT1nOz9HDh8ydZNRX15DRFgopkyaZDs/u3buRH5ONiLDw3zaftZfkJeLHTt24MCBAziwf78t5eCBA5jUUA8y6iv7s/+mJiVi86aN4PnsbPuc2bPha3ZoFz6jeZ72tjYcPHjQ1mtYt7YDKYkJPr0Otj8xLhYzp09DW8t8tDQ32VLaW1swoWasz99h5D83KxPsb3bzP62x0ef91/ATGYHmpibb+0BHxxokJ8T7lB/2AfbjooJ8Nzfzm23hp8VTD5+hvvQh2H7239TkJNMHmubOwdw5swdd5s2ZjaZ5c+GsKPep/ckP/az62glonjd30O22rr25aZ6p03rG8ejLwuvIzkhHVWUlXJUVthTWVVFaioS4WJ8/h2gb9rW0lGTDEnkabGFdrNOXdmfdFkMlRYW22p++bX5uzpDYnteQm5Vla/sNP2WlSIyPG5Jr4FgsNTlx0Nz05o4+uq8ZsupPio9DSlIikhMTbCmsKzE+dkjaz/PY3Xbaw7KNr4/kh/4iix32t+qJi45CZKgDFdVp/07I2Lhh/dAIGQ6HGSyePXtmgBLLwD925fJlnwsZHIQW5ufh2bNnA2/YAD/JwRXr5wPSVwBykFgzthrv3r0bYKsG/rGFC9oRFhzks7bTJnQw+ZC8c+fOwBs2wE9evHDB90JGZITpZ8uXLh1gqwb+sVcvX6K8rNSnQgDvgRHDXE68f/9+4I0b4CeXLV2CkNGjfMZQZFgostLT8PjxowG2aOAf29HVZQahvuy/tH9MhMP0A4qfdn/98efvyEhN8elgOio8DOmpKXj40P57cOjgQWMbXwpKjtAglJeW4OOHD3abH+vXrUNYaJBP3wG0TVREOPb++qvt7edzOTUp2af8sA+EBwdh3tw5trefFU5tnILQoNE+ewZZz1AO4l6+fGn7NWxYv948o331HOI7mM7yhfPnbG/7+XPnjN2jI3w3GWWeoZ738NIli/HPm3/w5s0bWwrr+vPPP5GXk218OZ7LF4X3loV++/Xr13HlyhVbyo3r17F50ybjR/vyGUoxODU5GRcuXLDX/v/8YyYZ6aP4in9vfvi8tpuf+/fvg88GX07o8BpYf5WzEpcuXsTVq1dt4Yf1XL58GQ31tT7ln+0nn0kJ8ejs3I6rV6/gt98u2VJ4DSuWLzN+hK8YYr1sf8ea1cb29rX9Cnbs6DJ28WX/tfhpnDIZV65cxuXffrPF9hzDnzl9Gvk5OQgbHfJZyLhz+zb6LHdu448//8CC9jZE+LjzG/g8Qsbhw4fw9u1b/PPPP7YU1nX61KkhEzIePbLfCd+wYf2QCBljXE6w/XbbnzNaQyVkXLx40db2v3v71kT0UCTx6QPAcqAWL7bdCXz6999mgDVUL0A6f3Z/0bH05SCCQkZmWiru379nd9Oxffv2IRUyDh86ZPs13LlzG+kpvh2IUshIS0vG4ydPbG//4cOHh0DICEZZSbF5b9l9AWsZGRnq28hIPt8oZOzZvdvu5uPmzZtITUoaEiGD0Qe++Jo2tdGnzyDLCeRghf6P3V+bNm0aEiHjt0sX7W66GVS5BylDI2RwIGH3F6NTGbHISSleiy8K+zALfV67v86dPeue0PFhZDOFjLTUZJ9MSDHKcqiEjM7t2+02v3km8P3iaz+OYnBDXa3t7WeFFJkZ4e8L9q06KaimJCXg+vVrtl8DGSKjPhMyzDvYYcYcdjf+1q2bJsrD11GFHOstbG+zu/n48OEDSouLEfJL0GchIycrE/2V3Owsc+GxPowEsOAjGAwb4YxW3YQJGD9unC2FdVWWlyE2Ospn8PEaohmanpyE+c1NWL5sKTjwsqNQAWSkhE8H0Z6QPrZ/bPUYTBhfY4vtJ9TUmLpyszOHpP3kx1lRgdrx9vFTO2ECKspKDZu+enhZfYAPGIay2skP62ppaTaDdF8/wFh/dmYGFi9aiNWrVmHlihWDLqtWrjB1UWTjC8Syld1H9i+Gzra2zMea1asH3W5eO9tOh5ih1r7uv5Y9eJ4pkyeZ865Yvhx2lDWrVqFp7lyz7MOXfYDPUIZT7tyxA6dPn8LJEydsKafPnDZM0ja+bD/5z0hLwaJFC7Fq5UpbbL9y+XLD/7ix1UaIse6zL460TXRkBCbW14H3nOe2i595c+b4nB/ahIPECTXjcPLkCXexgyFPXXwG+XoQQUGVftehQ4dw7tw5MEJ18OUszl84b5aX+NIJZ//i0rAN69fhwoXzNrTbfe2sa/36deYd7OvnKPsA7zHfYc+fP7e13L5zx+cRGbQPi0+EjHPnhkTIoB965swZW23/4sVzbNu61ecTghY/HWvW2Np+svj777+juLDA58+gwBAyEiVk9JIS/F7I+PjxSyGDL7R+S1jokDnglmNGR4SKnZ3Flwq41W4erYeYnW1nXZyp9D6Pr773Wft9qOD3toU/88Nr4WDIbn58PQvhfQ/cDNnbf00fGCKGaCu77e9LAcbb9tb3PJ/d1+DrAZzVdh7jYqJNviQe7Shcr0mR0/scvvre8G/z+2so+addfMHPUL2DrftqGLKLH/IYE20mQ6z6fX0ks4wCtK3ExSI+Zmj6AG3FXBD2tj16SPov7yv7MJfRMTKGA0c7Cuvi0mPahPX7ih/WzTKxoQ4LFyww+ZKYM2mwZdHChZg0sWFIJnTYd7kEx277M++Jr+zuXS/tz+hOO9tPBoeCH14HfVCKqZzUWdDePmh2yN6Ctja0tbaavsT6ve1l9/e0P58/M6ZNNZPJixYugB1l2ZIlQzIpxfYzJ9yyJYttaTevnZPqzD02FDl66D8wIGHJ4sVYbJPtlyxaiLaWFqSnpCA8OOxzRIbd8Kg+d6ggIbS7yLa+CcMcrna1mx/WN5TX6s/t9+e2e99jf74Oa1bRzuNQ9gF/tr3FkN3XMBRRnd5tt5Mdq66hZMic0xFuJpKs8w/q6Aj36QDasj2PdredAx/W6X0OX3/PXBwU3+wsjLYZKoYofgaP+sXWwjp9bXerfg6G7LQ96/L1ANpqO488l93tZ31DwQ9Ff7afOcnsZChk1CgzKTsUkwoxzJcUEmyugddhVxmqCR2ex642W/Uw0sabUV9+z/5rndeuI5eWx0Q6eib79OVFqO6RNfDW/db9FgNiQAyIATEgBsSAGBADYkAMiAFfMNBj1xJfnEB1ClwxIAbEgBgQA2JADIgBMSAGxIAYEANiwC4GJGT4KFO0XTdI9aiziwExIAbEgBgQA2JADIgBMSAGxIAY+MyAhAwJGUO2Rkod73PHky1kCzEgBsSAGBADYkAMiAExIAbEwPcxICFDQoaEDDEgBsSAGBADYkAMiAExIAbEgBgQA37DgIQMweo3sEqt/D61UnaT3cSAGBADYkAMiAExIAbEgBgIJAYkZEjIkJAhBsSAGBADYkAMiAExIAbEgBgQA2LAbxiQkCFY/QbWQFIQdS1SxMWAGBADYkAMiAExIAbEgBgQA9/HgIQMCRkSMsSAGBADYkAMiAExIAbEgBgQA2JADPgNAxIyBKvfwCq18vvUStlNdhMDYkAMiAExIAbEgBgQA2IgkBiQkCEhQ0KGGBADYkAMiAExIAbEgBgQA2JADIgBv2FAQoZg9RtYA0lB1LVIERcDYkAMiAExIAbEgBgQA2JADHwfAxIyJGRIyBADYkAMiAExIAbEgBgQA2JADIgBMeA3DEjIEKx+A6vUyu9TK2U32U0MiAExIAbEgBgQA2JADIiBQGJAQoaEDAkZYkAMiAExIAbEgBgQA2JADIgBMSAG/IYBCRmC1W9gDSQFUdciRVwMiAExIAbEgBgQA2JADIgBMfB9DEjIkJAhIUMMiAExIAbEgBgQA2JADIgBMSAGxIDfMCAhQ7D6DaxSK79PrZTdZDcxIAbEgBgQA2JADIgBMSAGAokBCRkSMiRkiAExIAbEgBgQA2JADIgBMSAGxIAY8BsGJGQIVr+BNZAURF2LFHExIAbEgBgQA2JADIgBMSAGxMD3MSAhQ0KGhAwxIAbEgBgQA2JADIgBMSAGxIAYEAN+w4CEDMHqN7BKrfw+tVJ2k93EgBgQA2JADIgBMSAGxIAYCCQGJGRIyJCQIQbEgBgQA2JADIgBMSAGxIAYEANiwG8YkJAhWP0G1kBSEHUtUsTFgBgQA2JADIgBMSAGxIAYEAPfx4CEDAkZEjLEgBgQA2JADIgBMSAGxIAYEANiQAz4DQMSMgSr38AqtfL71ErZTXYTA2JADIgBMSAGxIAYEANiIJAYkJAhIUNChhgQA2JADIgBMSAGxIAYEANiQAyIAb9hQEKGYPUbWANJQdS1SBEXA2JADIgBMSAGxIAYEANiQAx8HwMSMiRkSMgQA2JADIgBMSAGxIAYEANiQAyIATHgNwxIyBCsfgOr1MrvUytlN9lNDIgBMSAGxIAYEANiQAyIgUBiQEKGhAwJGWJADIgBMSAGxIAYEANiQAyIATEgBvyGAQkZgtVvYA0kBVHXIkVcDIgBMSAGxIAYEANiQAyIATHwfQxIyJCQISFDDIgBMSAGxIAYEANiQAyIATEgBsSA3zDQQ8iIiYzAQIuUo+9TjmQ32U0MiAExIAbEgBgQA2JADIgBMSAGxMD3M9BDyIgMD0X/JQxREeF+o9T8aDiiIxwIDwlGeEiQ58jvB1NYTxBYb3/XRlHKERqCsOAghNtUWFdkeFi/57ba9vn6B3PNX/7tQK7fagPba2wwKLv3bAPtSvta5+jrGOUIH+Q973lui5+YATBgtYs2sP7OrmNEWOiArt/i0K7zWvUMlEO20/Bv1/0PDsJArz3KYs/G/sfrHyh7vP8/8vp5fl/df/Yri+++jr46/0D5Y9t+9HPQF/1/oM9A2p/M8hkcxqOKbCAGxIAYEANiQAzYwEDQz6NQXJmIo3db8NOePbvRX9m391fMmzvHOGb/xpnuy9EM1N/ReSzMy8XqVauwtmMNOtYMvqzt6ABLaVFhn4ICHeekhHg0zZ2DVStWYPmypbaUVStXoL5uwoDuPwcauVmZmN/chLaWFrTObx50YT0tzU3Iz83BQAYy/ExFWSnmzp6NmTOm21Jmz5yBxsmTkJKY0K+gxPtQkJeLaY1TMHXKZFsK65oyaRLSU1P6Pb/Vt4oK8lEzthrVY6psKePGVqO0uKjfgSSfEQlxsXBWVGBc9Rhbzj12TBV4fjLQl6DFc8fHxmDu7FlYt3atLf2PfZh1zZo5w1x7X89Asje2egxWrliBFcuW2dL/WNeC9nakpyT3y7/VtkkN9VjQ3jbovmf1X9bVUFeLmEgHYiP7VtF5f9KSk9A4eTLYb+zog7NmTDf2Lykq7PP+k33aIDkhHnUTJmB6Y6Mt/Y/9ePrURpSVlAxIUKINeL/ILYsdfdCqi7btqw9YNuB7aFy1jf2/egycFeWmb1ucWc8a7yP7QEZqCpYuXmTegWtWr4aKbCAGxIAYEANiQAzYwsDK1Vi1YR4O327GT48fP0Z/5emzp9i4YYNxovtyYLydmZH6PWehamtq8Pr1a3z8+BHv3r8bdPnw8QNYGqdMNjNc37ItRZSMtFRcvXoF/Hr37p0thXVt27bVzPL2d/85A1c73uv6bWgD7fjmzRtMmTzJzPJ96/r5c7aPbejoWGO7DR48eIDC/Ly+Z+YjI00bW1ua8enTJ8PA+/fvMdjCusjUGJezTwZoAw5yWPbt32dsQPvZUVjZ2TNnERcd1edAitEABXk5uH//vu3n37Rxo/v6vxEZw0FUUnwcTp466b7/NvQ/9mF+HT121PD1rUEk2eOM9YoVy8znec/t6IOs7OHDh6Awxfr74p9t4/05efKEaYMd52cd/Dp86BAiHeH9DuR5/yl4WfffjjZ8eP8eHz5+xKIFC/p9BvD8+TnZuHvnjmn3YPse//7Dhw+mrg3r1xsxeSDPwSmTJnqeAe7nwOD74CdTX31dbZ/PALaN74IdO7pMmwd/Xvfzg5X9+edfyM3O6vMZSEaLCwvw8OED01473oGqY/B+hGwoG4oBMSAGxEAgMPDx4ydcuXsEh2434ae8nGz0VzgLypng/py3vhzskfI72ig1OdEMOKurXObIwedgCuth6W82nudOiI2Bs7ICE8aNNbPxnJEfbJlQMw5FhQXm/vfHAAdSmWmpmFhfh0kTG8CZ4UGXiQ2Y2FCPrIz0PgfQFmPRnoiMObNn2TIbzBllzixTSBlIRAYH05w5bp43F00sc+cMurCuuXNmIzM9bUCz8rxPUxunYM2a1Vi5coUthXXNnjXTDJT74oDXz1ljzuKvXr3KlnPzGnh+zrJzkGbd695HtisuJgqlxYVmJnww/c77bxllwXvK8/V17fxdXm62vf1v3FiMrXKZKIO+zm21jUIG286B9KD7nqf/si5XZcWAnwG8/+wvjGIZ6ogMPoPYT8l/c9O8Qfc9q/82NzWhylk5IBuQ0eKCfKxaudIUO/qgVVdhXl6/fYA2mNTQYGv/Z19ub2tFalIi+Izt3fes/5NRiomM3mAkinc/0veD8wVkP9lPDIgBMSAGRjoDrnInGmc7ceTOfPzE2auBFA5OLEdFx/5DqzkrZXehc9qf7elE8n7aeu6QYHDdf3/ntn7PdrrPH2xTO9z1DOT6rTawvVZeBbuOvKb+BpLd5/dRjozob0QiWOf1PnIwZde1W/WQLe9zfOt72on2sv7OrmNfIoZ3W/g5W/tAaEifg0fvc/NZafe5I/4Fe2xLJHOEhNjV/9z3caC25/l9df8H+h7y1fn/jQ34vLKLe+96BvocZFu9/86O7wf6DKT9bX8P+eCdanc/VX32+z2yqWwqBsSAGBAD3gyE/BKEEmeSO0eGtwOu7/sWKGQf2cffGOCAws4S+y+EFDvPa9Xlb/ZXe0f2M8Pi1s7jv2HKzvNadf2b8+uzI5t/3X/dfzEgBsSAGLCbgR67lthdueoTsGJADIgBMSAGxIAYEANiQAyIATEgBsSAnQxIyIgSUHYCpbrEkxgQA2JADIgBMSAGxIAYEANiQAz4kgEJGRIyBpTnwJcQqm495MSAGBADYkAMiAExIAbEgBgQA2JgoAxIyJCQISFDDIgBMSAGxIAYEANiQAyIATEgBsSA3zAgIUOw+g2sA1Xn9DkpuWJADIgBMSAGxIAYEANiQAyIgcBlQEKGhAwJGWJADIgBMSAGxIAYEANiQAyIATEgBvyGAQkZgtVvYJWiGriKqu6t7q0YEANiQAyIATEgBsSAGBADA2VAQoaEDAkZYkAMiAExIAbEgBgQA2JADIgBMSAG/IYBCRmC1W9gHag6p89JyRUDYkAMiAExIAbEgBgQA2JADAQuAxIyJGRIyBADYkAMiAExIAbEgBgQA2JADIgBMeA3DEjIEKx+A6sU1cBVVHVvh/+9jXKEIzrCoeeF3hliQAyIATEgBsSAGBADP5wBCRmC8IdDqEHs8B/E6h6N7HsUFxONlMQERDrCEBo0GpHhYYiJjNCzQ++PgGRAbI/s553ed7r/YkAMiAH/YEBChhzRgHRE9QDyjweQ7tPwv0+MwkhKiEdXZyd+/XUPZkyfhvSUZISHBCMsOAgRoSGK1NB7JKDeIxTqyLYjNASMRJKwMfyfUyPpXUIexaSYHEnM61rF+7cYkJAhBzSgHNBvga6f6yEoBr6PAQ7kEuNiceXyZVhf9+/fx66dOzFr5gyUFBUiLjrKCBsa+H2fjcXm8LCbJdqtWL4MixYuQEVZiWGfXDtCgiVqyF8aNv6SmBwezww9u/u/D3yuKoqzfzuJpe+zkYQMvZiHzYtZnfj7OrHsJrv9GwboUDCaggOzgZSQ0aMQ6QjH2bNnLR2jx/HRo0c4eeI4Fra3o7ysDPEx0aZ+niMqPEzPF71j/IYBI9rFx+H69euG8adPn+Lc2bNYuXw5qquqkBgfZ6I0yDb7kXLG6Nn7b569g/0sozDIXXtrK1atWA5XZUW30GYxqUgNMTlYzuz8ez4j05KTkJmWatg1UZxhoXp2yi+wzS+QkCGYbIPJzoef6tLLWAzYy4Dl4JaVFKO+rha148ebMmF8DSbUjPtcxtd0/46fGT9uLOpra3Hjxo0eAsbX/sOB38mTJ7Bi+XLzNwW5OUbYsM6te2rvPZU9+7anNRPIwd9ACgeDtOn58+e+wPvVq1e4cOE8OlavRkN9HbIzM0ydyhnT9z0Qo/bZh89RMrr3118Nny9evDAC8+qVK1E3YbwZLEaEhSJMeYzk1w6TsQ2Fi4Y6+g/XsX3bNkyfOhWF+XlmaVTo6NFGGOZzWj6Cfc+JkfbMlZAxTDr7SANP16uHlhgYWgboLHAJyIH9+40T/PHjR5jy6SPevn2LN2/edJf379/j48dP7t97PvfFyK6fH3D5yYL2NiQnxGv2Re+ZHzKwYIJazgRmpKYMqKQmJSI7Mx2XLl7sk272lzt37uDXPXswc/o05GZlIiE25odco56jQ/sctdPejACi8DDQwuUkQb/8xwwIewP6zz9vcPPmTezo6kLj5Mkmj5ERNTy5Xvj8t7Ptqst/uRvKe8eIzokN9d24fvj4Effu///tnYdXU1vX7s/fd+/9vvc9Sk2j995bEkRREUVF7Ao2rCgiYAMsx17A3qXau56jxwLqc8ezkg0JAhJIQgIzY8xBIJudvdf67b3netZcc77AxQsXUL1xI7Iz0pV/QIGOJjmJhCtX+RQhQxxMebgJA8LADGBAm/FYVrEEdXt2g3kAdtTW4vy5s4NOBt+8ffsW++rqsH3bVrXNrh071M/nz545bTfSL+/evcXly5ewdctmFObnqsGd9r2uPpxke3FoJsoAmaNDfPjQQXz+/Bn//PPPuO3jx38w8P37SHiP+rfHjx9jy+bNoBAiA0bhdjzcktGkhHg1O83B3HgsKyMdKUmJOH361Kgs8oOfAJ49faqEtg3r16EwPw+x0VHynJ8Bz/nxsDfRbXhvY4QFI37UT77/jf3n//4fzJtTjO+j3FPfv3+Hjo527NyxA/NK5qiJD03UkHup3EvHw6oIGXJjk4ebMCAMzCAGOKvHWZLg2bPU7J5RH4rGAw3AT7q/UNEZe+v2IHD2LMz6z/8i8M//IihglloyMpL3zPDm69evYVNNNbIy020howFDIaPjeRDJNuKwuJMBDhLpBK9buwan/jqJE8ePj8uYwPbkiRNKzBuJdce/0TF/8uQJWluOYsniRUhLTlIRT+48D9nX9LwuyCejJfbX16soOFeENm77rf+bI4q/ff/+/XscOtiM5MQEJfAJV9OTK0/2K++njG5bVVWFDevWqXsr76+/M0asNTU2qujO34H69etX9Pb2oLm5CYsXLVJCX5hRyrx7sl+nw75FyJhBA5jpAKycgzyAhQH3MkCHOtxkVM6G5mj8/PkTB5uaBquR0PG+cX0o2SfFi6tXrmDH9lrMsZoRGR42WK5SZlHc2z/C+8Tbk3kx1OybI/yiAAAgAElEQVRecCBCx2FavguyPfLrp1pS0traotZ6M08GhUHOSvK7pK8m3lczre0YMVS5bCmOtbWppSLMH/BbO3wYh5qb0dvTMzKew/76qK8Pba0tWL1yJXKzsyRCTvz9Cd+jeB8ttlrAPFhcHsLlp+Ox/oGBUaMxhuE6+Cv9i+PHj8NiLoLJoEO4QcSMmXZ/dOV8RciQG9uEb2yugCbbioMnDPgeAxQdKGQwOoODsX379jo5HQebm22fB8xWCeYePLiPndtrUVSQr5xiVfUkOEhm+eQ54rPPEYpw4zUOLplH5tpVZyHj7ds3OHv2LKoql6vQfm5Hx94QEixJ6oT9CbPP+y8ZGk8iWm7DezVzZBxsbhoc9A1/o1g9c0blbuEylEFWQ0OEVWF1UqzGx8ao5N9MLKslC//dT1Z7YinrgYGxl+t9+vSviuxkRZ7c7Ew1OcL7tviNvuc3+lqfiJAhNza5UQgDwsAMZIBOAmeUOcsyx2pBXna2Wkvd0d7u5BsfOXxYfc4Q0qrKSpQUW5GemqJC98XRECfD15yayRwPB5YRYSblULNKyfnz58AcA7lZmTAZ9LbICxEv5HnhpufFeAU2bTvyScH50KFmp3s0Z8nJ6vp1a22s2rczhIrQNpn7gfyv8/ONHDICjSKuLnh89uf//g+sFrNasuoELQAuJbl58wa2b6+F1WxWkyPkWx8SJLmG3HSPmQkMi5AhsIhTIgwIAzOQATrFKYkJannIvXt3wYFbf38/vnz9MtzfUL+zqgmz4h9o2A8mnQuTLPhy3Uyz64aOOquPsFwgyxQbdCFq4MiZcF4vM8EplHN0Hrz5UnuQTw4iGSmnSq9ev65mu3k/ZsSGbRAorPpSn830YyGTTOKpvZh8ubOzE40NDbAUFSLMaFDcUiAx6UJlGck0e6Z6g38RMgQacc6EAWFghjLAwZkxNAQZqSlYt3Y1rnR0KDFDczq0n50PH2L7tm1qnTVDlWneeEDJd/juoGo69w2dauVYi3gh17mPPRt4z7aai1SUXGSYySZecBAorAqrPsYqnxFcfjrHYsGtWzfRsH8/5pfOU9WdKHBQlKN4QYFuOj9P5Nw868eIkOGDF75A71nopX2lfYWBIQboRNhm82aDGcIXzi/FiePH8OLFc9y6eVOFK7OsJBMhcmZanI6hthOOpC2EAWHA2wzwfk2hTQRlYc/b7Ln6ffQXYqMjwfwaFC5o5Ff8CGHXVZZG216EDBEyRAkVBoQBYUAxwFk9Ohp0MjLT0xAXE42QQJvjMdpDRP4uDokwIAwIA8KAMCAMjMQA/QmKbiJeCB8j8THZv4mQIQMYGcQKA8KAMODEAAUNRl/IjJ84HpN1MuT/hSFhQBgQBoQBYUAY8AQDImTIAMZpAOMJyGSfcvMSBoQBYUAYEAaEAWFAGBAGhAFhQBhwFwMiZIiQIUKGMCAMCAPCgDAgDAgDwoAwIAwIA8KAMOA3DIiQIbD6DazuUu9kP6IECwPCgDAgDAgDwoAwIAwIA8KAMOC/DIiQIUKGCBnCgDAgDAgDwoAwIAwIA8KAMCAMCAPCgN8wIEKGwOo3sIpi6r+KqfSd9J0wIAwIA8KAMCAMCAPCgDAgDLiLAREyRMgQIUMYEAaEAWFAGBAGhAFhQBgQBoQBYUAY8BsGRMgQWP0GVnepd7IfUYKFAWFAGBAGhAFhQBgQBoQBYUAY8F8GnIQMfUgwxmMmvW5aDX6NulAYQkPEpA0mxAD58YeboHAu1/hk73MmP2HdH65HOUb/dZyk76TvhAFhQBgQBoSBqWfAScjITE/D7ywrIx0JsTEIM+j9YvA2FmQ8hwiTEYnxcUhJSkRyYoKYtIFLDKQmJSIxPlZxNBZrU/uZcC7X9uTvbWQ9Piba7+/7U3stTv1DX85f+kAYEAaEAWFAGBAGpgMDTkLGixcv8Dt7/fo1arduhS44yO8dWs5OpiUn4erVq3j69AkeP34kJm3gEgPPnj3F+fPnEBMZAV+NzOBxcSDf3t4unAvfLvHteE8k6/X1+xTn/iJk64ODEBoUqCINeR0wmtBbx87v4ne7zwLUvrwZEcnn/ESOXxcUCF3wrxYaHKii3rzlPLHPeQ7jMbJC47bae/XTMVI1OAiGkGCvMURWxxMlO95teOw0rzBk0E8owvF3UWNeOXaHJcf8PmNoiLrvkSd32JScg/3+x+92l3nrOta+h9fDeI49jPf5kcygV9cu9+No2v49+nPYdzp+/2Tee/SYHa4D+R4RPXyVgUEh41E1/sA4X02NB5Rzw4vPV09sPMfFh392RjrevXs/zjOXzaQFfm2Bx48fIzYq0meFDDqG6SnJePXq1a8HL3+RFnChBU6fPqUGJ3QSx3OPnapt+GyKCg/HwgXzUbZwPnIyMxAXHaWcVw7MQwJtogCfARyYuPtZRmc7NSUJy5ctReWyZahcWqFs+dIKLNOsogLLHGzpksXQrGLJYlQsdjZ+tmRxOVKTkzw+EGV7RIaZMMdqwaKFC7GgtNRu87Cg1Gbz583D/HlzR7TSuXNBm1dS4mT8n5ysTLe390icsQ9435tjMcNaVARrUSEsRYUwa1ZYALOjFRTAXFCAooJ8FDpafh4K7VaUn4/c7CxEhYch3MP+D/sgNjoK2VmZqs3YbtmZGc6Wka58GPoxjJYdyVSUbVoaMh1MuxZGajd3/S0izITkhHikJiciJSlhyBITkDJC5GdSQjyUxcchaQzjpIG7jnE8++H3xcVEq/sH2y02OvJXi4pUPgD9gOEWExmpJjq4H82iI8K9eg68lnk/jAwPc7Ywk7rO+floxqjlX800JVGovCZoJs30FDbGFjeMFKIGLRRGvd0oSult4vZ4OJjsNnzOjCU4jkdsdRSHQ+2iK9tjssc23v/nPZXPzplkofQVJmpB9DMczZ0TG7Iv+nIc3xhDdUhNj8Lpu9X4Y6D/O35nP77/xN49dQieHaD+2aTTw18tNDAIGSmpePlCBngujGVk02Et0N3Vg6jwCOiCQ3zyWggNDEZKQiKePnk27MjlV2kB11rgxPETCA0KhjEk1HXW9XqE0bzgePHhxuWCPT09+PbtG16+fIkHD+6DQsy+vXVYVVUFq7kIKYmJiAw3KQdTEzfcMWPNBywFi4GBAfz48WPQvv/4ge8/vtvs+3d8d8X4v9+/o6pyuXIkx+t8TmQ7Ot0cdHV2dqK/vx9fvnwZss9f8OXzF3z+/HlU+/fff0H79OmTk3E/LUePwKgL8bgYw/7ctXMHPn78iA8f/saHDx/w/v27IXv3Du9Gsbdv32Ik4z7u3r2rxCRyMpG2He//MBqEAtKTJ0+UCD1ytOxzvHhhs+fPn2Nke4bnz2z24vlz0MgmB0XjPRZXt+P1R8Htxo3rePbsmXMU2KNHePzoER719Y1ofX19GLTeXvQ5GCNnqzduVFEznr6PcNAWZjSgYX89erq78fDBA3UPeXD/Pmj3798btHv37iouyIayO3dw18Hu3LkN2u3bt8FtmxoblRjm6ZxDPIfIsDB1z7tx/Tra2y872+XLaLfbpUuXMGgXL+KS3S5evADNLlw4jwvnz+PypUuo273bdg5eELV5HhQPd+7coe7hJ0+ewMkTx3HyuM1OHD8GRzt+7Bg0O9bWBkdra22FZtympnqjEmU8Jc6TU95PK5cvw+HDh3CwuVlZc3MTnKypEc1242SxZo0HDmDIGnCgwWb8fHttLRLiYr0yicZrmiLu7l07UbdnN/bs3qXe83feZ3ftsNnOHduxc/uQ7aithWbbt22DZrXbtqF221Zl27ZugWZbt2zGls0OtmkTtmzahM2bapxsU001HK2muhrKNm5E9YYNg7Zxw3potmH9OgzaurXYYLf169Zi/VqbrVu7BmvXONpqrFm9ymarVmK1ZitXYvWgVSmfgn4FbeWgrUDVCgerXK6e33yGk4dBUxMenPSwGSc8NHOa7KhYgqUOpiY8OOmhJj7KUbG4XE12cMLDZouwuNxui8qw2G7li8pQXjZki8oWomzhAptx8sfBFs6fD82GJjQ4seE4qTE0oVE6j5MYJTYrKUGp3WyTGnMwr8RmJXOKUTLHarNiq5o04cSJMosFcywWFCszo9jyq3FygttQqDeG6JCcEoFTd6rxR1XVUvzOVq1aDnNRHmKiTIiNCfdri4kyIiUpDqtXV2Lz5vWoqVknJm3gEgNbt25E1YoKxMdFIiY6zCevB16rSYkxWLlyGbZs2eDS+ck1IfcEjQGyXlY21875+FmP43MiOtw+i22CMcQIfaAe+iCdMoYFGkIYvq2ziSMOggedwDCD6yGdXNpgMRfhW3//qEoNB+JPnz7F9evX0dpyFFs21agoAuYCoeMZNHuWijykA6cGNS4IMBQy6KR44rWqaoXXhAy2j7tfp0/9pWZR2KauDpBd2Z5CRuOBBncfvhIV0lNTlPjlyvG4ui0ZXrp4MX7+/On2c6CzzvZx9ZjGuz1nnulgvn//we3HXr9vn1cigtU1bzTgcvtlt5/D7du31P2Q95nxtulEtuP+GYlx69ZNt58DhRqKnZ4+B563Oo+IcCUguftErl69ooQMT4lKfIbxejhx/Li7D12JrVnpaR6/F7EPGJXA6EJ5aS3A+7LNeI8ej/34+QPKHCY3HCc6tPe2CQ9OenDywtGcJz8Gvg/gFxsYUBMonEQZyzhB4Wzf0N//q3EiyNG4z5EnYPj3AXwf63v7+zFgN+fvHnYs3/rRbzfH7x7+nsdyrK0VoQHBKCyJwyUuLak9kYnf2bbjGdh1Ohd7zxdOC6s7V4Dak5nYdjwdPDcxaQNXGNh6PB3bT2b5/LWgOD8hnLvSt7Kt872ArO84lT0h1vecLURtayE2NeZjzZ5sVG7OQPnKDJQsTEOBJQkZmbFISY5GQlwUoiPDEWkyIVxvhElnhDHEAEOw3mZ2wYOih1HHtd5alIez2MEw3TnFVnR3d6uZeD7wxvPig5LRG5yN5MwSZxYY2RFuMqpZYAoU41mOwu24rISOibtfK1dUenQQqg0cOEh59OiRuw8ff5084TUhg7Pp7n4xwsBbQkZFeblyIt19Dpxh9LSQkZGW6pHljHV79nhVyGAOLHe/rl276lUhg4N1d78Y4eFtIeP2rVvuPg1cunTRK0JGa0uL24+dEViZaaneETKCAtRSSA6s5TWzW0CJEN++oX/QhoSHMQWKX8STYQKGi5///PFDCRkhASFYsj4VHS+r8UdrjwXjsl4LWqeTqfM2o7VHTNpgIgz4yfUgnMs1Pul73MRZb+uz4NhjC44/sSo71luMls5iHL5nRfMtCxrazdhz2mwTPJrysG5PLlZsycaStRmYvywVxQtSlOiRlZOAlOQYJXrQkY40hcEYaoCRYkcIBQ8d9MGM8NAjLjoGBbl5WFK+SEVcHDrYrMKku7q68O7tWzVjMZZLwocyc+BcuHAB++rq1IxUbk42YqIilPPIwSBFEyYDdAx1p5CxonL5WLue8GerV1Z5dBDqKGTQUXb36+yZ014TMg407Hf34auE6N4SMhiRMfD9u9vPYe2a1R5liGIfhYw3b964/dj31tV5Vcjgcgp3v65fvyZChguJJLWIDBEynEmcCiFjYMD99yPns5q+vzGSwRMRdt5qMS7F5NKfucXFKvfV4BISbSmJl39yeUtuVhZ0gTos35SGK6+q8ceRh2aISRsIA8KAMCAMeJyBTjOOdtmspduMFoosvRZQ8FDWa0UrrceKlm4rjj6w4tAdK5puWHDgihl7z5qxvcWMmoZCrNmRh+UbclG2PBPFpanILUxAWkYMEhIiEBGmR0hAEAL/DEDwrEC1fIXJ+/Jysm0Cx+bNOHXqlIo+YF6HsV6MsGCehDu3b6v1zBQr8nOzERcdrcKfKWAwuReXpXDNKfMbPH/+TC1h4TKNyZi2H4oy/B4KDp4yhtXHRIbjSke7yqkwmeN2/F/mZ2hsaFBt5Y2lJfX79qqomLFCbF35jP1PYctbQsaSRYtUHpKRQ3mdw4xd2YbrvL0RkcGBFtvMlWMba1sOArg2n/w7CoeeuA4Gl5ZcvjTWLWFCn3GpB3M+eHpZhhIAPLa05K7XIzK4nMXdL+YNYTJTTy8tYZ4Od7+YwN3bERkiZEy8F/1ZxOjt7VH5LIIDZtsTmPpGslEu/eUy5WU16bjyqkaEDI877iIUiVAmDAgDwsD4GaDYoVmXGUrw6LZHTdmjAh2Fj5auYhx9UIzDd61ovl6M/Zes2HmiCOvrclG2Mg35RfGIiw2HLiAUAf8JQOB/Z6vE1YbQUJU0raTYqpJ+HT54UK0rp2gx1ouOCbe5f++eSj63betWlWcj1h6xERsVhcS4OCQnJCA1KUklQExLTsZkjFEonh7EcWAYYTKo405PSZnU8TqeK/eVEBvrMQHGcUDLgWhOVgaWlJfbE5stRHnZ5Iz74iwU+8DTQgz3z+oeixctUtVsmMht8marjMNqLp48fu6bbbRwfimWVSxxw3Hbzp2J73KzMz167BpD2jXGvAD76/epBIdMcjhZ475WrayyJZh0Ie+Odlyu/GQ/MNlnXd0eXL3SgcuXL7nFrlzpwL69e8HqK57kSDtXLSKDy1kodLkiPo61LffFiBtvCBlHjxxx67HzvCiUe0/ImI0Vyz0TZTjWM1Y+m/oWOHv2LDLTU1WeFO2+qF2bvvCTQsbSGkZkiJAxfudaBiLSVsKAMCAM+BYDDoIHIz2cojwY2dFtxZH7Vuy/ZMHGhhyUVTFyIw6JCZEINxoRGhCiojaCZnHGIQjhJoMqZ7l29SocPnRQVR14/fqVSpA1lmvRPzCA7u4ulZmeA9/0VNugMfDP/yJw1p9qJpwVKVj1grMJrpo3HQkOIFw9vt9t7+lZaEfHisfCyANbpMzkZ5C0pUTe6gMOEt117I778UYfsI247MpWfnDybc/jZ/uz4o1jH3v6PRlybDt3vPd0xZsR28Tkxggud+5rHJFlZIlig7kwHwvml45Y8nm0UtBj/Z37KsjPUzx58prmvlk+2b3HPk9VeIj2krDN645RjHv27AaXd03EWK3n8KFD6nnKZ6pm++vrJ7S/iRyDJ/+nYf9+W+WZxkY0Nzaq6kQHm5tw5sxpVeGIUZX//vvJb5aXfP36VYm4vPZ43xvxvjKO69fT/2eLyBAhw7ccchkgSX8IA8KAMOBWBlRkR5ctmuP4YyuO9Vlx6K4Fey8UYVNzHpbXZMI6L0Xl34gwmaAPCkXQrEDM+t//IHj2bESGmZCdka5KmO2o3YbTp06ht6cHnz+PvRzlzZvXuHr1qsqxwRnqpPg4JQ5og2IOKj3pRHvaiZD9u3GA6ANOofTnr/3J69Od5u025rFTFHOnTcU9i8JYSMBsJWjx/jlpC5itxDZv9Afzxrj12AMpuHt+idVQ2xjVUiguLZiYzRpVVFb7mz1rgvud6PG4+/9mjdi/FHIphkZFhCMjNQVz5xSDlcdYBp7lqT99/DjWvMiUffb8xXMsX7oU+pAgdfxDHPx6f5zqz5SQUS1ChlsdZlmiIvkFhAFhQBjwcQbsOTqY4Nq2PMWKow+taOiwYMvBQizfkA1raTLS02NVJRWWiA36MxCB/7U5XBwUJMbHqbrorHPPahxdnZ34OIZjwnDgnp4etLa2YPXqVSjMy0NsVORg4lA6u1MxQJhqR0S+3/ecQ+kT6RNhQBgYzoA7Bb2ZtC8V3RgSrMQnCnAUoZgnp9hixs4dO8BKRkym6QsvTrzk5+UqYYl+znAGfO13tbREhAwfd7hlZlaEJmFAGBAGPMuAXdhg0lElbPRYcfi+FQ3tFlVJZdX2XMxfkoaMzDiE6W1LUUIDgxEaaAubN+pDVbQF82xs2bwJ58+d+235STouTPzX3NSocgmkJicpUcOWUCtQzYSIsCGDCV9zHOV4hElhQBgQBibOAJ/rFDd0QYEqKoiiBic21q9dC1b2+vTpk9c1DU60NDTsB5Ohq6UkHs7h4y5+NCGjQ3JkiJghM8jCgDAgDAgDdgYchQ17NZXW7mI03yhGdUM+ShYlIzExEsYQgyr5atTplPBAx4QzLpzJYHWLqhWVOHL4kFoj+88//4zqnLC6w7Nnz3Dm9CklhDAENTEudnAGh9Ea3KcIGxN3Ht3lOMl+pA+EAWFAGBAG3MGAJmowdxZ9BwoclqJCNDc1qUpnozoNbvzg7bu3WLNqJXR+sJRkeJtTyKjYmAYRMmS207OzndK+0r7CgDDg7wx02pKItvVZ0dJpxb6LRVhZm42snHhEGEwwBOthDLWJDRQd1LroQNs6bC4hKczPw9o1q/HXyZOqLCuz5o/2+vLlC/r6etWSlarKSmSkpagQT86U0Lju1h/CPoc7HfK7OP/CgDAgDAgDwsDIDPC5zme8LigIKYmJYLnsGzduqGo9o/kLk/37yRMnEPDnfz1WhtiTfa0iMjZKjgwZYPj7AEOOXxgWBoQBLzLA5KGtvRYce2TFwVtWbGosQOmSNCQnx8CkM6ooDZNej3CDQUVRaGGkQbNnqYolXEayuHyRSvrV0dGOV69eglEZo71ev36Ny5cuYdfOHShbMF+VcqXDwxkcJsHj/iVaY2TH0JNOlOxb2lwYEAaEAWHA3Qzwec7JEC41ZbJxlg8/cfyYR5adUMjg9/ijDzEkZFTjDwkplrByYUAYEAaEAWHANQZY6pV5NWxRGhas3JqL3PxERJrCBqM0KGhojg6dBZZgVLMuwUG2iiiZGaiqXI6WI0dUQlCWPhvt9e3bNzx+/FhFdqxfu0aVxYsKDwdDU7lPlTTUD5J0ae0hP4fYkLaQthAGhAFhQBhwZIATFaGBATDoQtVExr27d0ZzDyb09zOnT6tJEREyvDgbJo62a462tJe0lzAgDAgDnmXgKMu79prR1mtF881ibDlYgAXLUpGcHKUEDUMwSyDqBwUNOip0HOikUHywlWoLRkJcLErnzcWO7bW4cP48Xrx4MaZzwqSh169fw4GG/ahcthSZaWlq6QmjP1S0RmiIX860ODpy8l4ce2FAGBAGhIGZzIAWhZkQF4O6ut1jVkkb02kY9iGTkzO602+FjA1puPJSIjIkLFuEKGFAGBAGhAG3MKCiNHotaO2youGKGat2ZCMnPw5RYUNRGiM5Dfwb818wsoLG31OSErF4UZlK/tXd3T1maCmXp7x58wZXr1zB1s2bYSkqUFnItX0yaoPO0EjfPV0dRJ4zBR13GEWn6dpOcl4ySBQGhAFhwPcZ0J7n1qIiVbp1mC7h8q8XLpxHSJD/ChkVG9LQIUKGZ2fqZCZU2lcYEAaEgZnHgMql0WNWuTQO3bVg65F8lK1IR1pq7FAuDZ0tl8YvDqRBr0QHbZ0sZ0xioiJhtZhRvWE9jrW1oae7G2MtQ/ny5TMePniAlqNHsWbVKuTnZKulLAxTtUWA2JKGTkdhg+fEtcXFZjNYBaak2HUrnVuC0rlzwZ/z5pYoUYjCyC99ZfR951eOWfpIGBAGhIHpwQCfb/QJoiLCUFOzEc+fP3dZwND+4dLFC4MTJ/7Gh6pasl6EDLfMwMkgZeYNUqTPpc+FAWFgvAxouTTaeqw40GHBqm15yC9KRExkBAwhWsWT0Z0sOi5qrayK1ghQkRvxsTFYML8U9Xv34saN63j79g1+/Pyp+Se//GQJ2I72dmyv3YZ5JSVISUxQ0RlaBMh0ijjgrBWX6YxV9vaXBhrlDz9//lRZ47mWOD4mRuUj8TeHT4539GtL2kbaRhgQBvyRAT6zKWhkZ2bg9OlTE6pucvnSRRWx6I8TGhQyloiQIY74eB1x2U5YEQaEAWFgcgwwSqOlhwlCrTh024ralkIsXp2B1NTYoVwajNL4zSw/nQ4txFQXFIio8DDk5WZj5YoVOHjwIO7fv4+v30ZPGvr5yxeVWPTUX39hc001LIUFKoKBTpGWNJTLUH53HL76OY89OiIcWzZtwq6dO7Fz+3aXbdvWrTh08KCTc8i8JfEx0aqNfPXc5bh8b1DGa5XLmxjR46oNXxbFfUkf+14fT+c+0Z43ZG9iFqySXDPCUPh1L7vsG94jyF/Vikr1XB9Fkx/xz5cvX1L3JL8VMtZJRIZEZMi6eGFAGBAGhAGvM6Dl0mCURkOHFat35CDfkqAG4IZgPYwh48tnQQeEMzO2pKG2yiVchlJitaiSrdeuXsXr16/GLPH68eNH3Ll9Gw3767GkfBEy01JVtIYmbHD/fufoGPRKcOA5TMSCZ89CSFAgtm3dgu8/vg86gRfOn1Nihi5IlplM58GbO88tPSUF+bk5yMvOdtkK8/JQVJCvzFJYiMT4OIkK+o3Q686+k30ZlFBOAddVi4uJQkJsDJIT4m2WmGDL2xQS7H/PEx9nzqSiM2ar8uwtR4/g29dvg8+ssd50tF+G3k+TgquIDBEyJje7JrOT0n7CgDAgDAgDk2Kg04xWe5TG4XsW7DiRj8VrbFEaYTojVMUTnQ6OZVzHcq41YYORFRzAc9vM9DQlUNTv24s7d27j4z//jOrbMGnoq1evcOVKB3bv3ImSYitio6Ogs5eN5YyyXwobLjqibEfOHjKfSE31Rnz9+mWwzdovX1YOOfONMPrD0fxO8HGxXcZiTz5znm0lFxEmIy5eOK/y2Xz69Ekl7HXlJ6OnmAvn33//VZUKbt++pULJyZ60t3N7S3u4vz34HFm+dCmePHmCp0+f4PHjRy5YH54+fYrXr1/j5cuXeP78GTofPsT8eXPVs0nule7vLz6fWeJ94YJS3B1HqdYrHR3qOeePfaFyZKyTqiVen4WblMMrs6bSX8KAMCAMTFsGWMa1rc+ilp4cuGLFmp15MJckIS460rb0JJRRGq45PxxMMVpDi0pgEkxzYQE2VVfjr79OorunG/9+/ndwkD78TX9/Px48eIBDB5uxsmoF8nJzEB0ZocJZ6eRysO+PTtDvBj1sJ54XhYyAWf/FhvXr8Pfffw82D8vWJcXHq3HFzswAABz1SURBVLZlG3Nb5jxhArbf7Vs+d41hf20vMhFhNCghrK21BUcPH3bZeN0dP3bMqWLR3Tu3lTjJ689f20aO2z+uAS5bKC9biBvXryu7fu0aXDFGBF69egUfPrwfvHeyrDiTMPOZNB2fHVPNNp9HwQGzEBcdhbo9e/Du7dvBth/+hkIG/QN/7ActIkPKr8qgYNoOCkQ0kplyYUAY8EsGHHJpHL5rxc7jRVi8OgupqXEwhRrsURq/z6Ux3KGis0Inh84pB0Emgx7JSQlqhmzH9lq0t7fj/bt3w32dwd+Z+JJJRenIMskoZ31UqDujNQIDwHwdjNYIN7h+bMOPdap+V4NPkxFz58xB44EGlUTt5IkTaGttVZEqg40BqFwkZ06dAjO/nz17Bps31ajQXrbxVB2/fK/vDRAp9vGaczU/BrfXrtWlS5bgHwch7d69e8jKyBiMupJ+971+ny59wqgiCrsTNd5T51gsKpJDu38yOoNJp0MCZ/vlINof+pb3HX1IECxFhbh86ZLW9E4/b928aY889D9RVIQMETBEwBAGhAFhQBjwcQa0KI1W5tK4zCiNHJhLEhEdGQ4+yI0qSsN14UATNWzLJ4aWoeRlZ2Ht6lVobTmqIjHGitb4+u2bSi7GGWOWhbWai1SZWC36gzM9alDvZ8IG2yYuJhqLFi7A8bY2fPjwwcn5G/4LI1a2btmsZsn9wcGVY/TuoJc8TcYoDgbNnoWlFRVOkRn37t1FVnra4Mz28O+QfvZuP0/X9iZXvI9P1MhvcMBsFQnIJSrai2VDGZkRFCBihqfYYd9x0iIyLEwJ7Vw26vj68uWLSmqdkZqCkIDZtokIP1luSP9n8VpJ9ilOvI878X45myptKteVMCAMuJsBLUqj14rD963YfboQ5SvTkZgQDZNu4lEagw6U3VnlLDCjKyhwMDS1MD8Pm6o3qvDgd+/e4eeP0Uu8cu1/T083mGysvKzslxKv3Ccdq8Hv9GGHiU67LjhQzYgnJyZgw7p1Stj58d2W+PPz5884d+4sSueVDFZ84fn5w7nJMfrPAJez4WSRg5E///M/KFswH6/fvB4ci3R1dioBjQNFCocag5w9l372n36ezn1FIUPx+z//DzlZmU6VNbjsYd7cEgTO+lMJctyOUUhkfjq3ibfPTeuDrPR0nD71F77bn2PajeTZs2dYtbJKCRmMrPSH57QIGe52MmV/MnARBoQBYUAY8AIDWpQGy7g2XDZj9S5GaSQjNsqWS2O8FU/GcqboyBhVsstANZtGR4jVTJj4rWH/fly/fh1vx1h7SwfpxfPnYC6J7bW1mD9vHpISbDklKJRQMGGmdV93mHh8HCByoMjcIJXLl2FfXR3mlcxRTh//zrYZqy3lMxlQusoAuaNlZ2Rg44b1aG5qROOBAyoB7/1797Xxh/rZ1fkQTY2NOHr0CFpajqqZVw4YtX24+t2yvfDqDgbIHyPbFs4vVULw+rVrsXRJuWK1/1v/IMMvXrzEls2bVR4iVonaXFODuSVzVAUv7sMdxyL7MKj7AYWiMIMOK1dUoqurc7AP+IaJvs+cPo2CvFwlKvn6c21QyHhRjT9k1lvWkQsDwoAwIAwIA37GgEPFkyP3rdh5rAiLKjORmhKDML0R+mCGA7vHEaRDyQE9l41wxiwqPFwl/ly3Zg2YQ6Kvrw/fvo1e8u1bfz+6u7vVYKuqcrmamYsKDxvMAcB9+7rTqs1qyayhDPS8MTDi9RAdEY5isxkHm5tU5QenkcewX1gd4vChg2pNfGS4LVmtN45TvkOuh5EYIL8R9uTSjQ0N4Kz/7169vb1gvqaM9FQRMDwUschoFy4jYaThoYMHVUUkx37h8pNNNdXq3mMTPtzjQ4zEyGT+poSMNWnoECHDzxxXL8z2yWBGmBAGhAFhwL8Y0KI0WrutqL9oseXSmJOE6PDJ5dIYydGgg8poCgoaFDY4wE9JSlJh77t27lSJxYavxXV0lJg09NWrl6rE6769e7G4fBFSk5JUWDwjHOg8cZ++Kmz46nGN1FfyN/8eZJI1iny09NQUVG/coJLt9vcPDF5S9+7es+VoyUgb3FYY9e9+nzbXrZ1f3s+zMzOwdfMm3Ll9G9oSPUI8MDCA69eughEbKUmJ6rli1MkyPU8zwHsKl6KxKs3NWzcH7yfam46OdhV5yGc8t/X08bi6fxEyRBCQEHBhQBgQBoSBacbAUS1Ko9cKLUpjwbI0JCVFwqRzb5SG5nhwhocOEdfWUtzg3znoWrF8GU6cOIFHjx6BScVGe9GRff7sOc6cOY31a9eo0FYuk3EUSmRgJgMzjbeZ+FMTNDioYLRF+cKFONbWirVrVqsEuxT/ONiQ60SuE1+8PjR+yWl0eBiWlJej/fJlsPzn4rIyMBcMP+NzRBj2HsMqOiMwQC1L3btnDz5+/Oj0mGbeq7o9u9USId57fCl3CYWM8tWMyKiRpSUy8+hfM4/SX9JfwoAwIAz8ngEVpdFrASue1LcXYc3ubBQVJyEqjFEazIGhc7vTSCeUzg4HVXR8KEYkxMagpLgYm2uqVTnTp0+fqPW4Th6Twy90pu7fv4emxgNYtHAhYqOi1L5Cg2xJSMMkEZzPzY754uBpuh6TtsSJwqEteinEr0seT9d+kvMaeUCu+A0MUM8ePi94X+ffpL1Gbi9vtAsFJN5Lis1FI5ZqZWWuiiWLbRMW9skKbxzXWN8hQsY0m4UTp/73Tr20kbSRMCAMzEgGVJSGBW2PrDj6sBi1R4uwYGkGUlOZS8MEgxtzaQx3POioak6SFqKakpiApRVL0NTUiFu3bkFVQ3EQMhzfskZK58OHqN+3Ty1d4bpetb9Amb0b3tby+9QNBKai7WXmemb191Qw5snvpODtSzP8njxXf9g37yd8RvNYN22q/iWnSX9/v8qpwWhLik8m/dSKT0rIWCURGRJWLYKOMCAMCAPCwIxhQEVpPLKgpcuK+ksWrNmVi0JrMqLCwmAI1itRw6hjxQTPDBKUsOEQrcFoC5Z4Xb1qpSrb2t3d9UtpOE3Y+Pr1qyrd19rSgmVLK5CcGA+dfV8SVu+Z/vIHB1yOUfpeGBAGhAH3MKBFfLHyUVtr6y/Rk48fP1bPayYSZxTHVAmqImSI4z5jHPcZOQMrfAvfwoAwMAYDg7k0+qw4fNcWpbFkbSbyzfGIi42EKdQAOgqeWH6iOZx0gOg0abkwKEYkxsViwYL5YJb7e/fu/ZJRXRM1WCqOlVJajh5VuThYGpb7YrJQRmxo3yE/3ePcSjtKOwoDwoAwMDMY4LNZF2xLur2qagUe9fVpj1718/v37zh18i/k5+YMJvz2NhsiZIzh4MnAV8LPhQFhQBgQBmYKA1oujbYeKw7dsWDP2UKsq8vBnIXJSEyIUqVcVbRGiA4mFa3hmXJsKlrDvlaX4gYTflrNRdi5fTvu3rmDz58/OzlT2i9aFZQLF86D5WDTU5KnbJbI286cfN/MGFhIP0s/CwPCgLcZ4NIfLjfhctCDTU2/JO1++/atKpcbEWZEqD3vibeOkULGIllaIo76THHU5TyFdWFAGBAGfsNApxkUNVp7LTj2yKqShO5vN2NjfS7KKtOQnRevxAUVrcG8Gh4WNVS0RlCgirKgczTHalGiRkd7O+hAjfZiSVcKIVMV8uotR06+RwY2woAwIAwIA55mgNGSocFBKk/VrRFKtbL6zNw51sHyz54+Hu5fCRkrJUeGhB5LZIowIAwIA8KAMDASA0wS2mtGW58VLd1WNN20YOeJQqzcnIsiazLiY6MQpjPYcmuE6BCm90ykBp0WzgxxPS4tMiwM+TnZ2LB+HRiF8f79+0FNg9EZFYvL1XbecKbkO2QQIQwIA8KAMDDdGeDEAKMuGCm5Y3stPnz4MPjc5Zu///4b9fv2IiEuVkVxeDqRq03ISJXyqzJD95sZupGcW/mbDHqEAWFAGJhRDDCnRks3RQ0Ljqm8GlbsPm1WyUJLl6QhIytWCQws66ofjNZwv3NLZ4oOkpZXI8JkRF5ONjZu2ICLFy/gwoULKs8Gozmmu2Mp5+d+vqRNpU2FAWFAGBidAQOjM1iq1WLGxQvnncQM/nL37l0srWCpVlv+K0+1pQgZ4oTPKCdcBCsRrIQBYUAYcBMD2hKUHkZsWHG004qm6xZsbynC4tWZyMqNRUxUuEoYytwankwYSlFDHxw0GIERFx0lAoZxdCfUU06l7FfaXBgQBoSBmcEAJxR0QYHqWbtx/Xq8G7bUc6C/H0ePHEFKUpLHkoEqIaNKIjJkMC+CjjAgDAgDwoAwMAkGmFdjKFqjGIfvWLHzr3ys2pGFkrJkpKbEIsJgL+/qwYShFDUkEmNmONIyYJJ+FgaEAWFgahng8zYkYDbysrNw4vhxDAwMOEVoPHnyGOvWrlH5qtxdqpVCRllVKtqf1+APmaVy0yzVJBxB6QPpA2FAGBAGhIHpwIASNXotttwaXVY0dFhQ01iAsuUZyMqJQ0xUBEw6IwzBni3vKk7u1Dq50v7S/sKAMCAMTH8GKFJQ1Fi+bCm6urqcxAyWSj979gxyc7JV5KS7yqNrQkbHCxEyZCZOBBhhQBgQBoQBYcADDDC3RmuPGW2PLGhlwtBrFmxvLUTVlmwUl6YiKTEaYTqjykBuYLQGE4Yapr/jJ8699LEwIAwIA8LAdGHApA9Vy0hSk5PQsH8//v33XydB49WrV9i2dSuiIyLUdpOtKqaEjBWp6JCIDJkBnA4zgHIOwrEwIAwIA77NgJYwlOVd25hb44EV9RetWF+Xj7nlKcjIjEFUhG0JCp0UlnedaaIGnbvJOnjTxTGW85BBnjAgDAgD/sWAKtUaFKhKtd67d9dJzOAvV65cQUmxVeXY4LYT7V8RMjww8yROtG870dI/0j/CgDAgDPgIAw4JQ1V5165iHLhmxrbWfCzfnInC4kTEREXCGKJXS1AYrWHU6W0lXqdxxAbDc7WKLAzXpemCaUEwhAar8F3mAtEED+1nuMFzpW8n6mjK//nXAET6S/pLGBAG3MFAGMulBwaAybdHKtX66dMnHGxqQnxMtIrOmMh3KiGjUiIyJJRYBB1hQBgQBoQBYWCKGXCM1jj22IqWzmLsOV2E1duzUVqRipz8eCTERamkoUrcmIbCBmen1q5ZjUOHDmLnju0qSVrF4nLMnVOMgtxcpKckK8cv3GRUggbXGutDg8H/o9ARGhSgnEIlfigBJEh9xs/FZmYbTNfoHp4XmWflBDEfaQP2xzDjfYf3KU18nciAVf7Hf8UV9n1wwGyYCwtw+dIl/Pz5wylC4/atWyjIy1WCPcUPV/qaQsbCSkn2Kc7rFDuvMjvqI7OjwoHcC4QBYcCHGGAllLZeC471UdSwoumGBXvOFKG6IR+LV2chvygJ8bFRCDeYYLBHbbDMK3NshPlhxAYHZqHBgbjS0e7k6PX396u1xu/fv8fjx49x//59XLt2DWdOncKhg82o37cXO3bUoqZ6I9auXoXKZUtRvqgMpXPnwmouQn5uDrIyMpCVkS4209ogPQ0xkRHTbqkSB8Wx0VFYs2olajZuRPWGDWJT3Absh8WLylBUmA9LUaHN7PefhNgYxSBFjpDAADVopcDBfnRl4Crb+qmgwWdbUCAiw0xKnH/2/JnTM+7FixdYWrFEbWMMDRk3EyJk+JDDJoN5GcwLA8KAMCAMCAMjM+AYrdHWZ0FrjxWHblux94wF1fX5WLwmA+aSJKSmxiAqzJZjQxcYCgobYX4ibGhOPYWKyb6+f/+Oz58/4++//8abN29AR1FsZrXByxcv8OzZMxRbzGqWfDoNAjkIzkhLw4e//57spSL/78YW+Pr1K96/e4cPHz4MGu8/Pd1dOHfuLBrq69VAdv68uUpUjQgzIWj2LBVRIxEbfipSGMd/3BQpKGjkZGXi5MkTTuR9/PgR22u3KRGDgtd47lcUMhYsl4gMmYETQUcYEAaEAWFAGPAnBrT8Gr1m2ISNYhy+Z8H+dgu2HS1A5aYsWOYlITExCuFGI4yhBhiC9dCqovhiuD2PKcJkVJEVp06dQkdHBx4+eIC3b97g27dvGBgYcHL85BdpgfG0wILSeWrwMJ6Bgb9sQyEjMz3tl6oI42kP2WbqW+DLl8949eolrl69itptW5GXk60iNjjIpTFPkC/eo/3l+vDl42S/UqigcLWjdhu+fP3qBOSJ48dUXg1y8LvzECHDn5w2OVYZZAgDwoAwIAwIAyMywIgNLkVpYZnXPguOPbKipasY+zuKsOVIHiq3ZGJueTIys2MRExkJk86oEogaWe6VCUR9KFEmQ6+5ppjOPJcFpCUnoTA/F/PmlmD50goldNTt2Y1Dzc04fuwYzp45jfbLl3Hzxg3cu3sXnZ2d6Ovrw/Pnz/Hm7Rv8888/+PLlCzhbKjZz2uDbt6/4/OUz5pXMmXZCBmd2UxITcP78Ody5cwe3bt0Um8I2uHnzprr3vH79Gm/fvcXbtzbj/Ycz7T9//nQarA7/hdtcu3oVu3ftROncErVsSMu1oUWq/W5QK5+PPzLCF9qK1zCfdcsqKtSzypGJ27eH8maMdaxKyFiWivZnNfhDwllHDmeVdpF2EQaEAWFAGBAG/I8BChutPRYlbKhSr50WNN20YPepIqzdmYd55enIyIpDbHQEwg3GoTwbOttylLEcKE9/RmGFDjzFDM4+azOVzALvuMZczVza15lHhoUhNioSCXGxSE5MQHpKCrIzM1CQmwNzQYFKtsaEa2Izow2Yp4B9zaoBviTUufPaiQoPQ1REuNhUt0G47d7DPDxcNsD7jrKMdBTm52FF5XLs27cX58+dQ19vr1ry9uOHc9JHbSBLsbW7qwt7du9CXnaWug/aojTGnzvBnYzJvjwnkPC+FBIwG3k5Wbh186aGgPrJfFC8hzGB9Wh9IEKGzGyNOLMlDrv/OezSZ9JnwoAwIAyMzYCWZ0NFbKgEosVovGbBzhNFWLc7F2VVGSiwJCEpIVolENUF6qALCIUuKBT6oNChErChehhD9SqSg9EcKrmoPQ8Hk4xqNprz5Y6/0wHUjIKHMl3oYCUTg71KCWc1HUUQCiFiM6gNggIVG+5gzhf3YbIzT0FPbOrbQIuicPyp3X9YWYYMJSXEKXFj5YoVOHLkMLq6usCcPiO9uKzur5MnsWxphRJpGalGYXe6CnO+eI15/JiYCDQwAEkJ8WhrbXHCgKJXQV6OilAc6TgoZMxfliIRGeL8je38SftI+wgDwoAwIAxMNwY0YaO11wJGbLR0W3H4rhX1562ori9UCURLK1IwZ2EKzHOSkVeUgIzsWKSkRiIxMQLxcREqmiMqIkzl4QjTG2DSGWAMMcDIfBxBeugD9aAgQoeL+TkMoYyysC1nGRJANFHCczNfIzmB8jdpb2FAGPAWAxQfKLiyHKcmsPI9I8jKyxbi6JEj6OnpVvmAnEazgBI6uISoeuMGpKemKEEkzIUkk946R/meiV9PFKiM+lDU793r1P09PT0qyoeRiMPbVx8sQoZEJEhUijAgDAgDwoAwMNMZYI6NYQlEj/UVo62nGC0Pi3HkfjEO3bGqpSkHrhZh38UiVQp2x/FCbG3JR01zDtbXZ2LVzixUbs5Exfp0LKxKxdyKJFgXxKOwOBHZefFIT49TER8xURGqukqEMQxhBhPCdEYlgKiEpBRBlNnFDwogITpVgUWVl2UUiBYJ4hCZ4Y8lZ4c7pvL7xAcC0nbSdv7GAMUNihla1AZFjfnz5mF/fT2ePHnsNKDVfnn58oXKFUQxxN/OV4537GuULNDq6vbAcenRw4cPVXLf4WIGhYzSpRKRIQ7sTHdg5fzlGhAGhAFhQBgYzoCDuKESiXab0ULrsShj/g1bNIc9D8cjK9r6NGOUh81au6048sCKg7etaLpuwf4OM/ZeLMSuvwpRe6QQG/cXYM2uPFRuzsbitRlYuCIN88pTYSlNQaE1ETn58cjIjEFqWjSSk6KREBeFWCWEhCPCaFLLYCiEmEJt0SCDIkiwXQBxEkG4DMW+HEaJIGM7luJ4S/sIA8KANxhwFDW4hCQpPg7VG9arJMZfPn/WdAz09/dj4fzSaZfA1htt7A/fYRMzQnGgocEpSSwjcpj3yVHAEiFjuNMiv4sjKwwIA8KAMCAMCAOTZaDTjCOaEGKP9LCJILYEpEoA6bMLIPafxzQRpMeKlk4rjty3qiiQ5lsWNF4zY3+7GXvPmbHrryLUthVgy+F8VB/Ixbq6PKzalotlG7KxeFUW5i9NR0lZKiwlKcgvTEJWVgJSU2KVABIXHYnoiAhEmsIQrjepsrRc9qKMwoejOQggRocokOFLYvzBOZZjlMG4MOA/DFDU4FIDzsDzfsUSwi1Hj6okoR0d7YiOCAfzo0if+k+futJXFDPIQOOBA4MCFt/cuH5d5dLQBdvyrYiQMVlHRf5fnF1hQBgQBoQBYUAYcCcDmgDSZS8pOxgJMiSCOAshVpXjg3k+WmkUQrqsOHKvGAdvFqPpajEaLlux77wFu/+yoPaoGZsaC7G+rgBV23KwdGMmFq/KwMJlaZi7KBWWucnIN8cjKy8WGZmxSE2NUcth4mMiwXwgESZGgRhVCVvmA9EH6aEL0CE0wJYUVR8cal8KY1sCE8ZEqCoZ6lAuELUMxmBAOE3WuksbCAPCwCgMMIkrl57oQ0NQVJiPosIChNkrNcm9Y/rePylkRZiMaGttdRIzzp09q8rzkgslZFTI0hJxwNzpgMm+hCdhQBgQBoQBYcD7DNijQAYjQbrsS2HUchgzWns1sy970SJAeovB5S8UP44+sOLwPSsO3bag6YYFB65YUH/JjLqzjAQpRO2xfGw5nIeNDXlYuzsXVduysWxjBspXp4KJUa2lKcgvSkZmVjwSE6MQFWlCRJgREUajEj+GlsDobeVuQ7R8INrP4flAHJbCOIghIoBM3wGMDE6lb0diwBalEaRyKIz0ufxt+nGjiRknTxx3EjM219QocYsVxeYtESHD+86GOHjS5sKAMCAMCAPCgDAw1QyMsASG+UCcc4I4CCAOy2GOPbKCdpz2uBjHeovR0lmMw4wEuW3BgetF2N9RgLqzBdhxrBBbDhVgY30eVu/KQuWWdJUQtawqDaUVqZizMBlFJQnIK4pDVm4c0jJikZwco5bDxETaE6NyOcyIiVGdk6Kq6jD2BKnyXtpGGJgeDDDR8WBfOr6Xa32oXaZRW7C/aUGzAhAVHoEr7Vfw7esA2lrakJKYBF1QMIJnhaBkUTLan9bgj+lWVk3OR0oFCgPCgDAgDAgDwoAw4CUG7LlANBFEJUPVEqJqAsgjixI/KICopTBaJMhDCw7ft+DgHbOKBGm4YrZFgpwrxK5TBahty8fmpgKs21OAlVvzsGx9NspWZKB0STqKS1NRaElBTl4iMjLixaQNhAFhQBiYRgwkJ0ViYVkxdu7ehKzsRCQnRyEjMx4pyXGoWJeBy0+rRcgQR8dLjs5Uzz7J98sMqDAgDAgDwoAwMPUMaLlAhgkgQ0lRGQmiLYNxToyqVYfhkpijD1gatxjNN6xovCombSAMCAPCwHRjYH97IfZezENDh3noPn/FisabBbj4eIMIGSJkiJAhDAgDwoAwIAwIA8KAHzEwXATpYXlcMWkDYUAYEAamHQP2fE+O53W4M1+EDHFa/MhpkVm0qZ9Fkz6QPhAGhAFhQBgQBoQBYUAYEAaEgSlk4NADETIEwCkEUEQkEZGEAWFAGBAGhAFhQBgQBoQBYUAYEAZcYUCEDBnEi5AjDAgDwoAwIAwIA8KAMCAMCAPCgDAgDPgNA4NCBt+ISRsIA8KAMCAMCAPCgDAgDAgDwoAwIAwIA8KALzPQfD8b5x+txR8Xn2yEmLSBMCAMCAPCgDAgDAgDwoAwIAwIA8KAMCAM+DIDFx6vw51XTfj/8MpWsejYQLgAAAAASUVORK5CYII=;labelBorderColor=none;" vertex="1" parent="WIyWlLk6GJQsqaUBKTNV-1">
          <mxGeometry x="193.21" y="480" width="511.44" height="120" as="geometry" />
        </mxCell>
        <mxCell id="hoXgWQwnw69QvBTEGAqw-6" value="" style="shape=cylinder3;whiteSpace=wrap;boundedLbl=1;backgroundOutline=1;size=18.724116884428952;fillColor=#B5FFF5;labelBorderColor=none;shadow=0;sketch=0;" vertex="1" parent="WIyWlLk6GJQsqaUBKTNV-1">
          <mxGeometry x="80" y="130" width="130" height="75" as="geometry" />
        </mxCell>
        <mxCell id="hoXgWQwnw69QvBTEGAqw-7" value="Road Grid" style="text;resizable=0;autosize=1;align=center;verticalAlign=middle;points=[];fillColor=none;strokeColor=none;fontFamily=Times New Roman;labelBorderColor=none;" vertex="1" parent="WIyWlLk6GJQsqaUBKTNV-1">
          <mxGeometry x="110" y="137.5" width="70" height="20" as="geometry" />
        </mxCell>
        <mxCell id="hoXgWQwnw69QvBTEGAqw-8" value="" style="shape=parallelogram;perimeter=parallelogramPerimeter;whiteSpace=wrap;fixedSize=1;fillColor=#8AFFDC;fontFamily=Times New Roman;size=70.00000000000023;labelBorderColor=none;" vertex="1" parent="WIyWlLk6GJQsqaUBKTNV-1">
          <mxGeometry x="185" y="137.5" width="400" height="50" as="geometry" />
        </mxCell>
        <mxCell id="hoXgWQwnw69QvBTEGAqw-19" value="Section Level" style="text;resizable=0;autosize=1;align=center;verticalAlign=middle;points=[];fillColor=#55FF3B;strokeColor=#000000;fontFamily=Times New Roman;labelBorderColor=none;rounded=1;" vertex="1" parent="WIyWlLk6GJQsqaUBKTNV-1">
          <mxGeometry x="105" y="425" width="80" height="20" as="geometry" />
        </mxCell>
        <mxCell id="hoXgWQwnw69QvBTEGAqw-20" value="Lane  Level" style="text;resizable=0;autosize=1;align=center;verticalAlign=middle;points=[];fillColor=#55FF3B;strokeColor=#000000;fontFamily=Times New Roman;labelBorderColor=none;rounded=1;" vertex="1" parent="WIyWlLk6GJQsqaUBKTNV-1">
          <mxGeometry x="110" y="345" width="70" height="20" as="geometry" />
        </mxCell>
        <mxCell id="hoXgWQwnw69QvBTEGAqw-21" value="Road Network Map" style="text;resizable=0;autosize=1;align=center;verticalAlign=middle;points=[];fillColor=none;strokeColor=none;fontFamily=Times New Roman;labelBorderColor=none;" vertex="1" parent="WIyWlLk6GJQsqaUBKTNV-1">
          <mxGeometry x="90" y="225" width="110" height="20" as="geometry" />
        </mxCell>
        <mxCell id="hoXgWQwnw69QvBTEGAqw-22" value="Object Level" style="text;resizable=0;autosize=1;align=center;verticalAlign=middle;points=[];fillColor=#55FF3B;fontFamily=Times New Roman;labelBorderColor=none;strokeColor=#000000;rounded=1;" vertex="1" parent="WIyWlLk6GJQsqaUBKTNV-1">
          <mxGeometry x="105" y="270" width="80" height="20" as="geometry" />
        </mxCell>
        <mxCell id="hoXgWQwnw69QvBTEGAqw-23" value="" style="group;fillColor=none;" vertex="1" connectable="0" parent="WIyWlLk6GJQsqaUBKTNV-1">
          <mxGeometry x="180" y="395" width="400" height="50" as="geometry" />
        </mxCell>
        <mxCell id="hoXgWQwnw69QvBTEGAqw-4" value="" style="shape=parallelogram;perimeter=parallelogramPerimeter;whiteSpace=wrap;fixedSize=1;fontFamily=Times New Roman;size=70.00000000000023;labelBorderColor=none;" vertex="1" parent="hoXgWQwnw69QvBTEGAqw-23">
          <mxGeometry width="400" height="60" as="geometry" />
        </mxCell>
        <mxCell id="hoXgWQwnw69QvBTEGAqw-10" value="" style="endArrow=classic;html=1;exitX=0.645;exitY=0.541;exitDx=0;exitDy=0;exitPerimeter=0;" edge="1" parent="hoXgWQwnw69QvBTEGAqw-23">
          <mxGeometry width="50" height="50" relative="1" as="geometry">
            <mxPoint x="85.79999999999995" y="17.819999999999936" as="sourcePoint" />
            <mxPoint x="180" y="17" as="targetPoint" />
          </mxGeometry>
        </mxCell>
        <mxCell id="hoXgWQwnw69QvBTEGAqw-12" value="" style="ellipse;whiteSpace=wrap;html=1;" vertex="1" parent="hoXgWQwnw69QvBTEGAqw-23">
          <mxGeometry x="60" y="9.5" width="30" height="15" as="geometry" />
        </mxCell>
        <mxCell id="hoXgWQwnw69QvBTEGAqw-14" value="" style="ellipse;whiteSpace=wrap;html=1;" vertex="1" parent="hoXgWQwnw69QvBTEGAqw-23">
          <mxGeometry x="320" y="9.5" width="30" height="15" as="geometry" />
        </mxCell>
        <mxCell id="hoXgWQwnw69QvBTEGAqw-15" value="" style="ellipse;whiteSpace=wrap;html=1;" vertex="1" parent="hoXgWQwnw69QvBTEGAqw-23">
          <mxGeometry x="180" y="9.5" width="30" height="15" as="geometry" />
        </mxCell>
        <mxCell id="hoXgWQwnw69QvBTEGAqw-13" value="" style="endArrow=classic;html=1;exitX=1;exitY=0.5;exitDx=0;exitDy=0;" edge="1" parent="hoXgWQwnw69QvBTEGAqw-23" source="hoXgWQwnw69QvBTEGAqw-15" target="hoXgWQwnw69QvBTEGAqw-14">
          <mxGeometry width="50" height="50" relative="1" as="geometry">
            <mxPoint x="95.79999999999995" y="27.819999999999936" as="sourcePoint" />
            <mxPoint x="220" y="27" as="targetPoint" />
          </mxGeometry>
        </mxCell>
        <mxCell id="hoXgWQwnw69QvBTEGAqw-17" value="" style="ellipse;whiteSpace=wrap;html=1;" vertex="1" parent="hoXgWQwnw69QvBTEGAqw-23">
          <mxGeometry x="290" y="25" width="30" height="15" as="geometry" />
        </mxCell>
        <mxCell id="hoXgWQwnw69QvBTEGAqw-18" value="" style="endArrow=classic;html=1;exitX=1;exitY=0.5;exitDx=0;exitDy=0;entryX=0;entryY=0.5;entryDx=0;entryDy=0;" edge="1" parent="hoXgWQwnw69QvBTEGAqw-23" source="hoXgWQwnw69QvBTEGAqw-15" target="hoXgWQwnw69QvBTEGAqw-17">
          <mxGeometry width="50" height="50" relative="1" as="geometry">
            <mxPoint x="220" y="27" as="sourcePoint" />
            <mxPoint x="330" y="27" as="targetPoint" />
          </mxGeometry>
        </mxCell>
        <mxCell id="hoXgWQwnw69QvBTEGAqw-24" value="&lt;b&gt;100&lt;/b&gt;" style="ellipse;whiteSpace=wrap;html=1;aspect=fixed;rounded=1;shadow=0;sketch=0;gradientColor=#ea6b66;fillColor=none;strokeColor=#FF0000;strokeWidth=3;" vertex="1" parent="WIyWlLk6GJQsqaUBKTNV-1">
          <mxGeometry x="450" y="265" width="25" height="25" as="geometry" />
        </mxCell>
        <mxCell id="hoXgWQwnw69QvBTEGAqw-27" value="" style="shape=image;verticalLabelPosition=bottom;labelBackgroundColor=#ffffff;verticalAlign=top;aspect=fixed;imageAspect=0;image=data:image/png,iVBORw0KGgoAAAANSUhEUgAAAgAAAAIACAYAAAD0eNT6AABb6klEQVR42u29eZQc12Gfa2h6MI1Gv5Z8dOxYTp7tY+nJiSLbcRzH7/3nnOTknYRSxLxzlNiWZEnHNk3aVuyYlkViAAy4iYtEcacAgvsmLpIocQFJkCABDABiBoN93zGYGczas/UsmA317m3UHV4Me6puVVd31/LNOXUS0T0fuu5U1/frulW/+wu/wA8//PDDDz/88OP15z/9pz9aIraPadsSePDgwYMHD160eF7/8bqFGzx48ODBgwcvWjyvqSMltnptS/lNH/DgwYMHDx686vP8/OPyH1yqbfVl7gw8ePDgwYMHr4o8P/94g9jS2tZQ5s7AgwcPHjx48KrI8/OPy39wmbaly9wZePDgwYMHD14VeYpp+kJ5d2FGbMu1Tf7vj/n8h+HBgwcPHjx41ectsW8a/JjpPy7/way2LS9zZ+DBgwcPHjx41eWpGwjdA4D2j+e0LVvmzmThwYMHDx48eFXlLdGeGnAOAPaLM9ob+Lj9/5azM4rzcXjw4MGDBw9eVXjqBsKlWgBY4vTitHbpIcdgw4MHDx48eJHkqacG5gOAW1JYtmDugcGGBw8ePHjwosXLaE8NyACQcpsjSGsBYDmDDQ8ePHjw4EWOpxyuAkC906X/lJ0QVADIMNjw4MGDBw9e5Hj6UwPLHEuD7JsC6rUAkGaw4cGDBw8evEjycloASLvd9KcHgHLqCvnjwYMHDx48eLXlqQCQcfS5/Ut12jOCyB8ePHjw4MGLLi9ndA+fFgBSyB8ePHjw4MGLPM/s6T0tACB/ePDgwYMHLym8MlcUYrDhwYMHDx68iPMYHHjw4MGDBw/5Mzjw4MGDBw8e8mew4cGDBw8ePOTPYMODBw8ePHjIHx48ePDgwYOH/OHBgwcPHjx4YZS/8dN/DDY8ePDgwYMXC56q/jcuCcoy2PDgwYMHD17k5Z8yCgDaesI5BhsePHjw4MGLtPzVej/OAcB+ccb+9p9jsOHBgwcPHrzIyr/BXu233rH6335x2v72n9XWFmaw4cGDBw8evGjx0vY2HwDcksIyLQBkGWx48ODBgwcvcryM7XMVAFJucwRpLQAsZ7DhwYMHDx68yPGUw1UAqHe69J+yE4IKABkGGx48ePDgwYscT129VwGgwUn+dXY6WKrNFzDY8ODBgwcPXvR4OS0ApN1u+tMDQINxSxCDDQ9e6HlrDltLb9419Htr2gb/dM3ugRVrdud/ILa19vaD4n8T/7em7T2//z/+7oZPMn7w4EWepwJAxtHn9i/Vac8IIn948CLOE0L/tZva8tevactvEtuE2CynrWnXgLVqe6e1ctv5ycYtZ7fc+M6xxr998o3P8feABy+SvJzRPXxaAEghf3jwosv75uPrUzftHvyiEPpGN+GXln/H/Cb/t/zvklVkWtbH+HvAgxcZntnTe1oAQP7w4EWQd/XVX/j46pbe/yZkfcCL+A3kr28H1uwe/IJlWUv4e8CDFxOeX/Ez2PDg1Z73rWff/nzTrv43vYrfo/w/3HbnN6zZO/Qb/D3gwYsXj8GBBy8ivC996apP3PDO4euE/AtVk/+HW0HcOPgN/WoAf1948JA/gw0PXoV5X/nfN/5y4+YzzxjKOmj5f7jtyj9+/0mrgb8vPHjIn8GGB6/CvGvufuTXVza3b6+5/BWvtb/52vue+DX+vvDgIX948OBViHfd/c99emXz+YOhkb/ibT13UL43/r7w4CF/ePDgBf3N/6GnPiPkfzh08le8re1Hrl333G/y94UHD/nDgwcvKfKf5/UfXLO/55f5+8KDF275Gz/9x2DDg4f8PfA8hQCOF3jwqspT1f/GJUFZBhsePOTvgWcUAjhe4MGruvxTRgFAW084x2DDg4f8PfIcQwDHCzx4VZe/Wu/HOQDYL87Y3/5zDDY8eMjfB69kCOB4gQev6vJvsFf7rXes/rdfnLa//We1tYUZbHjwkL9X3hUhgOMFHryq89L2Nh8A3JLCMi0AZBlsePCiKf+7Wi9YTx4btl49N2a91zVh7eiZtHb1XbTaxCb/3+3if7/bOW69cnbMeuLYiPW9fUOVCBPFEMDxAg9e1XkZ2+cqAKTc5gjSWgBYzmDDgxcd+d/b1mW9drzP2n9hyBoYGbPm5uYsrz+F6Tnr6OCk9dqJ/iIvmCsJ/QftngCOF3jwqsNTDlcBoN7p0n/KTggqAGQYbHjwwi//u/cPWm+eGrDOD4xYY2NjxW18fNyX/OWP/D35+4rVmR+13j0zYD1wcKjMxsD2I3JfOV7gwas4T129VwGgwUn+dXY6WKrNFzDY8OCFWP4PHx62DuYnhaQ/lHXQ8l/IOzc6Y/3oVMG6icZAePDCzMtpASDtdtOfHgAajFuCGGx48Kou/7v3D1n781Ousg5a/vpP78RsMQjQGAgPXih5KgBkHH1u/1Kd9owg8ocHL6Tyf719zJqavVRT+es/Z0anrQcODdMYCA9euHg5o3v4tACQQv7w4IVT/nfsHbSOD0+XJeug5a9+RB6xNnaMz08L0BgID17NeWZP72kBAPnDgxdC+d9/cNjKX5wNpfz1n9Mj09ade/M0BsKDFxWeX/Ez2PDgVV7+PxQ3+o3PXApM1tNzl6zBi3NWj5jDvzA2bbWLO/x7hkatkUIwYaJ7qGDd5/3RQRoD4cGrMY/BgQcvRPJfe2TYmihT/lL027onredPjhZvHnSao7+j5YL1uCgNeltczj86NFW818DPlYT+4YL1wO4uGgPhwUP+8OAh/2rKf0wU+Wy9MFGcOiin3veW3XnrBXGnv7y073UaQZYQ/fDwEI2B8OAhf3jwkH+l5T8qxP+aeErg1j2DgXf7P3p0xOoan/F0D4HcB7kvNAbCg4f84cFD/hWQv5jWt7aIb/y3OYg/iG7/m8UVga3dE55uIPQSAmgMhAcP+cODh/wN5d8/OVu8UbCaqwTKqwxerkyYhAAaA+HBQ/7w4CF/Q7meFL0A3907WJMlgt8RawN4uSHRKQTQGAgPXnXlb/z0H4MND1745C/v0pc36dVC/vL3V2/vsPZ0DXp6dLBUCKAxEB68qvJU9b9xSVCWwYYHD/kv5BVDgFh22EtvgB4CaAyEB6/q8k8ZBQBtPeEcgw0PHvIvxbupbcA6PDjlqTBI7rN8RJDGQHjwqip/td6PcwCwX5yxv/3nGGx48JD/Yjz5dMAhDyFA7pfsCZBlQTQGwoNXFfk32Kv91jtW/9svTtvf/rPa2sIMNjx4yL8kT4aAg/kpGgPhwQsfL21v8wHALSks0wJAlsGGBw/5u/FkCDjgEAJoDIQHr+q8jO1zFQBSbnMEaS0ALGew4cFD/qa8m8R73V8iBNAYCA9e1XnK4SoA1Dtd+k/ZCUEFgAyDDQ8e8vfKkyFg38BFGgPhwasdT129VwGgwUn+dXY6WKrNFzDY8OAhf188GQL2ihBAYyA8eDXh5bQAkHa76U8PAA3GLUEMNjzkj/wX28TvfXB+kMZAePCqz1MBIOPoc/uX6rRnBJE/PHjIPxDeKsHZ3p6nMRAevOryckb38GkBIIX84cFD/kHzLoeAQRoD4cGrHs/s6T0tACB/ePCQf0V4cjpgV99FGgPhwQsTz6/4GWx4yB/5e+W19k3SGAgPHksEw4OH/JMkf7W19E7SGAgPHvKHBw/5J0n+atvpEAJoDIQHD/nDg4f8Yyh/te3omaQxEB485A8PHvJPkvzVtl0LATQGwoOH/OHBQ/4JkL/atnVP0hgIDx7yhwcP+SdJ/or37pkBGgPhwauS/I2f/mOw4SF/5F8N3sZT/TQGwoNXWZ6q/jcuCcoy2PCQP/KvBm/j6QEaA+HBq5z8U0YBQFtPOMdgw0P+yL9avPe7JmgMhAcvePmr9X6cA4D94oz97T/HYMND/si/mjwvIYDGQHjwXOXfYK/2W+9Y/W+/OG1/+89qawsz2PCQP/KvGm+TQQigMRAePFde2t7mA4BbUlimBYAsgw0P+SP/WvDe7ZygMRAePP+8jO1zFQBSbnMEaS0ALGew4SF/5F9L3jud4zQGwoPnnaccrgJAvdOl/5SdEFQAyDDY8JA/8g8Db2PHOI2B8OCZ89TVexUAGpzkX2eng6XafAGDDQ/5I//Q8N7uGKcxEB48M15OCwBpt5v+9ADQYNwSxGDDQ/7Iv4q8V0/00xgID547TwWAjKPP7V+q054RRP7wkD/yDy3vleN9NAbCg+fMyxndw6cFgBTyh4f8kX8UeK8c76cxEB68xXlmT+9pAQD5w0P+yD8yvNfbx2gMhAevHJ5f8TPY8JA/sq417zUPIYDGQHjwAvphsOEhf2QdBt6r58ZoDIQHD/nDQ/7IP4m8nzuEABoD4cFD/vCQP/KPMe9nZ8doDIQHD/nDQ/7IP4m8V7QQQGMgPHjIHx7yR/4J4v30TMGapTEQHjzkDw/5I//k8X50pNcq0BgID95izCUMDjzkj/xjy3v+cE8xBNAYCA/eh+K3e3+MS4KyDDY85I9co8h77nCvNTtLYyA8eLb8U0YBQFtPOMdgw0P+yDWqvJdOF6xLl2gMhJd4+av1fpwDgP3ijP3tP8dgw0P+yDXKvBdFCJi7RGMgvMTKv8Fe7bfesfrffnHa/vaf1dYWZrDhIX/kGlneC6fcQwCNgfBiyEvb23wAcEsKy7QAkGWw4SF/5BoH3o8cQgCNgfBiyMvYPlcBIOU2R5DWAsByBhse8keuceI9f3L0IyGAxkB4MeQph6sAUO906T9lJwQVADIMNjzkj1zjyJMhYPYSjYHwYstTV+9VAGhwkn+dnQ6WavMFDDY85I9cY8t7ToSA6VkaA+HFkpfTAkDa7aY/PQA0GLcEMdjwkD9yjTDviQM91kiBxkB4seOpAJBx9Ln9S3XaM4LIHx7yR66J4T22v9saHi3QGAgvTryc0T18WgBIIX94yB+5JpH3mLgSMDUzS2MgvLjwzJ7e0wIA8oeH/JFhYnlPHR+1ZuYu0RgILzk8v+JnsOEhf3hx4z0pQsC0YQigMRBenHgMDjzkjwwTz3vi+IhrCKAxEB7yZ7DhIX94MeQ9cWzxEEBjIDzkz2DDQ/7wYsx7XISAqQUhgMZAeMifwYaH/OElgPeYDAGzl2gMhIf8GWx4yB9e0niPHh2xJqdnaQyEh/wZbHjIH17SeA/v7bHyIwUaA+HFQv7GT/8x2PCQPzx4HdbDey4UQwCNgfAizFPV/8YlQVkGGx7yhwevw3poT481Pk1jILzIyj9lFAC09YRzDDY85A8P3mXeuiPinoBZGgPhRU7+ar0f5wBgvzhjf/vPMdjwkD88eAMlj1caA+FFQP4N9mq/9Y7V//aL0/a3/6y2tjCDDQ/5w4Nnbz887B4CaAyEFwJe2t7mA4BbUlimBYAsgw0vSfJ/9uSodee+QWQYcZ78Gz57YrSi70+GgPEZGgPhhZaXsX2uAkDKbY4grQWA5Qw2vCTJ/6XTBeuSeEvd47NXhADkGj35y7+h/FvKv2kl39/DJUIAjYHwQsBTDlcBoN7p0n/KTggqAGQYbHhJlL/6USEAuUZT/urHLQQE8f4eEiFgbGaOxkB4YeGpq/cqADQ4yb/OTgdLtfkCBhteYuWvfi6MTVu37exCrhGVv1sICPL9PXRo2CpcnKExEF4YeDktAKTdbvrTA0CDcUsQg438Yyx/9f5O942IENCJrCMqfz0EvKiFgEq8v3vbuq2eoVEaA+HVmqcCQMbR5/Yv1WnPCCJ/eMh/wfu7HAK6kHVE5b8wBFTy/f1gV1cxBNAYCK+GvJzRPXxaAEghf3jIf/H3J6cDSj0dgKyjIX/1Mzs7Zz17uLei7+8ecSVgREwH0BgIr0Y8s6f3tACA/OEhf5f3t/DpAGQdLfmrv2+hMGY9c6inou/v/oPD1uj0HI2B8MLL8yt+Bhv5R1X+L/qU/8KnA5B1NOWv/rajIgTIKwGV3F8ZAkam5mgMhMcSwfCQf9TlbxoCkHW45a/+vjNiOuBFg56Acvb3voNDriGg3MbAlTv7j6xp7fsVzlfwkD885F9B+buFAGQdDfmrv++cvDHwVKGi+3uvCAHDi4SAchsD5b+7sqW4FUMA5z94yB8e8l8g/7kA5b9YCEDW0ZL//OsMQ0A5+3vvgSFraEEICKIxcFXrfACwGnf2Hblu7Uuf4fwHD/nDQ/4VlD+NgfGQv2kICGJ/75Eh4GKwjYHzAWBnv3Xj1g7rhs3njl374HOf5fwHD/nDS7b8T1VW/jQGxkP+biEgyP2VISA/EVxj4MqdH8r/xi3ni5sMAfaVAM5/8JA/vOTJX27Pi5X9Zi9VVv40BsZD/sWOAHGsyGOm0vt7V+sFqzNffmNgcf5/gfyLm/jfcjpAvzGQ8x88jbmEwYEXa/mXCgGVkj+Ngcjf6/7e2dJpdeRHymoMXC0u/5eSvwwF+o2BnP/gKfHbvT/GJUFZBhv5R1X+egiYnq2s/GkMRP5e9/fOlgtW//i078bAFc2O8vcUAjifJkL+KaMAoK0nnGOwkX+U5a94Tx3ssUYKlZU/jYHI3+v+fn//kDUwOespBKjGwBs2t7vJ3ygEcD5NhPzVej/OAcB+ccb+9p9jsJF/1OWveE8e6C6GgErKn8ZA5O+VJ0NAv2EI0BsDDeXvGAI4nyZC/g32ar/1jtX/9ovT9rf/rLa2MION/CMtf7XJKwFyOqCS8qcxEPl75X1PhIA+lxCwsDHw3tYuU/mXDAGcTxPBS9vbfABwSwrLtACQZbCRf1zkr3ilng6olGxoDET+przv7RMhYGLWU2Pgg+KxQkP50xiYPF7G9rkKACm3OYK0FgCWM9jIP27yd3pEsBKyoTEQ+Xvh3SXGondBCHBrDHxILDrkJQTQGJgInnK4CgD1Tpf+U3ZCUAEgw2Aj/7jK30sIoDEQ+Vd7/GQI6LFDgGljoHEIoDEwCTx19V4FgAYn+dfZ6WCpNl/AYCP/WMvfJATQGIj8azV+cmzk8eKlMdA1BNAYmBReTgsAabeb/vQA0GDcEsRgI/+Iy5/GQOQf5vGTYVEeL14aAxcNATQGJomnAkDG0ef2L9Vpzwgif+SfKPnTGIj8wzx+Miye6hv21Bj4kRCwiPxpDIwtL2d0D58WAFLIH/knVf40BiL/MI/frSIsdo5NeSoLmg8B7vKnMTB+vKyXut865I/8ky5/GgORf5jH7469gyIEzHgKAfIRQUP50xiYRJ5f8TPYyD+O8qcxEPmHOYzdLkJAh2EIUI2BxbIgGgPhBfnDYCP/uMqfxkDkH+bj+Za2Aet8YYbGQHjIHx7ypzEQ+SdF/nKTgr5F/L/ti4QAGgPhIX/kj/xpDET+MZO//O9K0DIEnBudoTEQHvKHh/xpDET+cV9rYXVr/gpB3yz+29nRaRoD4SF/5I/8aQxE/nFea2FV60fn8G/elbdOD1+kMRAe8kf+yJ/GQOQfx+OvSWyNi8i6aVundbh7iMZAeKbMJQwO8kf+IW8M3HJ2IHLj19I7ifwrwFvd6izrVc0d1iERAmgMhOckfrv3x7gkKMtgI3/kX5vGwO3tg5Ebv7a+i8i/ArxVre7f1FeLKwEnhy4aH3M0BiZO/imjAKCtJ5xjsJE/8q9NY+Cu3onIjZ9JAED+3nkrW82+qd8k7gk4OTxNYyC8hfJX6/04BwD7xRn723+OwUb+yL82jYFSplEbP7cAgPx98HblvVymL77+hGEIoDEwEfJvsFf7rXes/rdfnLa//We1tYUZbOSP/KvcGOg1AIRh/JwCAPL3x2tSAcD8Mn0xBBwfmqIxEF7a3uYDgFtSWKYFgCyDjfyRf20aA70EgLCM32IBAPn75xWf//cg//kQIH7v2CIhgMbARPAyts9VAEi5zRGktQCwnMFG/si/do2BpgEgTONXKgAg//J4K3f2eZa/HgKODk7RGJg8nnK4CgD1Tpf+U3ZCUAEgw2Ajf+TvvTEwyBvgTAJA2MZvYQAo91HJpMtf/p5f+autSdxAeMQOATQGJoKnrt6rANDgJP86Ox0s1eYLGGzkj/x98Ean5wKbA3cLAGEcPz0AlCt/OZZJP/4am8uTvx4CDuUnaQxMBi+nBYC0201/egBoMG4JYrCRP/Kv6By4UwAI6/ip/Q+iJEnf/6QefysCkL+S9UoRJnZ1DNIYGH+eCgAZR5/bv1SnPSOI/JE/8g/JHPhiASDM4yffc1ANiWr/k3z83bg5GPkrWTduPW+1ihBAY2CseTmje/i0AJBC/sgf+YdrDrxUAAj7+MnyoqAaEuX+J/n4a2wOVv5qk9MK+/snaAyMLy/rpe63Dvkjf+QfvjnwhQEgCuMn64uDqkeWYSLJx98KKdqA5a94cm2B/QPeaoNpDIwZz6/4GWzkj/yZAy/F23YuH1g9sgwTST7+bhSX6yshf/UaGQL2DZiv3UBjIEsEM9jIH/kzB74oTwWAIOqRJSupx99KsbBPYwXlr4eAvf3m9c00BiJ/Bhv5I3/mwEvypLSDWhtBBYBEHn+tlZe/HgL29Js/vUJjIPJnsJE/PObAP8KT+x/UwkgyACT1+PvI8r8Vkr8eAnZ7uIGVxkDkz2Ajf3jMgV/Bk6ElqIWR5P4n9fhb2dJfNfmrbZXYvNzDQmMg8mewkT885sDneW7LAXspSZJhIpHHn778b5Xkr4eA1p5xGgORP4ON/JE/c+DeeF4DgNPx7HU55Lgcf6u9BIAA5a948vHDrWcHaAyMqfyNn/5jsJE/8mcO3AvPSwBwO569BoC4HH+raih/xZMVxFtECKAxMFY8Vf1vXBKUZbCRP/JnDtyUZxoATI5nLwEgTsdfo8n8fwXlrzZ5JeCD7nEaA+Mj/5RRANDWE84x2MgfHnPgpjyT/Tc9nk0DQJyOP/nfwiB/xZNXI3Z0T9IYGH35q/V+nAOA/eKM/e0/x2Ajf3jMgZvy3PbfS0mSyf7H7fhzffyvivLXbwzcbhgCaAwMpfwb7NV+6x2r/+0Xp+1v/1ltbWEGG/nDYw7clee0/14bEt32P47Hn+PjfzWQvx4CtnVP0BgYPV7a3uYDgFtSWKYFgCyDjfzhMQduylts//3UIzvtfxyPv6a2gVDKXw8BzRcmaAyMDi9j+1wFgJTbHEFaCwDLGWzkD485cC+8Uvvvd22ExfY/rsff6tbwyl8PAVsWhAAaA0PJUw5XAaDe6dJ/yk4IKgBkGGzkD485cK+8Ng91sl6XQ4778Vfy8n+I5K+HgM1dEzQGhpenrt6rANDgJP86Ox0s1eYLGGzkD485cM88ff/LXRVx4f7H+fhr2iUf/wu//PUQ8F7nGI2B4eTltACQdrvpTw8ADcYtQQw28ofHHPgi+x/Eksj6/sf9+Gta2P4XYvnrjYFvnuinMTB8PBUAMo4+t3+pTntGEPkjf3jMgfvmyfcchPz1/U/C8XfF438RkL/O23Cij8bAcPFyRvfwaQEghfyRPzzmwMvlyfKiIOSv9j8px9/8/H/E5K9475wv0BgYHl7WS91vHfJH/vCYAw+CJ+uLg5C//JFhIgnHX1NbPtLyV7x3OrzVBtMYWGOeX/Ez2MgfHnPgpXhqOeQglkSWYSIJx1/x8b+Iy19tG8+PG/99aQxkiWDkj/xjxUv6HLgKAEEsiayWQ4778RcX+avtLZcQQGMg8kf+yD+WvKTPgUtpByF/tRxy/I+/eMlfbW+2j9MYiPyRP/JPFi/pc+By/4OQvwoAcT9eGps7Yyd/tW1oH6MxEPkjf+SfHF7S58BlaAlC/nKT+x/34yWu8lfbG+fGaAxE/sgf+SeDl/Q5cK/LITt9PmSYiPPx0rhNCqw9tvJX26tnR2kMRP7IH/nHn5f0OXCvAcDp8+F1OeSoHS+NzR2xl7/ivXykl8bAkMjf+Ok/5I/84TEH7oXnJQC4fT68BoCoHS8rtrQnQv6K9ZIIATQG1pSnqv+NS4KyyB/5w2MO3JRnGgBMPh9eAkAUj5ckyV/xXjkzSmNg7eSfMgoA2nrCOeSP/OExB27KM9l/08+HaQCI4vFS3BImf8V75UzBukRjYLXlr9b7cQ4A9osz9rf/HPJH/vCYAzflue2/l5Ikk/2P6vGyqiWZ8lfbTw1DAI2Bgci/wV7tt96x+t9+cdr+9p/V1hZG/sgfHnPgrjyn/ffakOi2/1E+XlbuTK781faT084hgMbAQHhpe5sPAG5JYZkWALLIH/nDYw7clLfY/vupR3ba/ygfL8UAkHD5q+3Hi4QAGgMD4WVsn6sAkHKbI0hrAWA58kf+8JgD98Irtf9+10ZYbP+jfrysakX++vbyqStDAI2BgfCUw1UAqHe69J+yE4IKABnkj/zhMQfulbdw/8tZGKnU/sfhePF0+T/m8lfbS3YIoDEwEJ66eq8CQIOT/OvsdLBUmy9A/sgfHnPgnnn6/pe7KuLC/Y/D8eLp8n9C5K+2F04MW4UxGgMD4OW0AJB2u+lPDwANxi1ByB/5w2MOfJH9D2JJZH3/43K8GF/+T5j8Fe/pA93WaIHGwDJ5KgBkHH1u/1Kd9owg8kf+8JgD982T7zkI+ev7H6fjxejyf0Llr1hPiRAgrwTQGOiblzO6h08LACnkj/zhMQdeLk+WFwUhf7X/cTpejC7/J1z+ivfc8WFrzrAtiMbAj/CyXup+65A/8ofHHHgQPFlfHIT85Y8ME3E6Xlwv/yP/K3jPnRi1Zj2EABoDPfL8ih/5I394zIGX4qnlkINYElmGiTgdL46X/5F/Sd6zhiGAxkCWCEb+8JgDr/H4qQAQxJLIajnkOBwvjpf/kb8j75njziGAxkDkj/zhMQcegvGT0g5C/mo55LgcL4te/kf+RrynFwkBNAYif+QPjznwkIyf3P8g5K8CQFyOl5KX/5G/J95Tx0asmUuXaAxE/sgfHnPgYRw/GVqCkL/c5P7H4Xgpefkf+fviPSlDgHg8gMZA5I/84TEHHrLx87ocstPnTYaJOBwvH7n8j/zL4j1+dNgaKYzRGIj8kT885sDDNH5eA4DT583rcshhPF6axNaI/APnrdtzwRoaLdAY6I+5BPkjf3jMgQfO8xIA3D5vXgNAGI+Xpl155F8hngwBw+JKAI2B5uK3e3+MS4KyyB/5w2MO3JRnGgBMPm9eAkBYjxdkXVneo+IcPm1YGZjwxsAlduNvnWlF8PIS/cLIH/nDYw58UZ7J/pt+3kwDQJiPl8adyLrSvEePjFhTHkJAAhsDl2jr/TgHAPvFGfvbfw75I394zIGb8tz230tJksn+h/l4Kd78h6yrwlsvQ4BBZWACGwOX2Kv8LtUCgOPywGn7239WW1sY+SN/eMyBu/Kc9t9rQ6Lb/of9eFnZgqyryXvk8LBjCEhoY2Da3uYDgFtSWKYFgCzyR/7wmAM35S22/37qkZ32PwrHC7KuPk+GgIslQkBCGwMzts9VAEi5zRGktQCwPE7y/+Fh5A+POfBK80rtv9+1ERbb/ygcLyuakXWteOsWhAC3xsAHDw7FsTFQOVwFgHqnS/8pOyGoAJCJk/wfPDRsjSN/eMyBV5y3cP/LWRip1P5H5XhB1rXlrRXn/MlZs8ZA6Yb79g/FqTFQXb1XAaDBSf51djpYqs0XxEb+3xd/2OGpOeQPjznwKoyfvv/lroq4cP+jcrw0NiPrMPAeFt/s86NmjYHSEXfsGYxLY2BOCwBpt5v+9ADQYNwSVGX5X3f/c5/2Kn8p8Y6xGeQPjznwKo2f2v8glkTW9z9Kx8uKrcg6LLz7dnUVb/gzOf7OF2asJo+rNsrpgNt2jv2zkPlSBYCMo8/tX6rTnhEMpfyvufuRXxfyP+j1w7mzdxL5w2MOvIrjJ99zEPLX9z9Kx0uj2G5A1qHiyRAgb/gzOf529Ex6fn+NO/sP3djS+ckQNQbmjO7h0wJAKqzy/8r/vvGXVza3b/f64Xz25Cjyh8cceJXHT5YXBSF/tf9RO14a5c1/yDp0PHm3v7oJ3O3nabHioI/3t2PN+1Y6JI2BWS91v3Vhlf+XvnTVJxo3n3nG64fzu3sHrRExp4P84TEHXt3xk/XFQchf/sgwEbXj5UZx+R9Zh5Mnbww0qQ2W7rhF9jh4fH+NLf3Pil9fEpnGQL/ir9bO3PDO4ev8fDjlZRzTk+/x4WnkD4858IB4ajnkIJZElmEiSsdLcUPWoeb9yL4y7PbTfGHc1/sT0wHXsERwALxvPfv255t29Re8fjDvE3d+zsyanXw7xQ2Ct4o7P5EXPObAg+GpABDEkshqOeSoHC+r/YgLWVedt6170vX4Gx0bt+7c2en5/Ym1H8ZWtg1/GvmXwbv66i98XMj/TT8fzr39ZnOQhem54iOCyAsec+DB8aS0g5C/Wg45SsdLI3KNBG9Na97qnZh1Pf52tOd9vT8RAt5RUwHI3wdvdUvvf/Pz4bx7/6BVGDM7+T5zYhR5wWMOPGCe3P8g5K8CQFSOl9WteeQaIZ5cQdDt+BstjFm37+zy9f5EGPzvyN8H75uPr0+JD9sBPx/Od88MGJ18d/dfRF7wmAOvAE+GliDkLze5/1E5XuTCP8g1WrzDg1OuN+xu7hzz9f5WfNB75Kqv/M9PIH+PvJt2D37Rz4ezaUen1TM06nrylfWQd+4bRF7wmAOvAM/rcshOJ18ZJqJwvDTtyiPXCPIeOjjsesOunCpe3erv/V3/+r6vIn+PPPGB2ujnw/no/m6jb17vdk4gL3jMgVeI5zUAOJ18vS6HXKvjZVUrco0q7/TwRdd7dp44OuLr/X1705nmMMrf+Om/6st/8Nf8fji3nhtwlb9cK/r2vYPICx5z4BXieQkAbk9LeA0ANTlexLf/RuQaWd5zh3pdp413lmoHNHx/f/PkG78dorUCVPW/cUlQtppzGDe15a/3++E8PzDi+s2rNeLri8NjDjzs42caAEwelfQSAGq1v8bf/pF1KHlN4u86UnC+ctw/Oev7/a3Y0X1jiOSfMgoA2nrCuWrOYYgP1CY/H87bWzqNLruuF5dykBc85sArxzPZf9OeBNMAUMv9Ra7R5x3qHnL1h+NKgU7vb0f/1pDIX6334xwA7Bdn7G//uarJ/7C1VHygJvx8OJ882OMqf3kzx03ICx5z4BXlue2/l5Ikk/2v5f7K/4Zco8978+SAqz+eOT7q6/2JZsDJb2042VBj+TfYq/3WO1b/2y9O29/+s9rawhWfw7h519Dv+f1wbuwouJ5o9+enkBc85sArzHPaf68NiW77X+v9dX30D7lGgvfs8WHXz+rb58d9v79V2wf+oIb33KXtbT4AuCWFZVoAyFbrBgbx+N9XfF927Xc/6W4Qf0DkBY858MryFtt/P/XIbSG+Z6epDbnGhXe/WCnQvZRr0v/729n3zRrJP2P7XAWAlNscQVoLAMureffimt0DK/x+OOWCPm4/Tx4fRV7wmAOvMK/U/vtdG2Gx/Q/D/jre/IdcI8W7TSwG5/ZzTKwY6//99a+pgfyVw1UAqHe69J+yE4IKAJlqP7qwZnf+B34/nO2FGdc/4D0HhpAXPObAK8xbuP/lLIxUav/Dsr+NyDU2PFn04/ZzbnTG9/tb0TrwYJXlr67eqwDQ4CT/OjsdLNXmC6r+3KIIAGv9fjgvjLsHgNv2DCIveMyBV5in73+5qyIu3P+w7O+i3/6RayR5q1rcA0CXWDnW9/vb2fd4lXt2cloASLvd9KcHgAbjlqCAd2ZhAPDy4TQJAMgLHnPglR8/tf9BLIms739Y9rep+O2/H7nGiHfTLvcpgM7ClP/3VyIAVLhkTwWAjKPP7V+q054RrIn8F04BeP1wuk0ByJPO6h3ICx5z4JXmyfcchPz1/Q/T/pb89o9cI837vlgbxs0fx3pHfL+/hVMAVWjYzRndw6cFgFQt5a/fBOjnw+l0E6A6Gd36QSfygscceIV5srwoCPmr/Q/b/n7k0T/kGnneY0dHXP2xt2uwjPf34U2AVarXz3qp+62rtfztdQD+1Pdl1373y6737upCXvCYA68wT9YXByH/y49eTYRqf1cvXPUPucaC99q5MVd/NJ8d8P/+7McAq722TnCrAlXhBoam7T2/7/fD+U7nuOtl16dFWyDygscceGV5ajnkIJZElmEiTPt7xbd/5Bob3r4B92m7V4/3+X5/sggodPIP2xLB/+Pvbvjkym3nJ/18OJ87Oep62fXt0wPICx5z4BXmqQAQxJLIajnkMOzvFWvCI9fY8OQTAKPTc67+eHx/j6/3J6uA/3z9hmXI34DXuOXsFj8fzu/tH3K97Hp65CLygscceIV5UtpByF8thxyW/V3V2o9cY8hbe3jY6J6d23fnfb2/xu29zcjfkHfjO8ca/X7YB8SSjU7fvGYvWdZ39w4iL3jMgVeQJ/c/CPmrABCG/Z1f9Ae5xo7XIip+3eTfNz7t+/19e+OxJuRvyPvbJ9/4nN8Pe0vvuOs3r5+cKSAveMyBV5AnQ0sQ8peb3P8w7G9x7h+5xo53q/jbXpTfDF3u2dnZM+n7/f31Yz//HeTvgSc+cBv9fNgfO9Dj+s3r7Og08oLHHHgFeV6XQ3Y6+cowUev9Xb0LucaVt7Fj3OiG3SfEY4J+3t+3N51pRv4eeWJVwC/6+bCv3t5h9QyNup581x4ZRl7wmAOvEM9rAHA6+XpdDrkS+yse4UKuMeR9V8zpT4pv/27yL4gbBFe3+nt/17++76thlL/x03+1eHRhjWXJqwAH/HzY3znd73ryPSpWdUJe8JgDrwzPSwBwO/l6DQBB76888SPXePJMn9bZ0jXh6/195/2zx6764y//Ypjkr1X/G5cEZWtxA8Oa3YNf8PNhv6v1gjUz637yfeLYCPKCxxx4BXimAcDk5OslAAS+v0X5n0euMeQ9Kc7/JsffnLg94HvixnE/7+8fXtv7lRDKP2UUALT1hHO1mMMQY79ErA2wwc+HvVSpw8KfPvHEwC27kRc85sCD5pnsv2lPgmkAqMT+rmhGrnHk3SlWhR29OGN0/O0RDbN+3t93Np15/+qrv/DxkMlfrffjHADsF2fsb/+5Ws1hrNk79Bviw1jw+mG/7+BQMbm5/ewQd3YiL3jMgQfLc9t/LyVJJvtfif1dKX7/xs3INW48uerf+dEpo+NPPhxw974hz+/vhs3t43/77KbfDZn8G+zVfusdq//tF6ftb/9ZbW3hmuyMWCDoG34+7FLuJj8vnBpBXvCYAw+Q57T/XhsS3fa/Uvu7YityjRtPTukcHZw0Pv62dU/6en//+NaR/xUi+X/M9nlaDwBuSWGZFgCytdyZ4lTArvzjXj/ssvBnZGrO9eQ7XBizHt5zAXnBYw48IN5i+++nHtlp/yu5vzcg19jJ/3DeXP7SHbe05T2/v++8d/rFpqaVdSGSf8b2uQoAKbc5grQWAJaHIcncf9JqaGrtb/b6YX92wfoAi52M+ocL1gO7u5AXPObAA+CV2n+/ayMstv+V3N/5b//INTbyP+RB/vLn6WMjnt/fDZvPtVz/3JFMiOSvHK4CQL3Tpf+UnRBUAMiE6TLGtfc98Wsrt5476PXDvrN30uhkNDAyVuyERobwmAMvj7dw/8tZGKnU/ldyfxvlt//N7cg1RvI/OOBN/jvcWv9KffPffO7IP75z8JdCJH919V4FgAYn+dfZ6WCpNl8QpjmMIu+6+5/79Mqt7Ue8fNjlnf4dYzNGJyNZCrHuyAgyhJf4OfByePr+l7sq4sL9r/T+Fr/9I9dY8GSHwwGP8j9fmCmGBk/f/Le0H2va1PmpkPkypwWAtNtNf3oAaDBuCapBadC16577zaZd/Qe9fMi/L1YKHBZzOiYnIxkCHjk6ggzhJXoOvBye2v8glkTW97/S+9soH/tDrrGR//5+b6tySkfcsWfQs/wb3z/1qyH0pQoAGUef279Upz0jGFr5z68VsL/nl8UH2FMIeEA8Gigv85scDHJxiPUuIQAZwovrHHi5PNOGNS8BoOL7W3zmH7nGRf77PMp/fOaSdd/+objIX7GWmxb+1Nn3AIRe/vOPB3oIAerDfn9bV/GGP5OTkVMIQIbw4joHHgRPlhcFIX+1/9XYX1n6g1zjIf+9HuU/IeT/4MFYyf/jxk/vaQEgMvL3EgIWfthlCJBXAkxORlMiBDy6IAQgQ3hxngMPgifri4OQv/yRYaLS+7tyWydyjYn89/R5l/9DB4fjJn9znl/xh2VnnELAYie3hw8NFS/5mPxMiUrBx+x1A5AhvDjPgQfFU8shB7EksgwTFZW//N9itT/kGm3eKrHtRv7xXSLYsS2wRAhwO7k9LB758xQCjg4jQ3jxnQMPkKcCQBBLIqvlkCu1v6takGsc5N/Wi/wTKf9SIcD05PaQCAFjM3NGJyPZGPjIXhoD4cVzDjxInpR2EPJXyyFXan89rfGOrEMr/13IP9ny10OAfETQy8ntwUMiBEzPGZ2MhkYL1iP7LiBDeLGaAw+aJ/c/CPmrAFCZ/RWy2Ylcoy7/1p5x5I/8tcZA0RMgy4K8nNxkCCiUCAGlLuPKKwFPHKMxEF485sArwZOhJQj5y03uf+D72ypl049cIy7/FuSP/Evxrnnoqc94bQx8YEEIcJrDnRH3BDx1fBQZwov8HHgleF6XQ3b6vMkwEfT7W9WKXKMu/53IH/kH3Rh4vzhARqfNGgNlCHj6xCgyhBfZOfBK8bwGAKfPm9flkN3e3+pdeeQacfnv6Eb+5crf+Om/KMq/nMbA+w4MWT1DBaODS4aAZ1xCAHJNHi8ac+CV43kJAG5h22sAcHp/cmv0Kh1kHSr5b7+A/Mvkqep/45KgbBTlX05j4PdbO63uwVGjy7iiK8h6dpEQgAyTyQv9HHiFeaYBwORKm5cA4Cj/tgHvN/0h61DJfxvyD0L+KaMAoK0nnIuq/MtpDCyGAHElwOSbnAwBz50cRYbwIjEHXmmeyf6b9iSYBgBX+bfwzT/K8m++MIb8y5e/Wu/HOQDYL87Y3/5zUZZ/OY2B9+wfLK4QZfIjQ8DzdghAhsnmhXkOvBrj57b/XkqSTPbfTf5c9o+2/Ld2If8A5N9gr/Zb71j9b784bX/7z2prC38s6oPjpzHwHnFPwJBhCJiTVwJO0BiYdF5Y58CrNX5O+++1IdFt/53ln0f+EZf/ZuQfBC9tb/MBwC0pLNMCQDYO8i+nMVCGgMGLZo2BhbFx66mDPcgwwbwwzoFXc/wW238/9chO++8mfy77R1v+73ci/wB4GdvnKgCk3OYI0loAWB4n+ZfTGPgDlxCgn9xGRVnQ0yIEIMNk8sI2B17t8Su1/37XRlhs/50f9ROX/ZFrpOX/HvIPgqccrgJAvdOl/5SdEFQAyMRR/uU0BsoQkL84a3Ryk1cCXjg1glwTyAvTHHgtxm/h/pezMFKp/Xdq+KPkJ/q8TR3IPwCeunqvAkCDk/zr7HSwVJsv+FiMB8d3Y+Dd+4esgclZo5PbJXFPwEunC8g1YbywzIHXavz0/S93VcSF++9Y74v8I897t6OA/IPh5bQAkHa76U8PAA3GLUEJbQxUIcDk5CZDwMuGIQC5xoMXhjnwWo6f2v8glkTW97/k+9smVvVrGWBhnxjwNp5H/gHyVADIOPrc/qU67RnBxMi/nMbA7+0btM7nR40OVpEBrB+fKSDXhPBqPQde6/GT7zkI+ev7v/D9NcqtucP7Xf7IOpS8t5F/0Lyc0T18WgBIJVH+5TQG3t7SaZ0bGDE6uckQ8JNFQgByjRevZnPgIRk/r+uzu+2//v6k+FcUT+zINS68t9qRfwV4WS91v3VJln85jYEyBLQPjBqd3GQI+OnZMeQac15N5sBDNH6yvjgI+csfGSbk+5kX/2bkGifem8i/tjy/4o/r4PhpDLxr76DVOzFrfFJ7xQ4ByDWevKrOgYdw/NRyyEEsibzt3KDVuPX8ZfEj11jxNpwbRf4sERyPxsC7xD0BPV5CwJlR5BpTXjXmwMM8fioAlCP/mdk5a2C4YG080Y9cY8h7A/kj/7g1BsoQ0D0+a/TNRh7sLx3tRa4x5FVyDjwK4ycDgN/9lUtsFy7OWBfEtFqXuL9mPgAg19jwXj+L/JF/TBsD73QJAQu/Gf5YhADkGi9eJebAozR+cv+97K+8N2ZKrKY1KtbcGByfti7kL8t/PgAg19jwXkX+yD/ujYEyBFwYnzF+FOzVc6PINUa8IOfApUyjNn4ytJgunjUxPWcNi06NIbEtlH8xAJwcQK4x4f38DPJH/glpDLxD3BjYpYUAtznhN9rHkGtMeEHMgavjRbKiNn5OTYiyGGt6Vl7mvyz9IQf5y/+9WdTCItfo836G/JF/0hoDiyFgbMb4hrAN58eRawx45cyBLwyLKgBEafxKBQDhfGtc+7ZvIn/537d0TiDXiPNeOY38wyZ/46f/kH95jYHf3ZO3TvaPGB/8b7qEAGQdvzlwp2kiGQCiNn4qAMzP7V/8qPRN5C//754DALIOFe+np0eQf7h4qvrfuCQoi/zLawy85YNO63jvsPFl4bcWCQHINV5z4Cb3iMgwEbXxa+25WPy2v5j0TeXvOQAg61DxfiLkP4b8wyb/lFEA0NYTziH/8hsDZQg40Tdi/M3w7Y5x5BpRnttywF4WCpJhIhLjtytvrRbbypb+orSDkL+nAICsQ8X78SnkH0L5q/V+nAOA/eKM/e0/h/yDaQy8TUwHtBdmjKWw0Q4ByDX6c+B+5C//u9tywLXe3yZb+vqiPG4BwFT+xgEAWYeK9zLyD6P8G+zVfusdq//tF6ftb/9ZbW1h5B9AY+B39wx6DAEF5BrROfBy5e+2HHCt9rfIlNJf5ITtFAC8yN8oACDrUPFeOon8Q8hL29t8AHBLCsu0AJBF/sE2BsoQcG50xlgOb4gyFOQaHZ5pADB5OsRLAKjk/jY2nxeL8Zw3WoVvsQDgVf6uAQBZh4r3IvIPIy9j+1wFgJTbHEFaCwDLkX9lGgNvEyHg7Oi0sRzePNmPXCPCMwkApo+GmgaASuzvyu1C/MUTcLsnOZQKAH7k7xgAkHWoeC+cGEb+4eMph6sAUO906T9lJwQVADLIv7KNgTIEnCkRAhaTw3udY8g6Ajy3AOBloSCTABDo/sqb+VoHrBXN/uWwMAD4lf+iAQBZh4r3IyH/whjyDxlPXb1XAaDBSf51djpYqs0XIP8qNAbeKkLA6ZFpYzlsvjCBrEPOcwoAXlcJdAsAQeyvfO3lO/gHrMYP+sqWgx4AypF/yQCArEPFex75h5WX0wJA2u2mPz0ANBi3BDHYgTQGyhBwSoQAUzlsMQwByLo2vMUCgJ8lgp0CQDn729SW/1D66uQfkBxUAChX/h8JAMg6VLznjiP/EPNUAMg4+tz+pTrtGUHkX4PGwFt2562DPcPGH6atLiEAWdeOVyoA+JG/UwDw8/4uS3/g8mN7FZSDlHYQ8r8iACDrUPGeRf5h5+WM7uHTAkAK+QfH89MYuGZHp7X/wpCxHJq7J5F1CHkLA4Bf+S8WALy8v6bi6/OlpV8hOcgFfIKQ/3wAQNah4j0j5D+K/MPOy3qp+61D/sHz/DQGNok7r/d3Dxs3Bm5bEAKQde15egAoR/6lAoDJ+1PSXyVu5musgWzkEr5ByF9uMkwg6/Dwnj6G/GPF8yt+BrtyjYE3tw1Yx4amjMtktvdMIusQ8VQAKFf+CwOA4/vbpc3p11g2G0VvRRDyl78nwwSyDgfvKeTPEsEMdnUaA+U9AV5CwI7ucWQdEp6UdhDy1wNAyUY+cbVIPrJX/Ka/MzyyUQGgXPnL35csZF173pNHkT/yZ7Cr2hgoQ8BRgxCgZLP57ACyDgFPLuAThPxVAPhoI584cYpWvrDKRko7CPnLEDEfAJB1zXhPCPmPaMcy8kf+DHaVGgNvFiHgyOCU8XPlW84OIOsa8+QSvkHIX/7IMNG4zV8jX61kIy/bByH/+QCArGvGe1zKv4D8kT+DXbPGQBkCDpcIAYtdZm6JyhKyMeVtO5cvW/4zc5essakZ651T0ZsDlzfuBSH/YgA4OYCsa8R77AjyR/4MdigaA2UIOJifMr67fJe4dHwTsq4JTwUAL/K/JLbp2UvW+PScNRzxOXC35YC9LBQkwwSyrj7vUSH/YeSP/Bns8DQGqhBgvJBMv1kIQP7B8mQAMJG/+JJvTc7MWYWLQoATM7GZA/caAJxKg1yXA0bWyB8f+WEuYXBqzPPTGHiTeESwtXPI+MO52yUEIP/gefIegMX+HvLS/oT4lj9yMb5z4F4CgFtjoOcAgPzL4q0/jPxjzlPV/8YlQVkGO1yNgavE418t580vM+9ZJAQg68rw5I17i13aT8IcuGkAMKkL9hQAkH9ZvEcOD1lDyD/u8k8ZBQBtPeEcg11Znp/GQBkCdnYMGs8x7x0QIWA3sq4Gb1fvReuikP7CS/tJmQM3CQCmawUYBwDkXxZv3SEh/1HkH3P5q/V+nAOA/eKM/e0/x2BXnuenMXCN+O/y273pzz47BCDr4Hkr5ZWZlv5i537S58Dd9t/LQkFG+4/8y+KtRf5JkH+DvdpvvWP1v/3itP3tP6utLcxgV5jnpzFQXtrf7SkETFqrdyD/cnnFZ/ObO0QpjzzBMQduGgC8rhLouv/Iv2z5DyL/uPPS9jYfANySwjItAGQZ7Orx/DQGyhDQZhAC1NMDLWLqYPV25O+H19jcaZ/UmAP3GgD8LBHsuP/IvyzeDw8i/wTwMrbPVQBIuc0RpLUAsJzBrj7PT2OgDAG7+i4aNwa2ihDQtAP5m3BWt4pFdnb2MQduyCu1/37k77j/yL8s3sNC/nnkH3eecrgKAPVOl/5TdkJQASDDYNeO56cxUG6tJULAYr0BB/OTxW4B5K9tuz5cSnflTubA/fAW7r9f+S+6/8i/LN5DyD8JPHX1XgWABif519npYKk2X8Bg15jnpzFQbi29k8aNgbJi2EsIiKP8L3/LHyjewLdyJ3Pg5fL0/S9H/iX3H/mXxXvwwJA1MIL8E8DLaQEg7XbTnx4AGoxbghjsUDYGym2nCAGmjYFHxIqDt+xOkPzFN/zV8lt+KeEHcPLtGJ1O9By4CgDlyl9uciyRP/KH55mnAkDG0ef2L9Vpzwgi/5Dx/DQGSultPps3/rAfdQkBUZf//Fx+hU++j4sa1aDkH9U5cPmeg5C/2uSYIv/yeA8cGET+yeLljO7h0wJACvmHl+enMVBK8L0zA8aNgccWCQFRlb+8rL+qZcD5W37A8h+YCE7+UZ0Dl+VFQclfbv1j09a6Pd3I3yfvfuSfRF7WS91vHfIPP89PY6DcNp3JGzcGHh+eviIEREn+jc3nLz+X31z9k28l5B/VOXBZXxyU/NX4ne8fsdbt7kL+XuW/H/nDcwb4Ej+DHZ3GQPnfm7snjcuCTogQcOuewQjIv18U8nQWpX9DDU++lZL/RwJAROQlFzAKUv6KVQwB4koA8jfb7hPy7x8pIH94wf8w2NFqDJTb1gsTHkKAqA3+oCtU8pevLXKKj+j1heLkW0n5XxEAIiQvFQCClL/iyemA4j0ByN9xu1fKfxj5w0P+NAZq2xaDEKCeHjjYPWStsWuDayX/JrFdvnlPfNsP2cm30vKfDwARk5cMAJWQv+LJMfcUApIm/32DVh/yh4f8aQwstW12CAELHx08JEKAvBJQLfkX79aXj+mp5/JDevKthvzlJm+oi5q85D0AlZK/2oxDQMLkf4+Qfy/yh4f8aQx02t7vmjBuDDw9ctG6TdwTUAn5q8v689/yd4b/5Fst+cvfe1N8m46avDadL1RU/sYhIGHy/4GU/xDyh4f8aQw02N7TQoBbadBZUcjiJQQ4yV99y7/isn5ETr7VlP/+LjEFs60jcvK6Vfz9j4uGyUrK3zUEJEz+dwv59yB/eMifxkAv27tijtm0MdA0BHxE/vKxPHG3frF5r6U/sidf5G/O8xICyh2/j4SApMl/L/KH55m5hMGJGc9vY+AbJ/uNTx7nCjPWdx1CgORJ2c8/k188gUT/5Iv8vfNMQkBQ4zcfAhIm/+8L+Xcjf3gexG/3/hiXBGUZ7Pg3Br52vM+4MbBdhoC9gwvu1h8ofsOXJ48bYnbyRf7+eU4hIOjxS1pj4Pf25pE/PK/yTxkFAG094RyDHS2e38bA18QNZ6aNgTIEyOmA+WVzY/rNC/mXzysVAioxfklqDJTyvzCI/OF5kr9a78c5ANgvztjf/nMMdvR4fhsD3zo/blwWdF6EgFsED/kjfy8hoFLyT0pj4F178lYX8ofnTf4N9mq/9Y7V//aL0/a3/6y2tjCDHTGe38bANz2EgPbRKesm8fvIH/mbhIBj+cmKyj/ujYGX5T+K/OF54aXtbT4AuCWFZVoAyDLY0eV5aQy8/Dz+5ardV88WjBsDj/cOfygw5I/8HXgyLO7rHKyo/OPaGHinkH8n8ofnjZexfa4CQMptjiCtBYDlDHb0eYs1BjbKAGA/llfqefxXz44ZNwaeECHgZlkbjPyRvwtP7rMMAZWUf9waA6X8O/LIH54nnnK4CgD1Tpf+U3ZCUAEgw2DHh1dsDNzSfrRRPJq3wsOjeT8vEQIW6w3oLExZt+3OI3/k78qTVwLkdACNge7bHUL+55E/PG88dfVeBYAGJ/nX2elgqTZfwGDHiPf//sW3P/Vn6zb8P995/9xxryejn50ZM24MvDA+4y0EIP/Erm9PY6CB/Hcjf3i+eDktAKTdbvrTA0CDcUsQgx0p3lV/1/TPv/7oxj9c8UHfUa8nolfOFKxZw8ZAGQK+axICkH9i5U9joPt2u/gMtSN/eP54KgBkHH1u/1Kd9owg8o8x70/ub/s/rn37/OfFojtHvZ7cXjjSaxUMT0bdbiEA+Sde/jQGLr7Jz865AeQPzzcvZ3QPnxYAUsg/Gbz//HTPck8hQDt5/OhQTzEEmDQG9ozPim8xg8gf+dMY6EX+bcgfXtm8rJe63zrknyzef356v1kIKHHyeP5wb3E6wOSnRwj29j2DyB/50xhoKP+zyB9etXh+xc9gR5/3xdcuZBxDgMPJ7eVTBeuSYVlQrxDtHTIEIH/kT2PgotttYj2NM8gfXo14DE4CeV9ct0gIMDi5veQlBIjLrrd+0IX8kT+NgYvI/7R4T8gfHvKHV1XeF9e1XRkCPJzcXjw5as1dMmsMPCdOcLft6ET+yJ/GwCsCD/KHh/zh1ZD35Zc6ll37+vnPy0cEvZ7cXnAIAQt7A9plCNjZhfyRP42BtvxP9SN/eMgfXo15/9/Dzcu/vnbjHxbLgjye3H5UIgQsVhrUL06+d+0dRP7IP9GNgbeItTdOIn94yB9eWHj/9doVv/JnD/trDHz+xIchwK0xMC9OuJ5CAPKnMTBGjYHIHx7yhxdK3n+99u9/5Str/TUGPidCwPSsWWPg4MVZ63smIaCMk+9TR0es/ATypzHQ7O8rjxV5zFRyf28W8j/Rh/zh1U7+xk//MdjJ5P3p9zdl/vz1U74aA5/Y32ONFMxOboMX56zv7xusqGyeOvZhCED+NAYif85/Ceap6n/jkqAsg51M3jeeOJv2FAK0k9Fj+7qLIcCkMXBosRAQ4MlXhoCBMeRPY2Bt5X8c+cOrrfxTRgFAW084x2Anl/dHpiGgxMnosX091tTsrFFPgAwBd++rbGPgo+L9dPYjfxoDqy//m4T8j/Uif3g1lb9a78c5ANgvztjf/nMMdrJ5/2XDyQbHEOBwspTfvGcumdUFDU/JEDBUUdms33uhGAKQP42B8/I/Vg35DyN/eLWUf4O92m+9Y/W//eK0/e0/q60tzGAnmCdDwF++1f6v/TQGPilDwJxhCJicse7aeaGispFXAvJjyD/pjYFVkX/rgHUU+cOrLS9tb/MBwC0pLNMCQJbBhlcyBHg4WT5x1D0EqEcHuwdHrbtaKtsYKE/8gxPIP6mNgYNVkP8aIf8jPcgfXk15GdvnKgCk3OYI0loAWM5gw7siBNx/OQT4aQx8XISA6UVCwMLegB4RAr7fcqGisnnaQwhA/vFpDKyW/A8jf3i15SmHqwBQ73TpP2UnBBUAMgw2vFI/V9/Tlv7a+rf+vZ/GwMdKhIDFSoNGLs5Y9+4fqqhsTEIA8o9PY2C15H8I+cOrLU9dvVcBoMFJ/nV2OliqzRcw2PAW5f2Xr1/7S19d+8b/7acx8NEjH4YAt8bAwvScdd+BoYrKxikEIP/4NAZWQ/5NQv4Hu5E/vJrzcloASLvd9KcHgAbjliAGO9E8GQLklQA/jYHrRQiYnJk1agyUIeB+kxBQxsm8VAhA/vFpDKyW/A8gf3jh4KkAkHH0uf1LddozgsgfnjHv6nt+ki75dIDByfzhPd3W4EjB6GQ55hYCAjiZ6yEA+cenMVD+TZ+utPzFtv/CEPKHFxZezugePi0ApJA/PD+8a9qsek8hQDu5PdTWZeVFCDBpDBybmbMeODhUUdlIUchHBJF/PBoDqyX/fcgfXrh4Zk/vaQEA+cPzzbtmnWEIKHFye3B3tzUxbdYYOC5Ong/qIaACslkrrkwg/3g0Bj52eLjC8u+39iJ/eFHl+RU/gw1v4c8169pECDj5r/00Bq4VJ+qLs5e8hQBkCK+GPCn/PV3IH148eAwOvLJ5MgT81Yb2z/lpDFx7aNiaNAwBY1Oz1n27upEXvJrJfzfyh4f8GWx4V/78/sIQ4OHk+0ODEKAeHewfLogQ0IW84FVd/m2dyB8e8mew4ZX8+aP3rZQMAX4aAx8WIUCeNE0aAwfEDYQPtHUjL3hV4a0W8t+F/OEhfwYbnvPPf3jw3aV/tu6tP/DTGChPmgtDwGKlQePiBkJ55QB5wau0/FuRPzzkz2DDM+P9x6/+ySe/9vDrf+inMVDe6Dc+Y9YYKG8gXHt4GHnBq5j8WzoGkT885M9gw/PC+49X/8kn5ZUAP42BMgTIG/5MGgNlCFhnEgKQITyP8t+J/OHFSP7GT/8x2PCC4P2Hv7l/acmnAwxO5ve0XrB6h0eNTr4yBDxyeBh5wQtO/ueRP7zY8FT1v3FJUJbBhhcE78svWXV/veXcv/LTGHh3S6fVOzRq1Bg4JULA+iPDyBBe2fL/APnDi5f8U0YBQFtPOMdgwwuKZxwCSpwsfyCuBIyKJYJNfqbmLhUXHEKG8PzwVonf29GO/OHFSv5qvR/nAGC/OGN/+88x2PCC5LmGAIeT+X37h4qrA5qGALn0MDKE51X+25E/vHjJv8Fe7bfesfrffnHa/vaf1dYWZrDhBcZbNAQYnMzvFSFg1DAEXBRLDq/d24MM4RnLf1t7HvnDixMvbW/zAcAtKSzTAkCWwYZXCd6XX3qp7i/e0UKAh5N5MQRMzRk1Bg6NFqx1ey4gQ3iu8m8+h/zhxYqXsX2uAkDKbY4grQWA5Qw2vEryVAjw0xh4jwgBI4uEgIW9AcMiBDwirgQgQ3iLyX8r8ocXL55yuAoA9U6X/lN2QlABIMNgw6sG75uPr0997fGN/85PY+AP9g1ZwwtCwGKlQVNiOuDJhWvDI0PkL35vy1nkDy9WPHX1XgWABif519npYKk2X8Bgw6sa76o//vIvfnX9z//AT2Pg3VoIcGsMnLl0yVsIQK6xl//7yB9e/Hg5LQCk3W760wNAg3FLEIMNL0DeVVd9+Re/9vgb/85PY+Dd+watwYkZo8ZAGQKeNgkByDX28n/vDPKHF0ueCgAZR5/bv1SnPSOI/OHVjPfNb65PXfP+2X/ppzHwjp1dVlferDFQrjj8zPFRZJhg+W9C/vDiy8sZ3cOnBYAU8ocXBt6aNdbHPIUA7eR7x85OqzNv1hgoQ8CzpUIAco29/N89PYD84cWZZ/b0nhYAkD+80PBkCLhuW/9v+WkMvF1cCchPTBv1BMgQ8NyJUeSaIPm/g/zhwfvwHoBf8PnDYMOrKG/Nmo9d917Xb/lpDLxr76CVn5w1CgGiMNB6XoYA5Bp7+W88hfzhwSv7h8GGVxXeYiHAQA4yBAwYhoCZ2Tnr6YM0BsZZ/m8jf3jwkD+8iPEsa8kVIcCDHO4UIaDfJQSoRwdHC2PW0we6kWsMeW+eRP7w4CF/eNHkiRDwN839n/XTGHjnnkGrb5EQsLA3QIaAZw7SGBgv+fcjf3jwkD+8KPN+t2ll3TeefPff+mkMvEOGgIlZo8ZAOR3w4qkCco0Bb8MJ5A8PHvKHFwveH33pqk98/bHXft9PY6AMAb12CHBrDBT3BVoveQkByDp0vDeQPzx4yB9evHgyBHxj/Zv/1k9j4O0iBHSPTRs1BsoQ8LJJCEDWoeO9jvzhwXNiLmFw4EWWJ6cD/vLdzs/6aQy8ZUeXdaZvxEgOMgT8+HQBuUaI9yryhwdvUfHbvT/GJUFZBhteOHnWEk8hQDuZ37y9wzrdN2zUGChDwE9KhQBkHTrez48jf3jwHOSfMgoA2nrCOQYbXnh5hiGgxMn85h2dVtfYlFFPgAwBPz1TQNYh5v3seB/yhwdvcfmr9X6cA4D94oz97T/HYMMLN0+GgNOf9dMYeNvuvAgBM5bpz8/OjCHrEPJeQf7w4Dn5vMFe7bfesfrffnHa/vaf1dYWZrDhhZm35K+2dPxffhoDvYQAKZWXjvYh6xDxfnIM+cOD58BL29t8AHBLCsu0AJBlsOFFhfdXG7UQ4EE2t7blrU6XEKA/OvjykV5kjfz5/MILOy9j+1wFgJTbHEFaCwDLGWx4UePJEOCnMVCGgI7CjFFjoNykfJB17XgvH0X+8OA58JTDVQCod7r0n7ITggoAGQYbXlR5X1v389/z0xgoQ8D5BSHAqTTo9XNjyLoGvJeQPzx4Tjx19V4FgAYn+dfZ6WCpNl/AYMOLNO/P1v3s9/w0Bt4iQkC7HQLcGgPlzxvtY8i6irwXxfQL8ocHz5GX0wJA2u2mPz0ANBi3BDHY8ELO+/qjr/8bP42BMgScG50yagyUPxtMQgDyL5v3gpB/AfnDg+fGUwEg4+hz+5fqtGcEkT+8WPH++v2Oz/hpDFyzvdM62jNkJBv589b5cWRdQd6PDiN/ePAMeTmje/i0AJBC/vDiyvvWpvOf9tMYuHpbh3VEhACTxkD583apEID8y+Y9j/zhwfPCM3t6TwsAyB9erHnXmISAEnJo2tZpnR6+aFwWtFEPAci/bN5zh5A/PHgV4fkVP4MNL4o8xxDgIK+bduWt0yPTxiHgnY5x5I/84cGLDI/BgZcI3nXNvb/ppzFQhoBThiFASmqDWJUO+fvnPYv84cFD/vDgBc277t323/TTGFgMAcPTxo2BG070IX8fvGcO9lijBeQPDx7yhwevAjwZAvw0BsoQcHKREFCqN+DNkwPWKuRvzHsa+cODh/zhwas07xvr3/htP42Ba0QIOL4gBDiVBr3fNWGtQv6uvKcOIH948JA/PHhV4n197cu/46cxcE1r3jo2NGXcGLjFSwhIoPyfRP7w4CF/ePCqzfvG+ld+209joAwBRwYnjRsDt14wCAHIH/nDg1dB+Rs//cdgw0sK74b3u3/DT2PgyuYOa3fnoHFjYLNTCEig/J/Y32ONIH948KrBU9X/xiVBWQYbXlJ4f+8lBGiyadx63moTIcC0MXBb9+RHQ0AC5f848ocHr5ryTxkFAG094RyDDS9JvL9//+xv+GkMlFcCDg5MGpcFbddDQALl/9g+5A8PXhXlr9b7cQ4A9osz9rf/HIMNL2m867df+HU/jYFNrQPWwfyUcQjY0TNZfEQwafJfL+Q/XCggf3jwqiP/Bnu133rH6n/7xWn7239WW1uYwYaXKF7JEGAgw9UiBBwwDAFSelvO5q0VyB/5w4NXGV7a3uYDgFtSWKYFgCyDDS+pvOs3aSHAgwxlCNg/cNG4MXDL2YHLISDm8n9kr5D/KPKHB69KvIztcxUAUm5zBGktACxnsOElnXf9pjO/7qcxUIaAfYuEgFK9Ac3n8rFuDFwn5D+E/OHBqxZPOVwFgHqnS/8pOyGoAJBhsOHBu8y75pGffe4773lvDJQhYG//RePGwF19k7FsDFyL/OHBqyZPXb1XAaDBSf51djpYqs0XMNjw4Gm8v/zhjz9fDAEeZShDwB47BJg0Brb1XYxVY+AP9yB/ePCqzMtpASDtdtOfHgAajFuCGGx4CeNd88hLn7txh/fGQBkC2nonjBsDZWCQvxN1+T8s5D+I/OHBqzZPBYCMo8/tX6rTnhFE/vDgOfAat3T9nys+8N4YuELIa5uY5zdtDHQMAZGQfzfyhwevNryc0T18WgBIIX948Mx4l0NAv+fGQHmnf/O5AePGwL2lQkAE5P/QbiH/EeQPD16NeGZP72kBAPnDg+eB9w8mIaCEvOSVgJaeceOyIPk44XwIiID8HxTyzyN/ePDCz/MrfgYbHjwZAk4tHgIc5Cpv8mvpnfQWAlrCL/8H2pA/PHhR5DE48OD54P3T/s5/sWJnv+fGQBkCdvZMGjcGtnYOFRcdCrP8B5A/PHjIHx68JPGuCAEe5CpDwA6XEKA/OtjaMXg5BCB/jj948JA/PHjh4P3Tzs5/ceMHvZ4bA2UIkCsDmjYGtokrAU0t4ZH//cgfHjzkDw9e0nnXPvHmb/3T+2c9NwbKELBtQQhwKg06PDhVXHmw1vK/b1e31T+M/OHBQ/7w4MH7+DXrX/5XxRDgUa4yBDRfmDBuDDw+NGXd3JavmfyfPdTLo37w4CF/ePDg6bxrn/jZb8npAK9ilSFgS9eYcWNgz8Ssdf+BoarK/7sidLSIexFM3h/yhwcvfPI3fvqPwYYHzx+vcd/AP//I0wGGjYFvn+w3bgycuXTJerdj3LppV76i8pf8N9sLVn50DPnDgxdNnqr+Ny4JyjLY8OD543kKAQsaA98SIcC0MVD+jEzNWW+0j1m3qGmBgOR/195Ba1PnuFWYmjG+MoH84cELpfxTRgFAW084x2DDg+ef17jDIAQs0hi4qWPM8vozNXvJ2t03YT2xv8dava3D8nND4t37hqxXz45Zp0amrUuG9yQgf3jwQi1/td6PcwCwX5yxv/3nGGx48MrjNe7oECGg76ifOfqN58c9BQBd1iOFMetE73BxEaIN50atF06OWo8dHbHWHhq2fii29UeGrWeOj1qvnCmIew8mrKPi6QJ5JcH0aQTkDw9eJOTfYK/2W+9Y/W+/OG1/+89qawsz2PDglcGTIaDRR2Og3H5yumDNXvImf9N7CILkud6UiPzhwas2L21v8wHALSks0wJAlsGGBy8YXjEEfOC9MVBu6w4Pf+TbeVjkL7PJtu6J0jciIn948GrFy9g+VwEg5TZHkNYCwHIGGx68gBsD9/T/6ood3hsDi4/g7c4XS4DCJP+usZnidILXexyQPzx4FeUph6sAUO906T9lJwQVADIMNjx4leH9xWM//ex33vPeGKhu0ntRzOWPTs/VVP7yasRPxb0Dq1sHkD88eOHiqav3KgA0OMm/zk4HS7X5AgYbHrwK8v583bP/shgCfD6XLx/3e69zzBry8Fx+EPIfujhnvXZuzFqzK++rgRD5w4NXcV5OCwBpt5v+9ADQYNwSxGDDg1cW7y8ee+GzcjqgnIV9bt7eYW040Wf1DI1WVP6nxSOBPxJXHla3+l97APnDg1cVngoAGUef279Upz0jiPzhwasi75+2nf/V+RsDy1jYZ2Vzh/Xs8WHrYH6q2AVQrvzHxP8+Nzol2v/Gre+JMqBy3x/yhwevaryc0T18WgBIIX948GrDW9HW/6nGnQNHg1rYZ01rvvi8v6wIls/25y/OWnOXFpe/lH1XftTa1zVYrCGWJUK37BoIbMlh5A8PXlV5Zk/vaQEA+cODV0Pe5RDgvTHQ9B4Ceen+jj2D1n3iOf2HxV37crt3/6B12wddVuPW4FYJRP7w4EWE51f8DDY8eMHzHENABZb0rTQP+cODFw0egwMPXgh4JUMA8ud4gQcP+cODF3/eirZzn1rhszEQ+cODBw/5w4MXYZ4MATf6bAxE/vDgwUP+8OBFmHfd4y995obN7ceQPzx48JA/PHgJ4137yHOfvWHzuWPIHx48eMgfHryE8a5b+9JnGnf2HUH+8ODBK1f+xk//Mdjw4IWDd9vOsX8mng44FDb5f2fzuSNNmzo/xd8XHrzQ81T1v3FJUJbBhgcvHLwbWzo/KUS8IzTf/Defa/nHdw7+En9fePAiIf+UUQDQ1hPOMdjw4IWHt+Z9K93Y0v9szb/5v3f6xeufO5Lh7wsPXiTkr9b7cQ4A9osz9rf/HIMND164eKLCf4mYDrhGrB8wVm35i6cSxv/xrSP/q6lpZR1/D3jwIiH/Bnu133rH6n/7xWn7239WW1uYwYYHL2S8lW3DnxYh4J1qyf87m868/7fPbvpd/h7w4EWGl7a3+QDglhSWaQEgy2DDgxdeXvFqQMvAf1/xQe+RSsn/O++fPfYPr+39ytVXf+Hj/D3gwYsML2P7XAWAlNscQVoLAMsZbHjwosG76iv/8xPXv77vq9/edKY5KPlLlmRe9cdf/kX+HvDgRYqnHK4CQL3Tpf+UnRBUAMgw2PDgRZP3N0++8dsrdnTfuHJH/1Zxr8Ckqfjlaxu39zZ/e+Oxpr9+7Oe/w98DHrxI8tTVexUAGpzkX2eng6XafAGDDQ9eDHjf2nCyYdX2gT9YubPvmytb+tesaB14UPz/H5db8f8v/pv8v8nX/Pn6DcsYP3jwIs/LaQEg7XbTnx4AGoxbghhsePDgwYMHL2w8FQAyjj63f6lOe0YQ+cODBw8ePHjR5eWM7uHTAkAK+cODBw8ePHiR55k9vacFAOQPDx48ePDgJYXnV/wMNjx48ODBgxcPHoMDDx48ePDgIX8GBx48ePDgwUP+DDY8ePDgwYOH/BlsePDgwYMHD/nDgwcPHjx48JA/PHjw4MGDBy+M8jd++o/BhgcPHjx48GLBU9X/xiVBWQYbHjx48ODBi7z8U0YBQFtPOMdgw4MHDx48eJGWv1rvxzkA2C/O2N/+cww2PHjw4MGDF1n5N9ir/dY7Vv/bL07b3/6z2trCDDY8ePDgwYMXLV7a3uYDgFtSWKYFgCyDDQ8ePHjw4EWOl7F9rgJAym2OIK0FgOUMNjx48ODBgxc5nnK4CgD1Tpf+U3ZCUAEgw2DDgwcPHjx4keOpq/cqADQ4yb/OTgdLtfkCBhsePHjw4MGLHi+nBYC0201/egBoMG4JYrDhwYMHDx68sPFUAMg4+tz+pTrtGUHkDw8ePHjw4EWXlzO6h08LACnkDw8ePHjw4EWeZ/b0nhYAkD88ePDgwYOXFJ5f8TPY8ODBgwcPXjx4DA48ePDgwYOH/BkcePDgwYMHD/lf+Y/rawTkAqgLhgcPHjx48OBVkefnH9fXCMgGUBcMDx48ePDgwasiz88/ntH6hZcHUBcMDx48ePDgwasiz+s/vkRbI2CZtrjAEnjw4MGDBw9eNHiK6eUfb9DWCEiXWRcMDx48ePDgwasNr860JGiJtkaA2urL/MfhwYMHDx48eNXnpYwCgPbiem1LBfCPw4MHDx48ePBqwzMKAHULt18o4wcePHjw4MGDFwreEre08DFtW1LmPw4PHjx48ODBCwnv/wf0TsZSbhUs5QAAAABJRU5ErkJggg==;" vertex="1" parent="WIyWlLk6GJQsqaUBKTNV-1">
          <mxGeometry x="780" y="225" width="35" height="35" as="geometry" />
        </mxCell>
        <mxCell id="hoXgWQwnw69QvBTEGAqw-28" value="&amp;lt;img src=&amp;quot;https://www.iconfinder.com/data/icons/traffic-signs-1/100/roadsigns-31-512.png&amp;quot; alt=&amp;quot;Bridge, narrow, narrow bridge ahead, road safety, roadsigns, traffic, traffic sign icon&amp;quot;&amp;gt;" style="text;whiteSpace=wrap;html=1;" vertex="1" parent="WIyWlLk6GJQsqaUBKTNV-1">
          <mxGeometry x="630" y="320" width="550" height="40" as="geometry" />
        </mxCell>
        <mxCell id="hoXgWQwnw69QvBTEGAqw-29" value="" style="shape=image;verticalLabelPosition=bottom;labelBackgroundColor=#ffffff;verticalAlign=top;aspect=fixed;imageAspect=0;image=data:image/png,iVBORw0KGgoAAAANSUhEUgAAAgAAAAIACAYAAAD0eNT6AAAABGdBTUEAALGPC/xhBQAAAAFzUkdCAK7OHOkAAAAgY0hSTQAAeiYAAICEAAD6AAAAgOgAAHUwAADqYAAAOpgAABdwnLpRPAAARBtJREFUeNrtnQm0JVdZ77+6Z9epOnWr63Z3utPdBEJCSMjQdCK5kOElph9EVHiAWfoYnEDhsRjEAZY+FyJm6DAYougSRPGB4kLRhUwmgUCQ6TKJIIOIAqJMCkSCSGciJP1W3ex9s7v73hrOrXP23lW/WquWCOf++tRXu+r31amq/xZhYWFhYWFhYWm7XHzx/ujii/cvWGsEDx48ePDgwQuL1/YfHx25woMHDx48ePDC4rXtOtTFF++PrVVN233AgwcPHjx48ObPm+YfL//BsbXGm9wYePDgwYMHD94cedP848nFF+9PrTXZ5MbAgwcPHjx48ObIm+YfL//BibWmm9wYePDgwYMHD94ceYbZ9IPl04XZxRfvX7TW8v9fmPIfhgcPHjx48ODNnxfphwYXmv7j5T+YW+viJjcGHjx48ODBgzdfnnmAsL4BsP7xwlrzTW5MDg8ePHjw4MGbKy+y3hqobgD0hzPrCyzp/7uZjTGcJXjw4MGDBw/eXHjmAcKx1QBEVR9OrZ8eCooNDx48ePDgBckzbw2sNQB1ncLkiHsPFBsePHjw4MELi5dZbw2UDYCqu0eQWg3AIsWGBw8ePHjwguMZh5sGIK766V/pDsE0ABnFhgcPHjx48ILj2W8NTCpDg/RDAbHVAKQUGx48ePDgwQuSV1gNQFr30J/dAGwmrpCdBw8ePHjw4LnlmQYgq/S5/qOR9Y4g8ocHDx48ePDC5RWNnuGzGgCF/OHBgwcPHrzgeXmbuN8R8ocHDx48ePAGxNvkjEIUGx48ePDgwQucR3HgwYMHDx485E9x4MGDBw8ePORPseHBgwcPHjzkT7HhwYMHDx485A8PHjx48ODBQ/7w4MGDBw8ePB/l3/jtP4oNDx48ePDg9YJnov8bhwTlFBsevDB5u3cf+4Asy56aJONXxHH8TqXUZ6Io+qqI3CgiXxaRj4vIW0TkBSLyGBFZon7w4PVW/qpRA2DNJ1xQbHjwguKNoyh6WhyrjyqlDt2zjg5FUXRIRKrWO0TkbSLyaPYHPHi9kr+Z76e6AdAfzvTVf0Gx4cELgqdE5ClRFP1bKfsp5H/k+hER+WH2Bzx4wcs/0bP9xpXR//rDqb76z625hSk2PHj+8s4Xkc+Xku9I/qtr+XdxrD6wa9exe9kf8OAFyUv1utYA1HUKE6sByCk2PHhe854qIrfPQv4W78ai2PJI9gc8eEHxMu1z0wCounsEqdUALFJsePC85cUi8op1ZN21/A3vjiiKfp79AQ9eEDzjcNMAxFU//SvdIZgGIKPY8OB5Lf83zlH+Nu9S9gc8eF7zzK/3pgFIquQ/0t3B2LpfQLHhwUP+G/EuZX/Ag+ctr7AagLTuoT+7AUgapwRRbHjwhij/Rk0A+xcePGc80wBklT7XfzSy3hFE/vDgIf+mvEvZv/DgeccrGj3DZzUACvnDg9db+X9RRK7SAT9niMiJInKWiDw+iqJXKqW+vYlm4lL2Lzx4XvHyNnG/I+QPD14v5f8fIvKTIjKq+n6nnXbKvdI0uUIpdeuUvyRcyv6FBy8w3rTip9jw4Hkv//eKyI4232/btq3nRFH0r1PeRriM/QsPXpg8igMPXn/k/3YRSaf8fvcWkc9N8wxBmiYvYv/Cg4f84cGDF578zdK4CTjy++kmgP0LDx7yhwcPXmDyb9wEVHy/y9i/8OAhf3jw4IUn/9omgMRAePCQP8WGB6+f8t+wCSAxEB485E+x4cHrt/yPagJIDIQHL2z5N377j2LDgzd4+a81AVEUfY7EQHjwguWZ6P/GIUE5xYYHb/DyX+Xt2nXsqXGs/oXEQHjwgpS/atQAWPMJFxQbHjzkb3h79uw+/e4mgMRAePACkr+Z76e6AdAfzvTVf0Gx4cFD/jav/CWgvB1AYiA8eEHIP9Gz/caV0f/6w6m++s+tuYUpNjx4yJ/EQHjwwuKlel1rAOo6hYnVAOQUGx485E9iIDx4wfEy7XPTAKi6ewSp1QAsUmx48JA/iYHw4AXHMw43DUBc9dO/0h2CaQAyig0PHvInMRAevOB45td70wAkVfIf6e5gbN0voNjw4CF/EgPhwQuPV1gNQFr30J/dACSNU4IoNjx4Icq//E5LIrIwg+0lMRAePPc80wBklT7XfzSy3hFE/vDg9U/+9xKRF4rIZ0TkTv1vfFdEPiwiv7S4uLiFxEB48HrDKxo9w2c1AAr5w4PXS/k/UUQOVj+gp76ytFT8AImB8OD1gpe3ifsdIX948Hop/19s8XT+rVu25D9CYiA8eAPhTSt+ig0PXq/kb9ZbFhYWfrCr+pEYCA9eGDyKAw/ecOR/Z8X3u0VEfqDD+pEYCA8e8ocHD/k7lv/7lBqdtn//BUtFseURcay+ssH3a9wEkBgIDx7yp9jwkL/f8n/3kU/7H3vszjOVUl/e4PvVNgEkBsKDh/wpNjzkH5j8DU8pdX8R+eIGf7dhE0BiIDx4yJ9iw0P+gcrf4t2vTRNAYiA8eMifYsND/uHLX9o0ASQGwoMXtvwbv/1HseHBG4T8GzUB5SuCJAbCgxcsz0T/Nw4Jyik2PHiDkH9lE6ATA2/RYUEkBsKDF578VaMGwJpPuKDY8OANRv7rNgEkBsKDF7z8zXw/1Q2A/nCmr/4Lig0P3qDkf1gTQGIgPHjByz/Rs/3GldH/+sOpvvrPrbmFKTY85D8c+a8u5SuCZU4AiYHw4AXLS/W61gDUdQoTqwHIKTY85D88+ZvvV4YFxbFpAkgMhAcvIF6mfW4aAFV3jyC1GoBFig0P+Q9X/iQGcnzAC5ZnHG4agLjqp3+lOwTTAGQUGx7yR/4kBnJ8wAuOZ369Nw1AUiX/ke4Oxtb9AooND/kjfxIDOT7ghccrrAYgrXvoz24AksYpQRQbHvIfkvylTRNAYiA8eM54pgHIKn2u/2hkvSOI/OEhf+RPYiDHB7xweUWjZ/isBkAhf3jIH/mTGMjxAS94Xt4m7neE/OEhf+RPYiDHB7wB8aYVP8WGh/wHL//DmgASA+HBC5dHceAhf+RPYiDHBzzkT3HgIX/k35xHYiA8eMgfHjzkPzD5kxjI8QYP+cODh/wHKn8SAzne4CF/ePCQ/0DlT2Igxxs85A8PHvIfrvylTRNAYiA8ePOVf+O3/yg2vJ7I/03In8RAEgPhDZxnov8bhwTlFBse8kf+JAZyvMELXv6qUQNgzSdcUGx4yB/5kxjI8QYvaPmb+X6qGwD94Uxf/RcUGx7yR/4kBnK8wQtW/ome7TeujP7XH0711X9uzS1MseEhf+RPYiDHG7yweKle1xqAuk5hYjUAOcWGh/yRP4mBHG/wguNl2uemAVB19whSqwFYpNjwBiL/65H//HgkBsKDN3OecbhpAOKqn/6V7hBMA5BRbHjIH/mTGEhiILzgeObXe9MAJFXyH+nuYGzdL6DY8JA/8icxkMRAeOHxCqsBSOse+rMbgKRxShDFhof8kf/meSQGwoPXLc80AFmlz/Ufjax3BJE/POSP/EkMJDEQXri8otEzfFYDoJA/POSP/EkMJDEQXvC8vE3c7wj5w0P+yJ/EQBID4Q2IN634KTY85I/8Z8QjMRAevDnzKA485I/8SQwkMRAe8qc48JA/8nfHIzEQHjzkDw8e8icxkMRAePCQPzzkj/yHxCMxEB485A8P+SN/EgNJDIQHD/nDQ/7If2A8EgPhwetA/o3f/qPY8JA/8veIR2IgPHjT80z0f+OQoJxiw0P+yJ/EQBID4QUvf9WoAbDmEy4oNjzkj/xJDCQxEF7Q8jfz/VQ3APrDmb76Lyg2POS/tr4H+ZMYSGIgvMDkn+jZfuPK6H/94VRf/efW3MIUGx7yR/4kBpIYCC8sXqrXtQagrlOYWA1ATrHhIX/kT2Lg6kJiILyQeJn2uWkAVN09gtRqABYpNjzkj/xJDDxsITEQXgg843DTAMRVP/0r3SGYBiCj2PCQP/InMXDdhcRAeD7zzK/3pgFIquQ/0t3B2LpfQLHhIX/kT2JgiyaAxEB4nvAKqwFI6x76sxuApHFKEMWGh/zZv/7xSAyEN3SeaQCySp/rPxpZ7wgif3jIH/mTGNiiCSAxEJ5nvKLRM3xWA6CQPzzkj/xJDGz//UgMhOcZL28T9ztC/vCQP/InMXD670diILzgeNOKn2LDQ/7s30B4JAbCg9flQrHhIX/GSyg8EgPhwUP+8JA/8icxkMRAePAoDjzkj/xJDCQxEB7ypzjwkD/7t/c8EgPhwaM48JA/+5fEQBID4SF/igMP+bN/B8YjMRDeIOXf+O0/ig0P+TNeeswjMRDekHgm+r9xSFBOseEhf8YLiYEkBsILXv6qUQNgzSdcUGx4yJ/xQmIgiYHwgpa/me+nugHQH8701X9BseEhf8YLiYEkBsILVv6Jnu03roz+1x9O9dV/bs0tTLHhIX/GC4mB3X0/EgPhzYOX6nWtAajrFCZWA5BTbHjIn/FCYiCJgfCC42Xa56YBUHX3CFKrAVik2PCQP+OFxEASA+EFxzMONw1AXPXTv9IdgmkAMooND/kzXkgMJDEQXnA88+u9aQCSKvmPdHcwtu4XUGx4yJ/xQmIgiYHwwuMVVgOQ1j30ZzcASeOUIIqN/JE/vP7zSAyEFxrPNABZpc/1H42sdwSRPzzkz3iB16IJIDEQnme8otEzfFYDoJA/POTPeIG34RJKYuBl7N/B8/I2cb8j5A/vCPm/GfnDg1fdBHicGHgZ+xdeE8BU4qfYyB/5wxsoL5TEwMvZv/BmslBs5I/84Q2VF1Bi4IvZv/CQPzzkz3iBN8zEwBezf+Ehf3jIn/ECb5iJgZezf+Ehf3jIn/ECr0NeQImBl7F/4SF/eF3I/23IHx684BIDL2P/wqM48JA/PHjd8kJJDLyM/Tts+Td++49iI3/kDw9e7xIDL2P/DpJnov8bhwTlFBv5I3948EgMZP8GL3/VqAGw5hMuKDbyR/7w4JEYyP4NWv5mvp/qBkB/ONNX/wXFRv7IHx48EgPZv8HKP9Gz/caV0f/6w6m++s+tuYUpNvIfkvzP1HVj/PnFe4CILISyvSQGwvOAl+p1rQGo6xQmVgOQU2zkPyD5HyMirxCRO0Xk2Yw/r3hbReRGEfmoiJxPYiCJgfBqeZn2uWkAVN09gtRqABYpNvIfiPzLrviZIvJN63t9W0R2M/684f2OLa/xOP6Le91rz6kkBh61kBgIb8FyuGkA4qqf/pXuEEwDkFFs5D8Q+V8oIh/f4Pv9MePPC94ZInLHOuP5YJqml+3bd8YOEgObNQEkBg6CZ369Nw1AUiX/ke4Oxtb9AoqN/Psu/+NE5M9qrpTuKootD2P8Oee9o2Y8f15EHh3A9pIYCG8evMJqANK6h/7sBiBpnBJEsZF/mPIfi8ivisjBJj+TxnH8sQsvPG8b488Z75IW47kcw6d6vr0kBsKbNc80AFmlz/Ufjax3BJE/8u+z/B/Z5CGpI+uXZZNnMf6c8Mox+YWW4/m7InK1iBQeby+JgfBmySsaPcNnNQAK+SP/Hsu/vP96zTRPR+v1xjRNtzP+5s573hTj2axfE5GfFZHI0+0lMRDerHh5m7jfEfJH/nOQ/3sdyH9RRF4gIrdNL/+1+v0u42+uvPLK9eYp5W+vfysi5wqJgSQGwjsKMJX4KTbyD0D+TxCRr7QNRamo3/dE5IGMv/nwoih6XQfyN+tdURS9Zs+eXSeTGEhiILxNLhQb+Xss/33lrYZpEtEa1O/djL/Z8xYWFi7qUP72/v1OmqbPf9CDztxJYiCJgfAoDvLvifzTNClT/H5PX6nPQv5mfRzjb3a8k046USmlPjkD+dvr5xcWFh7lU/1IDISH/OEh/5b1u+CCc7dGUfQ0EfnPbuRQK5sviUjGeJ4NL03TX5yt/A/jXSsip/hSPxID4SF/eMi/4fcrii0/EEXRR2ckh6r1AOO5e95973uf45VS35yT/M16u4j8pohs8aF+JAbCQ/7wkH/F9zvuuHudMh7Hf14m9TmQ/yH9VsFJjOdueUky/oM5y99e/0NEnnjka4NCYiCJgcifYiN/9/JfXv6+HWma/nr5MNec5bDe+hbGc3e87du3naeU+p4j+dvrh0TkwR7Uj8RAeDORf+O3/yg28vfpyn9xMXuSYzkcti4sLDyS8dwNL47j93ogf7N+svwlgMRAEgN7xjPR/41DgnKKjfx9uee/f/8FS1EUfcAH+evEts/pV8oYz5vgLS5mP+2R/Mv1oSQGkhjYQ/mrRg2ANZ9wQbGRv2fv+Z8tIne6l/9IvxaVPp/xPD1v797Tdsex+pJH8n89iYEkBvZQ/ma+n+oGQH8401f/BcVG/p4l/JXLH/ogfzMn/e7du05hPE/HS9PkhR7J/xal1Ime1o/EQHjTyj/Rs/3GldH/+sOpvvrPrbmFKTby90X+5bJDRG7yQP6G91rGc3ve7t279pby8uWZDt/lRWIgvCl4qV7XGoC6TmFiNQA5xUb+nsnfLD/nifzNZy5gPLfjxXH8Ro/k/8XTT3/Asb7Xj8RAeC14mfa5aQBU3T2C1GoAFik28vdU/uVSdrKf8ET+5fr3ZYw947kZb8uW/BEeyf9Qlk2eGEr9SAyE14BnHG4agLjqp3+lOwTTAGQUG/l7LH+zXOSJ/M36dMZzPe/ccx+8LYqiT/gi//IVxND2B4mB8Cp45td70wAkVfIf6e5gbN0voNjI33f5m+V1nsi/XL8pIts5Pqp5URQ9059XOUff27592/mB7g8SA+GtxyusBiCte+jPbgCSxilBFBv5+7E/yhPTQQ/kb9aXc3xszEuSZIdulHyQ/6EkGb8y8P1BYiC8I3mmAcgqfa7/aGS9I4j8kX9I8l9doij6NU/kf0hnFJzF8bEh72W+yF8pddMJJxx/Qg/2B4mB8I7M7FlsGvgz0s8AIH/kH5z8y7/bt++MHXGsvuCB/M36Po6PdXn7ROR7voQ4TSaT5/Rof5AYCM+seZu43xHyR/6hyt/w8nzxcZ7Fyf4Ex8dRvHf7Iv84jj913nkP2d6z/UFiILzmvGnFT7GRv4/7I47j6z16teyrJ5980h6OjzXeY32Rf7kWxZZH9HR/kBgIb7YLxUb+Pu4PpdQDROR2fx4wS17K8bG6ZBX3qOcu//F4/IY+7w8SA+Ehf+Q/KPlbvBd5dKV5+44dx5zN8bH6k68vczfcsmvXztP6vj9IDISH/JH/0ORfLrmIfNUT2ZT3mt8+8OPjBBG51Zf9kSTJlUPZHyQGwkP+yH9I8jfLj3s0UVD5vz9qwMfH632Rv1Lqi0tLRTak8xWJgfCQP/IfkvzN8l6PJgr6vIgkAzw+HuqP/EeHFhYWfnSg5ysSA+Ehf+Q/GPmXy5nrvXPuMDHw1wZ2fJSTNX3Ko19i3jnw8xWJgfAMM6I4yL/P8jfLyz2aKOhmfWIcyvHxLI/kf4eInMH5isTAgfNM9H/jkKCcYiP/gPdHOTHPf3oyUdAhPXHREI6PMu//Jo+ewfhdzlfVTQCJgYOQv2rUAFjzCRcUG/kHvn+f5tFEQeW6fwDHxys8kv+NIrKV89XGTQCJgYOQv5nvp7oB0B/O9NV/QbEbLWPk7yfvpJNOVEqpT3gi/3L9pL4/3tfj4yw9IZIvD2A+lfPVxk1AAImBVyD/Tcs/0bP9xpXR//rDqb76z625hSk28g92/y4tFT/o0URBh/T98b4eHz69ffExEVngfLX+QmLgIHipXtcagLpOYWI1ADnFRv592L/j8fgvPJoo6Fvj8XhXD/fH4z2Sf7lewPmqmkdiYK95mfa5aQBU3T2C1GoAFik28u/L/t2zZ9fJURR9x5OJgg6Nx/Ef92x/lAE7X/ZI/n/G+aoZL6DEwCvwUWOecbhpAOKqn/6V7hBMA5Ahf+Tfw/37K75MFKSUunPr1qWLerQ/rvBI/gdF5DjOV815ASUGXo6Pannm13vTACRV8h/p7mBs3S9A/si/j/u33Hf/7MvENHEc/+3+/Rcs9WB/nLhe3r/Dty+ey/lqKl4oiYGXs38reYXVAKR1D/3ZDUDSOCUI+SP/MHk/5Fc8bfSkHuyPN3ok/39pEruM/INPDLyc/bshzzQAWaXP9R+NrHcEkT/yH8L+fbNH76l/TUSKgPfHxR7Jv1wfw/lq07xQEgMvZ/+uyysaPcNnNQAK+SP/Ae3f+200Ra0jeV0d6P4onyr+tEfyv57zVWe8UBIDL2f/HsXL28T9jpA/8h/g/r3CoyvX74rIaQHuj1/wSP5lDU/lfNUpL5TEwMvZv1PwphU/8kf+PeCVr619yRN5levbA6vfzjLPwKP6/Rbnq5nwSAxkimDkj/x7yXusRxMFleslAdXvDz2S/9dFZInxPBseiYHIH/kj/17yoih6l0cTBf2riEwCqN+DTN6/J83TkxnPs+WRGIj8kT/y7x1v27at5yil7vBoroDfCKB+Kx7J/yMb5f0jfxID2b/IH/mzfyt5STJ+hUcTBZUn0vt6XL+f8Ej+d4nIeYxnEgNJDET+yJ+T21S8+93vhOOVUjd6MlFQ+Xdv8LR+iyLyFY+emXgN45nEQBIDkT/y5+S2KV4URU/xZaKg8u+3bMkf42H9XuCR/MuJnfYwnkkMJDGwNTNi8CN/Tm6H88qD4m89mSionCfgn8455+xjPKrfSVEU3ebRA5P/l/FMYiCJge3Er3N/GocE5cjfD/lnWVZwMpo57xx9X9mLuQLSNPlVj96WeLNH8v+sPnYZzyQGkhjYXP6qUQNgzSdcIH/kPzDeq32ZKCiKom+KSO66fqPRwrkeyb9c/xfjmcRAEgNbyd/M91PdAOgPZ/rqv0D+yH9gvF0i8m1PJgoq12e4rl8cx6/3SP7XMZ5JDCQxsJX8Ez3bb1wZ/a8/nOqr/9yaWxj5I/8h8X7Jo4mCPuCyfieffNKe8irOE/mXef+nMJ5JDCQxsDEv1etaA1DXKUysBiBH/sh/gDyfZrkrE/e2u6pfni8+zqOQpKsYzyQGWh8jMbCal2mfmwZA1d0jSK0GYBH5I/8B8y72KOv+4a7qlyTJVZ7I/z9EZAvjmcTAIxYSA9fnGYebBiCu+ulf6Q7BNAAZ8kf+8OSvPHnv/edc1W88Hr/Bk4TEJzGeSQzcYCEx8HCe+fXeNABJlfxHujsYW/cLkD/y556mUieWDzB58ADcpa7qF8fxezyQ/4fLNxEZzyQGtmkCBpwYWFgNQFr30J/dACSNU4KQP/IfAC9Nkxd6cA/8gKv6RVG04lj+ZS7DQxjPJAa2aQIGnhhoGoCs0uf6j0bWO4LIH/nDs3j79p2xK47VFx3/DH7AYf1WHMcjv5rxTGJgmyaAxMDV/7zYNPBnpJ8BQP7IH946vCzLftzxz+AHHNZvxaH8vz0ej/cwnkkMbPP9SAxs+Pae1QAgf+QPr5r3dodXwgcc1m/F4dwIv8z4IzFwmu9HYmAzwFTiR/7If4C8ixxeCR9wWL8VR/K/9eyzz9rO+CMxcNrvR2LgjBbkj/wHyFt2eCV8pcP6rbiZG0HdzPgjMbCD70diIPJH/vA2zVt2NUtgkoyvcli/FUcTI93M+Osvj8RA5I/8OXmExFt2NUtgmcbnsH4rjiZGupnx128eiYHIH/lz8giFt+xqimCrAXBRvxVHEyPdzPjrP4/EQOSP/Dl5hMBbdjVFsG4AXNVvxc2siKsNAONvGDwSA5E/8ufk4TVv2dUUwfoZAFf1W3E0K+JBxt+geCQGzkn+jd/+Q/7IH97GDcAcZXilw/qtOJoV8SDjb3A8EgNnyzPR/41DgnLkj/zhHd0AzFmGBxzWb8XRlMgHGX+D5JEYODv5q0YNgDWfcIH8kT+8wxsABzI84LB+K46mRD7I+Bssj8TA7uVv5vupbgD0hzN99V8gf+QP754GwJEMD7iqXzkboIPtbdwAMJ5JDNzs9+t5YmCkZ/kdWw1A5fTAqb76z625hZE/8h86b9mR/Bs3ALOoXxyrDzrY3kYNAOOZxMAOv19fEwNTva41AHWdwsRqAHLkj/zhiYxGo4c4kn+jBmBW9Yvj+EMOtre2AWA8kxhIYmAtL9M+Nw2AqrtHkFoNwCLyR/7w7uYtLRUXOZJ/bQMwy/rd0wDMdXsrGwDGM4mBJAbW8ozDTQMQV/30r3SHYBqADPkjf3j38LZuXdrvSP6VDcCs63d3AzD37d2wAWA8kxhIYmAtz/x6bxqApEr+I90djK37Bcgf+cOzePc0AE5keMBV/cpnABxs77oNAOOZxEASAxvxCqsBSOse+rMbgKRxShDyR/4D4t3dADiR/7oNwLzqV74F4GB7j2oAGM/w2jQBA08MNA1AVulz/Ucj6x1B5I/84a3DK58BcCT/oxqAOddvxcH2HtYAMP7gtWkCSAxc/c+LTQN/RvoZAOSP/OFtwCvfAnAk/8MaAAf1W3GwvWsNAOMPXpsmgMTA1TVvE/c7Qv7IH14tb9mR/NcaAEf1W3GwvasNAOMPXpsmgMTAlrxpxY/8OTgHyFt2JP/VBsBh/VYcbO/qbICMP3hNmwASA8ObIhj5wwuJt+xI/quzATqs34qD7S0ZNzP+4DVZSAwMT/5lHOGbkD+8gHjLjuR/KEnGVzms38r85T86sgFg/MGr5AWUGPiCocu/XK5G/vAC4y27uRIeHUqS5CqH9VtxIH+7AWD8wWvECyUxcGFh4fFDlv9PI394AfKWHV0J2w2Ai/qtOJC/aQAYf/Ba8QJJDLxZRL5viPI/W0RuQ/7wAuQtO7oSNg2Aq/qtOJC/aQAYf/Cm4YWQGFh+v+1Dkn+5vB/5wwuUt+zoStg8A+Cqfivzl/8q7yDjD94meCEkBl7tQv6N3/7r+B9/DPKHFzBv2c2V8CrvSof1W3GwvbXTATOe4fUgMfA2ETl+jvUz0f+NQ4Lyjv7xURRFn0b+8ALmLTuSf+10wDOu34qD7W3dADCe4bVpAjxKDHz1HOWvGjUA1nzCRRf/+MLCwo8hf3iB85Ydyb91A9Bx/VYcbG+rBoDxDK9NE+BZYuCdInLCHORv5vupbgD0hzN99V90sfPiOL6mxcnjIyKSIX94nvGWHcm/VQPQdf3K2QAdbG/jBoDxDK9NEzCPxMCdO3fsjaLoGy2Oi1+bsfwTPdtvXBn9rz+c6qv/3JpbeOqdt3fvaTvLLqvhyeNWvaO6Ggy/gPzhdcRbdiT/xg3ALOoXx+qDDra3UQPAeIbXZmmQGPiwDr/fo1scGx+eYf1Sva41AHWdwsRqAPLN7ryi2PKIFiePF3c4GB4lInchf3hd8MrZAB3Jv1EDMKv6xXH8IQfbW9sAMJ7hTcOrSQz8bxG5f4ff728aHh/fy7LJ0gy2N9M+Nw2AqrtHkFoNwGIXO28ySZ/b8ORRyvo+HQ2GRES+jPzhdcVbWiouciT/2gZglvW7pwGY6/ZWNgCMZ3ib4dUkBl7b4fe7pOnxsWVL/vCOt9c43DQAcdVP/0p3CKYByLoqdpKMX9Xw5PGxDgfD45E/vC55W7cu7Xck/8oGYNb1u7sBmPv2btgAMJ7hdcGrSQy8f0ffbyIi321yfGTZ5Bkdbq/59d40AEmV/Ee6Oxhb9ws6K3Ycx3/d8OTxRx0Ohlevw/8U8oc3Le+eBsCJDA+4ql/5DICD7V23AWA8w+uYVz5v9u11xt4zOvx+n2hyfKRpenmH21tYDUBa99Cf3QAkjVOCGhYniqJ3NjxhXN7hYHjPOsV+OoMf3rS8uxsAJ/JftwGYV/3KtwAcbO9RDQDjGd6MeK9aZ+xd1eH3e2vDuO+rO9xe0wBklT7XfzSy3hGMZlDsG9o2AB0MhvceWew0TX+ewQ9vWl75DIAj+R/VAMy5fisOtvewBoDxB2+GvD9aZ+y9pMPv99aGcd8v6XB7i0bP8FkNgJqR/MvlTQ0P+Fd2OBhec2Sx4zj++L59Z+xi8MObhle+BeBI/oc1AA7qt+Jge9caAMYfvBnyygz/m9YZe8/q8Pv9fcPj43kdbm/eJu53NEP5l8sfNDzgP9LhYPip9Yo9Hsfv2LfvjB0MfnhT8JYdyX+tAXBUvxUH27vaADD+4M2Qdy8R+ecNxt5pHX2/Ms329obHx8/OvX7Tir/lP/6chiePO3fv3nVKR4NhEkXR1zYo9tv0a4IcTPDa8JYdyX+1AXBYvxUH27s6GyDjD54D+b+zw+/3qBbHx/e7rN8si/3QpiePNE1+s6vBkGWTJ1UU+61tmgAOJnhtGoAZyPBKh/VbcbC9JeNmxh+8Ocu/TAM8o8Pvd33D46OcD2Cpj/IXnet/W8OTx827d+86o6vBkKbJCypORo2aAA4meG0agFnIMEnGVzms38r85T86sgFg/MGbtfzL9/Uf3eH3e3iL4+OjfZW/Wa5tevKIY/WB7du3pV19vyQZv7DiZFTZBHAwwWvTAMxKhkmSXOWwfisO5G83AIw/ePOQ/yUdfr89IvLVFsfHpX2Wf7k8oeXJ440iEnf4/S6tOPGs2wRwMMFr0wDMUoZWA+CifisO5G8aAMYfvNDkf6yI/EOL46OMwD+5z/Ivl3ISgs+2PHm8oWkT0PD7NW4COJjgtWkAZi1D3QC4qt+KA/mbBoDxBy80+X+65fHxZ32Xv1keO8XJo7YJaPn9apsADiZ4bRqAechQPwPgqn4r85f/Ku8g4w9ez+VffoeT5i3/xm//dfyPR1EU/d0UJ48Nm4Apv9+lFSejt+mcAA4meLUNwBxleKXD+q042N7a6YAZz/ACl3+5vmzO9TPR/41DgvIud1455aFS6o4pTh5HNQGbLM6lG52MyrCgs8564LEcTPCqGoA5y/CAw/qtONje1g0A4xleYPL/mojsmrP8VaMGwJpPuOh6500m6S9PefJYawI6Ks6lG52MSAyEV9UAOJDhAYf1W3Gwva0aAMYzvMDkX6YDnj9n+Zv5fqobAP3hTF/9F7PYeePx+FVTnjzesHPnMUmHxbm0YueRGAjvqAbAkQwPuKpfORugg+1t3AAwnuEFJv9yffKc5Z/o2X7jyuh//eFUX/3n1tzCne68UuItZgk87OQRx/Fblpe/b0dXg6vMCSAxEF6TBsCR/Bs3ALOoXxyrDzrY3kYNAOMZXoDyv3rO9Uv1utYA1HUKE6sByGe48zKdu9z65DEex3+tm4CuEgNfRGIgvKqlnA3QkfwbNQCzql8cxx9ysL21DQDjGV6A8v/dOdcv0z43DYCqu0eQWg3A4hx2XqMmYP3EwPgt+peETr4fiYHwqnhLS8VFjuRf2wDMsn73NABz3d7KBoDxDA/519bPONw0AHHVT/9KdwimAcjmOBgqm4CaYr+BxEB48+Bt3bq035H8KxuAWdfv7gZg7tu7YQPAeIaH/GvrZ369Nw1AUiX/ke4Oxtb9gnkPhnWbABID4fnCu6cBcCLDA67qVz4D4GB7120AGM/wkH+j+hVWA5DWPfRnNwBJ45Sg7jfmsCaAxEB4PvHubgCcyH/dBmBe9SvfAnCwvUc1AIxneMi/cf1MA5BV+lz/0ch6RzByPBhWm4Api01iILyZ8cpnABzJ/6gGYM71W3GwvYc1AIw/eMi/Vf2KRs/wWQ2A8kD+q0ueL+ZxHL9nypMHiYHwZsIr3wJwJP/DGgAH9VtxsL1rDQDjDx7yb12/vE3c78gX+Rve6aefuueeJoDEQHhe8JYdyX+tAXBUvxUH27vaADD+4CH/Ge6PacU/j40xTQCJgfA84S07kv9qA+CwfisOtnd1NkDGHzzkPx+el4OhvB3QJiyIxEB4M+QtO5L/6myADuu34mB7S8bNjD94yH+g8icxkJOHZ7xlR/I/lCTjqxzWb2X+8h8d2QAw/pA/8h+g/KVNE0BiILwZ8pbdXAmPDiVJcpXD+q04kL/dADD+kD/yH7D8GzUBJAbCmzFv2dGVsN0AuKjfigP5mwaA8Yf8kT/yr24CSAyENwfesqMrYdMAuKrfigP5mwaA8Yf8kT/y37gJIDEQ3px4y46uhM0zAK7qtzJ/+a/yDjL+kD/y717+jd/+83hjSAyEN2/espsr4VXelQ7rt+Jge2unA2Y8I3/k3178OvencUhQ7uvGkBgIb868ZUfyr50OeMb1W3Gwva0bAMYz8kf+tfJXjRoAaz7hwufBRWIgvDnyHuZI/q0bgI7rt+Jge8v1tqbZGoxn5I/8a+Vv5vupbgD0hzN99V/4PrhIDIQ3J967HMm/VQPQdf3K2QAdbK9Zn8P4Q/7If9PyT/Rsv3Fl9L/+cKqv/nNrbmGvBxeJgfBmzHuMQ/k3bgBmUb84Vh90JP9yvUlEtjH+kD/yn5qX6nWtAajrFCZWA5AHNLhIDIQ3C155m+ifHcq/UQMwq/rFcfwhR/I369WMZ+SP/KfiZdrnpgFQdfcIUqsBWAxwcJEYCK9r3s87ln9tAzDL+sVx/EGH8i/X20XkRMYz8kf+rXjG4aYBiKt++le6QzANQBbwYCUxEF5XvG1RFH3TsfzL9Xmu6hfH8d84lL9ZX8d4Rv7IvzHP/HpvGoCkSv4j3R2MrfsFoQ9WEgPhdfEA3G97IP9yfYqr+o3H8Z87lr9ZH8J4Rv7IvxGvsBqAtO6hP7sBSBqnBPlfHBID4U3NU0qdrJS63QP5l+v/cFW/KIqe64H8y797H+MZ+SP/RjzTAGSVPtd/NLLeEYx6NlhJDIQ3FS+O4zd7Iv9bRSR1WL/v90D+q3+f54s/znhG/si/llc0eobPagBUD+W/upAYCK8tb8uW/Ac9kX+5vsVx/conh290Lf+7H9RVnz3nnLOPYTwjf+RfycvbxP2O+ip/EgM5GbXl7d9/Qfng28c8kX+5XuJB/X7LtfzNmqbpsxnPyB/5d8CbVvwhFofEQHhNeFmWPdUj+f+jiCx4UL/76tfxnMpf874uIlsYz8gf+TNFcCseiYHwqnh79562O47VVzyRf7k+yqP6Xe2B/H2YGwEe8kf+AReHxEB4G+2PKzyS/w2e1W+bjuZ1Lf9yvUVEjmM8I3/kj/yn4ZEYCO8w3r3vfVz52t9BT+R/p4ic6WH9nuOB/M36asYz8kf+yH9aHomB8Ip7Am/Gf+KJ/Mv1VZ7WrxyHX/BA/qZJ2sd4Rv7IH/mTGMjJaGre9u3bzldqdKcn8j8Yx/FxHtfv8R7I36zXM56RP/JH/iQGcjKamlfm3Xsi//LvfsPn+p155t5RHKuPepST8HDGM/JH/q2YEYN/nSYggMTAt5IY2C1vcTH7MY/k/5VTTz1ll+/1K4otj/DoVclPePKqJPJH/r7zTPR/45CgfCjFCSgx8O0kBnbDO/fcB5ez/X3aE/kfmkzSp4XzzER8nUfPTPwM4xn5I/9a+atGDYA1n3AxpMEfUGLg20kM3DwviqJn+CJ/pdTH9++/YGso9du+fdtyFEV38MsJ8kf+QcjfzPdT3QDoD2f66r8Y2uAPKDHwrSQGTs+bTCZbReQbvkx0UxRbHhng/vh9X+pXZjgga+SP/Nf1eaJn+40ro//1h1N99Z9bcwsPavAHlBh4HYmBU/Ne5Iu8xuP42kD3R3mS/m8fJgpSSn3nPvc57v7IGvmzfw/jpXpdawDqOoWJ1QDkAx78oSQGXkdiYGveCSJymw/yV0p9d8eOY84OeH88z5eJgsbj8SuRNfJn/67xMu1z0wCounsEqdUALDL4g0kMvI7EwFa813ki/0NJMn5F4PujPEa+6slEQeUzCQ9A/sif/bvmcNMAxFU//SvdIZgGIGPwN2sCPEoMvI7EwEa8c32Rv1LqWyeccPwJPdgfP+vRREFvQv7If+D71/x6bxqApEr+I90djK37BQz+Bk2Ah4mB15EYWMv7gCfyL+e2f25P9kf5v3/Sk4mCyvVC5I/8B7x/C6sBSOse+rMbgKRxStDwih1KYuB1JAZuyHusL/KPY/WFs8564DE92h8/5NFEQR8WkQj5I/+B7l/TAGSVPtd/NLLeEUT+DZoAEgOD5K1NZOPDA2tZNvnJHu6Pt3syUVC5Po7zVRDy/wfk3zmvaPQMn9UAKOTfbCExMFjer/gi/zhW7+/p/jgziqI7PZkoqGz2xsgB+Q9w/+Zt4n5HyL8dj8TA4Hg7ROS/fJC/UqO7RqPROX3dH+Nx/FqPJgp6Nucr5M/+3RgwlfgpNomBgfFe5on8y//+tX0+Pvbs2X26UupWTyYKuklEtnG+Qv74rcOFYpMYGND+PU1E7vBE/reIyH36fnwkSXK1RxMFvYTzFfLHb8ifxMBhJgZe44n8y//9yiEcHyeddOJxURR9w5OJgm7buXPHXs5XyB+/If9Z8SYkBnrJu9gj+X+tfIZ0QMfHM/2Za2H8es5Xwcr/d/AR8g+BNyEx0Cte+d9/wqOEuqcO7PhQFYKZ9/64a+vWpf/J+Qr5w6M4s+RNSAz0hvdkj+RfpuSNBnh8XOLRq5crnK+QPzyKM2vehMRA57zyp/Z/90T+5frwAR8f7/PoNsyjkT/yH7r8G7/9R7Gn5k1IDHTKu8Ij+b914MfHuR79EvMZfWsC+SP/IfJM9H/jkKCcYk/H27IlXyQx0Anv3iJyiyfy/56InM7xIX/p0URBT0f+yH+g8leNGgBrPuGCYk/P27v3tN0kBs6d9xqPZPP7HB+ry/1E5HZPJgr6etmfI3/kPzD5m/l+qhsA/eFMX/0XFHtzPNMEkBg4F97ZInKXJ/L/tj4hcnzcvfy2RxMFXYH8kf+A5J/o2X7jyuh//eFUX/3n1tzCFHsTvPJ2AImBc+G9x6MpaX+V4+OwZXsURd/yZKKgm7UckT/y7zsv1etaA1DXKUysBiCn2J3xJiQGzpR3iUfy/zcRSTk+jmw+k+d5NFHQ/0P+yL/nvEz73DQAqu4eQWo1AIsUu3MeiYGz4ZXPSnzOE/mX6xM4Po7mlQ+bxrH6kicTBd0pIg9E/si/pzzjcNMAxFU//SvdIZgGIKPYM+ORGNg97xc9kv+HOD425mVZ9n88mijobcgf+feQZ369Nw1AUiX/ke4Oxtb9Aoo9Wx6Jgd3xtutpX315wOx8jo+Nefv3X7AURdHfeTJR0KE8X3wM8kf+PeMVVgOQ1j30ZzcASeOUIIpNYqAf++OlHsn/Lzk+GvH2+zJRUBzHn7rwwvO2IX/k3yOeaQCySp/rPxpZ7wgi//nySAzcHO/k8gTnifxv0++7c3w04/21JxMFHcqyydORP/LvEa9o9Ayf1QAo5O+GR2Lgpnhv9ET+5XoV47kV7zSdlHjI/VwB6qv6VV3kj/z7wMvbxP2OkL9bHomBU/Eu8kj+N4rIEuO5Ne8PPJoo6LnIH/kPijet+Ck2iYGO6xeVD5J5Iv9y/TnG81S8XSLyHU8mCiqTG3cif+QvTBFMcVzwSAxstiwsRE/0SP5HzTDHeG7Fe75Hczf8HvJH/sif4rjkkRhY88xEec/Wo0S5RzGeN8Urm95/9yTH4Q4ROQX5I3/kT3FIDPQwMTBJkgMeyf8GxnMnvKd49CrnG5E/8kf+FJvEQM8SA/fs2XWyUupmT+RfRsmeyXjuhDeKougfPLqtcwHyR/7In2KTGHjP4jwx8Pjj733SeDz+E6XUnR7Eyb6K8dwdb3Ex+zFP5P9xETkP+SN/5E+xSQw8fPEiMXDr1qXzoii6waH8D4rIHsZzt7w4jt/tUP5fFpEnls+YIn/k32f5N377j2KTGNimCXCQGPgIEflHB4lyv8F47p63bdvWC5Ua3TVn+X9bZwBM+Nkf+fecZ6L/G4cE5RSbxMAmTYDDxMDyFbyni8g35iT/r4hIxnieDS+Koj+dk/zLJ/5fttG7/8gf+fdQ/qpRA2DNJ1xQbH94JAZW8goRebHO5J/le+VPZDzPlHe8iNw6Y/mXT/o/wNP6IX94s5C/me+nugHQH8701X9Bsf3ikRhYu5wgIq+bkfw/euaZe0eM55nzXjQj+X9YRC70uH7IH94s5J/o2X7jyuh//eFUX/3n1tzCFNsjHomBjZbyQcEPdvlq2cLCwkMZf3PhLen5FbqS/xdE5HFlhDTyR/4D46V6XWsA6jqFidUA5BTbWx6JgQ14i4vZz8Sx+mIHT5e/hfE3V96zOpD/TSLybBEZe769yB/eLHiZ9rlpAFTdPYLUagAWKbb3PBIDG/DKhxKTJPn1KIr+a0r5f/eYY7Y/iPE3V175vMpnp5R/+RzIS0RkWwDbi/zhzYJnHG4agLjqp3+lOwTTAGQUOxgeiYHNeTv1k993tPnlZDwe/z7jzwnvR1uO57tE5M9F5MRAthf5w5sFz/x6bxqApEr+I90djK37BRQ7LB6Jge14p4nINc1+OVHfOuGE409g/Dnjvb/heH6PiDw4oO1F/vBmxSusBiCte+jPbgCSxilBFJvEwOkSA6+dV2JgA97FIvKJql9O0jR9LuPPKe/8mvH8TyLymMC2F/nDmyXPNABZpc/1H42sdwSRf9i8UBIDr5tzYmDVUn7myetNSRvH6gsPetCZOxl/bnlRFP3V0eNZfSOKomfqICjkj/zhHc5abBr4M9LPACD/HvACSgy8fs6JgXVL+Wrl5VEU3WxOlouL2U8x/tzzjjlm+1lKqe/q8XxrkoyvyrLJUoDbi/zhzYOXt4n7HSH/fvECSgy83kFiYCVv165jTx2Px6+L4/j9jD9/eEmSvHw8Hr929+5jHxDo9iJ/eH7xphU/xSYxsOVSlRh4naPEwEpelzkJjOfB85A/PKYIhjdfXkCJgdc6TAyEBw/5I3/kT3F6yQslMfBal4mB8OAhf/Yv8qc4feSFkhh4rcvEQHjwkD/7F/lTHBID3SUGXutBYiA8eMif/Yv8KTaJgQ4SA6/1JDEQHjzkz/5F/hSbxMABJwbCg4f82b+9kH/jt/8oNomBJAbCg4f82b+94Jno/8YhQTnFJjGQxEB48JA/4yV4+atGDYA1n3BBsfvLIzEQHryg5L8T+cObUv5mvp/qBkB/ONNX/wXF7jePxEB48JA/+7fX8k/0bL9xZfS//nCqr/5za25hit1jHomB8OAhf/ZvL3mpXtcagLpOYWI1ADnFHgyPxEB48JA/+7c/vEz73DQAqu4eQWo1AIsUe3A8EgPhwUP+jJfwecbhpgGIq376V7pDMA1ARrEHyyMxEB485M94CZdnfr03DUBSJf+R7g7G1v0Cij1sXtkE3EBiIDx4wcn/pezfwfMKqwFI6x76sxuApHFKEMUeQmLgDSQGwoOH/OEFxTMNQFbpc/1HI+sdQeQP76gmgMRAeMgf+cMLhlc0eobPagAU8oe33qITA99NYiA85I/84QXBy9vE/Y6QP7wqng4LejeJgfCQP/KH1xPetOKn2INNDHw3iYHwkD/yh9cvHsWBV8vTiYE3kBgID/kjf3jIn2IPjzdp0wSQGAgP+SN/eMgfXr8SA28gMRAe8kf+8JA/vOHxKpsAEgPhIX/kDw/5wyMxkMRAeMgf+cND/vBIDCQxEB7yR/7wXMi/8dt/FBtemyaAxEB4yB/5w/OWZ6L/G4cE5RQbXpOFxEB4yB/5w/Na/qpRA2DNJ1xQbHhNeSQGwkP+yB+el/I38/1UNwD6w5m++i8oNrw2PBID4SF/5A/PK/knerbfuDL6X3841Vf/uTW3MMWG15hHYiA85I/84XnBS/W61gDUdQoTqwHIKTa8KXkkBsJD/sgfnjtepn1uGgBVd48gtRqARYoNb5M8EgPhIX/kD2/+PONw0wDEVT/9K90hmAYgo9jwOuKRGAgP+SN/ePPjmV/vTQOQVMl/pLuDsXW/gGLD65JHYiA85I/84c2HV1gNQFr30J/dACSNU4IoNjwSA9m/yB/5w/ONZxqArNLn+o9G1juCyB/eLHkkBsJD/sgf3mx5RaNn+KwGQCF/ePPgkRgID/kjf3gz5eVt4n5HyB/ePHkkBsJD/uxfeI5504qfYsPbLI/EQHjIn/0LjymC4ZEYSGIgPOTP/oWH/OENjEdiIDzkz/6Fh/zhDZRHYiA85M/+hYf84Q2UF0pi4DUkBiJ/5A8P+VNseN3yQkkMvIbEQOSP/OEhf3jwuuWFkhh4DYmByB/5wwtN/o3f/qPY8BzxQkkMvJbEQOSP/OEFwjPR/41DgnKKDc8FL6DEwLeRGIj8kT+8AOSvGjUA1nzCBcWG54oXUGLg20gMRP7sX3gey9/M91PdAOgPZ/rqv6DY8FzyAkoMvJbEQOTP/oXnofwTPdtvXBn9rz+c6qv/3JpbmGLDc8YLKDHwGhIDkT/7F55HvFSvaw1AXacwsRqAnGLD84QXSmLgNSQGIn/2LzwPeJn2uWkAVN09gtRqABYpNjzPeKEkBl5DYiDyZ//Cc8gzDjcNQFz107/SHYJpADKKDc9THomByB/5w4O3Mc/8em8agKRK/iPdHYyt+wUUG57PPBIDkT/yhwdvfV5hNQBp3UN/dgOQNE4JotjwSAxs3ASwf5E/xy+8OfFMA5BV+lz/0ch6RxD5wwuJR2Ig8kf+8OAdndmz2DTwZ6SfAUD+8ILjkRiI/JE/PHiH8fI2cb8j5A8vZB6Jgcgf+cOD15I3rfgpNjzfeCQGIn/kDw8eUwTDIzGQxEDkb+T/KeQPDx7yhzcMHomByB/5w4OH/OENlEdiIPJH/vDgIX94A+WRGIj8kT88eMgf3kB5JAYif+QPDx7yhzdQHomByB/5w4N3DzOiOPBIDCQxEPkjf3jD4Zno/8YhQTnFhtcHnk4MfBeJgcjfWn+b4wPegOSvGjUA1nzCBcWG1xeeDgt6F4mByB/5wxuY/M18P9UNgP5wpq/+C4oNr0880wSQGIj8OT7gDUT+iZ7tN66M/tcfTvXVf27NLUyx4fWGpxMD30FiIPLn+IDXc16q17UGoK5TmFgNQE6x4fWUN2nTBJAYiPw53uAFxsu0z00DoOruEaRWA7BIseH1nNeoCSAxEPlzvMELjGccbhqAuOqnf6U7BNMAZBQb3kB4lU0AiYHIn+MNXmA88+u9aQCSKvmPdHcwtu4XUGx4Q+Kt2wSQGIj8OT7gBcgrrAYgrXvoz24AksYpQRQbXv8SA99BYiDy5/iAFzjPNABZpc/1H42sdwSRP7wh81abABIDkT/HB7yAeUWjZ/isBkAhf3jwSAxE/hwf8ILn5W3ifkfIHx48EgORP8cHvAHxphU/xYbXdx6Jgcif4wMeUwRTHHgkBg45MRD5w4OH/Ck2vEHyhpwYiPzhwUP+FBveoHlDTAxE/vDgIX+KDQ/ewBIDkT88eMifYsODV9cE9CwxEPnDg4f8KTY8eHVNQM8SA5E/PHg9l3/jt/8oNjx4GzcBPUsMRP7w4PWbZ6L/G4cE5RQbHryjl54lBiJ/ePD6L3/VqAGw5hMuKDY8eOvzepIYiPzhweu//M18P9UNgP5wpq/+C4oND97GvMATA5E/PHj9l3+iZ/uNK6P/9YdTffWfW3MLU2x48MJPDLxeRO6jP362iHwW+cOD12teqte1BqCuU5hYDUBOseHB61ViYLneXPHdkD88eP3gZdrnpgFQdfcIUqsBWKTY8OD1MjEQ+cOD12+ecbhpAOKqn/6V7hBMA5BRbHjwep0YiPzhwesnz/x6bxqApEr+I90djK37BRQbHrx+JAb+gpZ7lXC/KSI/jPzhwesFr7AagLTuoT+7AUgapwRRbHjwGjcBjhMDTxeRPxWR/z7i3/m6iPyWiOxC/vDg9YZnGoCs0uf6j0bWO4LIHx68fiYGlkv5BPDJ+g2A+85ge5E/PHjueUWjZ/isBkAhf3jwep8YOMvtRf7w4PnBy9vE/Y6QPzx4g0kMRP7w4MFrMSsQxYYHb1M8zxIDkT88ePCQPzx4Q0wMRP7w4MGjOPDgDTQxEPnDg4f8KQ48eANNDET+8OAhf4oDD95wEwORPzx4yJ/iwIM3R55PiYHIHx485E+x4cGbI8+nxEDkDw9ez+Xf+O0/ig0P3lx4viUGIn948PrHM9H/jUOCcooND97seR4nBiJ/ePD6IX/VqAGw5hMuKDY8ePPheZgYiPzhweuH/M18P9UNgP5wpq/+C4oND978eB4lBiJ/ePD6If9Ez/YbV0b/6w+n+uo/t+YWptjw4A0nMRD5w4PXD16q17UGoK5TmFgNQE6x4cEbVGIg8ocHrx+8TPvcNACq7h5BajUAixQbHrxgEwPfMZmk21p+tfuLyGeQPzx4wfOMw00DEFf99K90h2AagIxiw4MXfGLgl0TkCSJS910zEfllEfkO8ocHL3ie+fXeNABJlfxHujsYW/cLKDY8eP1IDDSNwEtF5H+LyENEZK+InC8iTxKRPxaRb00RQoT84cHzk1dYDUBa99Cf3QAkjVOCKDY8ePPkbSYx8NA0txGQPzx4QfJMA5BV+lz/0ch6RxD5w4PXz8RA5A8P3jB4RaNn+KwGQCF/ePB6nxiI/OHB6z8vbxP3O0L+8OANJjEQ+cODB6/FrEAUGx48r3j79p2xK47jN8xR/neJyPPZH/Dg9Y9HceDBC5P3PC3nWcr/oIhcwv6ABw/5U2x48PzilXK+aUby/6yI7GN/wIOH/Ck2PHh+8srUvxeJyC0dyf9rIvKMI6cZZn/Ag4f8KTY8eH7y7iUiLytT/aaU/7/r2wqL7A948JA/xYYHLzxeGe/7IyLy8iiKPqqUumUD+f+XiLxXRF4sIvtFZET94MFD/hQbHrye8Pbvv2Dr8cff+6SdO3c8aNu2rQ9RSp0sIlupHzx4w5J/47f/KDY8ePDgwYPXC56J/m8cEpRTbHjw4MGDBy94+atGDYA1n3BBseHBgwcPHryg5W/m+6luAPSHM331X1BsePDgwYMHL1j5J3q237gy+l9/ONVX/7k1tzDFhgcPHjx48MLipXpdawDqOoWJ1QDkFBsePHjw4MELjpdpn5sGQNXdI0itBmCRYsODBw8ePHjB8YzDTQMQV/30r3SHYBqAjGLDgwcPHjx4wfHMr/emAUiq5D/S3cHYul9AseHBgwcPHrzweIXVAKR1D/3ZDUDSOCWIYsODBw8ePHi+8UwDkFX6XP/RyHpHEPnDgwcPHjx44fKKRs/wWQ2AQv7w4MGDBw9e8Ly8TdzvCPnDgwcPHjx4A+JNK36KDQ8ePHjw4PWDR3HgwYMHDx485E9x4MGDBw8ePOR/+D9uzxFQdBAXDA8ePHjw4MGbI2+af9yeIyDvIC4YHjx48ODBgzdH3jT/eGblCy92EBcMDx48ePDgwZsjr+0/HllzBEysyQUiePDgwYMHD14YPGnz9p81RXBqrckmNwYePHjw4MGDN3/eqGlIUGTNEWDWeJP/ODx48ODBgwdv/jzVqAGwPhxbq+rgH4cHDx48ePDgueE1agBGR66yiQUePHjw4MGD5wUvqusWFqw12uQ/Dg8ePHjw4MHzhPf/AXLtOZQ6LM0GAAAAAElFTkSuQmCC;" vertex="1" parent="WIyWlLk6GJQsqaUBKTNV-1">
          <mxGeometry x="290" y="258.13" width="43.75" height="43.75" as="geometry" />
        </mxCell>
      </root>
    </mxGraphModel>
  </diagram>
</mxfile>
